<?xml version="1.0" encoding="utf-8"?>
<!-- Generator: Adobe Illustrator 17.1.0, SVG Export Plug-In . SVG Version: 6.00 Build 0)  -->
<!DOCTYPE svg PUBLIC "-//W3C//DTD SVG 1.1//EN" "http://www.w3.org/Graphics/SVG/1.1/DTD/svg11.dtd">
<svg version="1.1" id="Layer_1" xmlns="http://www.w3.org/2000/svg" xmlns:xlink="http://www.w3.org/1999/xlink" x="0px" y="0px"
	 viewBox="0 0 850 566" enable-background="new 0 0 850 566" xml:space="preserve">
<g id="restapi_1_">
	<g>
		<path d="M48.1,44.4c0-3.4,0.8-5.9,2.7-7.9c1.8-2,4.1-2.8,6.9-2.8c1.8,0,3.5,0.4,5.1,1.3c1.6,0.8,2.7,2.1,3.4,3.7
			c0.7,1.6,1.1,3.4,1.1,5.4c0,2.1-0.4,4-1.3,5.5c-0.8,1.6-2,2.8-3.5,3.7c-1.6,0.8-3.1,1.3-5,1.3c-1.8,0-3.7-0.4-5.1-1.4
			c-1.4-1-2.7-2.1-3.4-3.8S48.1,46.3,48.1,44.4z M51,44.6c0,2.4,0.7,4.4,2,5.8c1.3,1.4,3,2.1,5,2.1s3.7-0.7,5-2.1
			c1.3-1.4,2-3.4,2-6.1c0-1.7-0.3-3.1-0.8-4.4c-0.6-1.3-1.4-2.1-2.4-2.8c-1-0.7-2.3-1-3.7-1c-1.8,0-3.5,0.7-5,2S51,41.5,51,44.6z"/>
		<path d="M68.8,54.3l7.8-20.2h2.8l8.3,20.2h-3.1l-2.4-6.1h-8.5l-2.3,6.1H68.8z M74.6,46h6.9l-2.1-5.7c-0.7-1.7-1.1-3.1-1.4-4.2
			c-0.3,1.3-0.6,2.5-1.1,3.8L74.6,46z"/>
		<path d="M99.2,54.3v-2.1c-1.1,1.7-2.7,2.5-4.7,2.5c-0.8,0-1.7-0.1-2.4-0.6c-0.7-0.4-1.3-0.7-1.7-1.3s-0.6-1.1-0.7-1.8
			c-0.1-0.4-0.1-1.3-0.1-2.3v-9.1h2.5v8.1c0,1.3,0,2.1,0.1,2.7c0.1,0.7,0.4,1.1,1,1.6c0.6,0.4,1.1,0.6,1.8,0.6
			c0.7,0,1.4-0.1,2.1-0.6c0.7-0.4,1.1-0.8,1.4-1.6c0.3-0.7,0.4-1.6,0.4-2.8v-7.9h2.5v14.7h-2.4V54.3z"/>
		<path d="M110.7,52.1l0.4,2.3c-0.7,0.1-1.3,0.3-1.8,0.3c-0.8,0-1.6-0.1-2.1-0.4c-0.6-0.3-0.8-0.7-1-1.1c-0.1-0.4-0.3-1.4-0.3-3
			v-8.5H104v-2h1.8V36l2.4-1.6v5.1h2.5v2h-2.5v8.6c0,0.7,0,1.1,0.1,1.4s0.3,0.4,0.4,0.4c0.1,0,0.4,0.1,0.8,0.1
			C110,52.2,110.3,52.2,110.7,52.1z"/>
		<path d="M113.2,54.3V34.1h2.5v7.2c1.1-1.4,2.7-2,4.4-2c1.1,0,2,0.3,2.8,0.7c0.8,0.4,1.4,1,1.7,1.8c0.3,0.8,0.6,1.8,0.6,3.3v9.3
			h-2.5V45c0-1.3-0.3-2.1-0.8-2.7c-0.6-0.6-1.3-0.8-2.3-0.8c-0.7,0-1.4,0.1-2.1,0.6c-0.7,0.4-1.1,0.8-1.4,1.6s-0.4,1.6-0.4,2.7v8.1
			L113.2,54.3z"/>
		<path d="M149.2,51.9v2.4h-13.4c0-0.6,0.1-1.1,0.3-1.7c0.3-0.8,0.8-1.8,1.7-2.7s1.8-1.8,3.3-3.1c2.3-1.8,3.7-3.3,4.5-4.2
			c0.8-1,1.1-2.1,1.1-3c0-1-0.3-1.8-1-2.5c-0.7-0.7-1.6-1-2.7-1s-2.1,0.4-2.8,1.1c-0.7,0.7-1.1,1.7-1.1,3l-2.5-0.3
			c0.1-1.8,0.8-3.4,2-4.4s2.7-1.6,4.7-1.6s3.5,0.6,4.7,1.6s1.7,2.4,1.7,4c0,0.8-0.1,1.6-0.6,2.4c-0.4,0.8-0.8,1.6-1.7,2.4
			c-0.8,0.8-2,2.1-3.8,3.5c-1.6,1.3-2.4,2.1-2.8,2.5c-0.4,0.4-0.7,0.8-1,1.4h9.6V51.9z"/>
		<path d="M153.3,54.3v-2.8h2.8v2.8H153.3z"/>
		<path d="M159.6,44.4c0-2.4,0.3-4.4,0.7-5.8c0.4-1.4,1.3-2.5,2.3-3.4c1-0.8,2.3-1.1,3.7-1.1c1.1,0,2,0.3,2.8,0.7
			c0.8,0.4,1.6,1.1,2,1.8c0.4,0.7,1,1.8,1.3,3c0.3,1.1,0.4,2.8,0.4,4.8c0,2.4-0.3,4.2-0.7,5.8c-0.4,1.6-1.3,2.5-2.1,3.4
			s-2.3,1.1-3.7,1.1c-2,0-3.5-0.7-4.7-2.1C160.4,50.9,159.6,48.1,159.6,44.4z M162.2,44.4c0,3.4,0.4,5.5,1.1,6.7
			c0.7,1.1,1.7,1.7,2.8,1.7s2.1-0.6,2.8-1.7c0.7-1.1,1.1-3.3,1.1-6.7s-0.4-5.5-1.1-6.7c-0.7-1.1-1.7-1.7-3-1.7
			c-1.1,0-2.1,0.4-2.7,1.4C162.6,38.8,162.2,41,162.2,44.4z"/>
		<path d="M193.6,54.3v-2.1c-1.1,1.7-2.7,2.5-4.7,2.5c-0.8,0-1.7-0.1-2.4-0.6c-0.7-0.4-1.3-0.7-1.7-1.3s-0.6-1.1-0.7-1.8
			c-0.1-0.4-0.1-1.3-0.1-2.3v-9.1h2.5v8.1c0,1.3,0,2.1,0.1,2.7c0.1,0.7,0.4,1.1,1,1.6c0.6,0.4,1.1,0.6,1.8,0.6
			c0.7,0,1.4-0.1,2.1-0.6c0.7-0.4,1.1-0.8,1.4-1.6c0.3-0.7,0.4-1.6,0.4-2.8v-7.9h2.5v14.7h-2.4V54.3z"/>
		<path d="M198.7,50l2.4-0.4c0.1,1,0.6,1.7,1.1,2.3c0.6,0.6,1.6,0.8,2.7,0.8c1.1,0,2-0.3,2.5-0.7s0.8-1,0.8-1.7c0-0.6-0.3-1-0.7-1.3
			c-0.3-0.3-1.1-0.6-2.5-0.8c-1.8-0.4-3.1-0.8-3.8-1.1c-0.7-0.3-1.3-0.8-1.6-1.4s-0.6-1.3-0.6-2c0-0.7,0.1-1.3,0.4-1.8
			c0.3-0.6,0.7-1,1.3-1.4c0.4-0.3,0.8-0.6,1.6-0.7c0.7-0.1,1.4-0.3,2.1-0.3c1.1,0,2.1,0.1,3,0.6c0.8,0.4,1.6,0.8,2,1.4
			c0.4,0.6,0.7,1.3,0.8,2.3l-2.4,0.3c-0.1-0.7-0.4-1.4-1-1.7s-1.3-0.6-2.3-0.6c-1.1,0-2,0.1-2.4,0.6s-0.7,0.8-0.7,1.3
			c0,0.3,0.1,0.6,0.3,0.8c0.1,0.3,0.6,0.4,1,0.7c0.3,0.1,1,0.3,2.3,0.6c1.7,0.4,3,0.8,3.7,1.1c0.7,0.3,1.3,0.7,1.7,1.3
			c0.4,0.6,0.6,1.3,0.6,2.1c0,0.8-0.3,1.6-0.7,2.4c-0.4,0.8-1.1,1.3-2.1,1.7s-2,0.6-3.1,0.6c-1.8,0-3.4-0.4-4.4-1.1
			C199.7,52.9,199,51.5,198.7,50z"/>
		<path d="M223.9,49.7l2.5,0.3c-0.4,1.6-1.1,2.7-2.3,3.5c-1.1,0.8-2.5,1.3-4.2,1.3c-2.1,0-3.8-0.7-5.1-2s-1.8-3.1-1.8-5.5
			c0-2.4,0.6-4.4,1.8-5.8c1.3-1.4,3-2,5-2c2,0,3.5,0.7,4.8,2c1.3,1.3,1.8,3.3,1.8,5.7c0,0.1,0,0.4,0,0.7h-10.9
			c0.1,1.6,0.6,2.8,1.4,3.7c0.8,0.8,1.8,1.3,3.1,1.3c0.8,0,1.7-0.3,2.4-0.7C223.2,51.7,223.6,50.7,223.9,49.7z M215.7,45.6h8.2
			c-0.1-1.3-0.4-2.1-1-2.8c-0.8-1-1.8-1.4-3.1-1.4c-1.1,0-2.1,0.4-2.8,1.1C216.2,43.2,215.8,44.3,215.7,45.6z"/>
		<path d="M228.6,50l2.4-0.4c0.1,1,0.6,1.7,1.1,2.3c0.6,0.6,1.6,0.8,2.7,0.8c1.1,0,2-0.3,2.5-0.7s0.8-1,0.8-1.7c0-0.6-0.3-1-0.7-1.3
			c-0.3-0.3-1.1-0.6-2.5-0.8c-1.8-0.4-3.1-0.8-3.8-1.1s-1.3-0.8-1.6-1.4s-0.6-1.3-0.6-2s0.1-1.3,0.4-1.8c0.3-0.6,0.7-1,1.3-1.4
			c0.4-0.3,0.8-0.6,1.6-0.7c0.7-0.1,1.4-0.3,2.1-0.3c1.1,0,2.1,0.1,3,0.6c0.8,0.4,1.6,0.8,2,1.4c0.4,0.6,0.7,1.3,0.8,2.3l-2.4,0.3
			c-0.1-0.7-0.4-1.4-1-1.7c-0.6-0.3-1.3-0.6-2.3-0.6c-1.1,0-2,0.1-2.4,0.6c-0.4,0.4-0.7,0.8-0.7,1.3c0,0.3,0.1,0.6,0.3,0.8
			c0.1,0.3,0.6,0.4,1,0.7c0.3,0.1,1,0.3,2.3,0.6c1.7,0.4,3,0.8,3.7,1.1s1.3,0.7,1.7,1.3c0.4,0.6,0.6,1.3,0.6,2.1s-0.3,1.6-0.7,2.4
			s-1.1,1.3-2.1,1.7c-1,0.4-2,0.6-3.1,0.6c-1.8,0-3.4-0.4-4.4-1.1C229.5,52.9,228.8,51.5,228.6,50z"/>
		<path d="M261.2,52.5c-1,0.8-1.8,1.3-2.7,1.7c-0.8,0.4-1.7,0.4-2.7,0.4c-1.6,0-2.8-0.4-3.7-1.1c-0.8-0.7-1.3-1.8-1.3-3
			c0-0.7,0.1-1.4,0.4-2s0.7-1.1,1.3-1.4c0.6-0.3,1.1-0.6,1.8-0.8c0.4-0.1,1.3-0.3,2.3-0.4c2-0.3,3.5-0.6,4.4-0.8c0-0.3,0-0.6,0-0.7
			c0-1-0.3-1.7-0.7-2.1c-0.6-0.6-1.6-0.8-2.8-0.8c-1.1,0-2,0.1-2.5,0.6c-0.6,0.4-1,1.1-1.3,2.1l-2.4-0.3c0.3-1,0.6-1.8,1.1-2.5
			c0.6-0.7,1.3-1.1,2.3-1.4c1-0.3,2.1-0.6,3.4-0.6c1.3,0,2.3,0.1,3.1,0.4c0.8,0.3,1.4,0.7,1.7,1.1s0.6,1,0.7,1.7
			c0.1,0.4,0.1,1.1,0.1,2.3V48c0,2.3,0,3.8,0.1,4.4c0.1,0.6,0.3,1.1,0.6,1.7H262C261.4,53.9,261.2,53.2,261.2,52.5z M261,47
			c-0.8,0.4-2.3,0.7-4.1,1c-1,0.1-1.7,0.3-2.1,0.6c-0.4,0.3-0.7,0.4-1,0.8c-0.3,0.4-0.3,0.7-0.3,1.1c0,0.7,0.3,1.3,0.7,1.7
			s1.3,0.7,2.3,0.7c1,0,1.8-0.1,2.5-0.6c0.7-0.4,1.3-1,1.7-1.7c0.3-0.6,0.4-1.4,0.4-2.5V47H261z"/>
		<path d="M267.3,54.3V39.6h2.3v2.1c1.1-1.6,2.7-2.4,4.7-2.4c0.8,0,1.7,0.1,2.4,0.4c0.7,0.3,1.3,0.7,1.7,1.3
			c0.4,0.6,0.6,1.1,0.7,1.8c0.1,0.4,0.1,1.3,0.1,2.4v9.1h-2.5v-8.9c0-1-0.1-1.8-0.3-2.3c-0.1-0.4-0.6-0.8-1-1.1
			c-0.4-0.3-1.1-0.4-1.7-0.4c-1,0-2,0.3-2.7,1c-0.7,0.7-1.1,2-1.1,3.8v8.1h-2.5V54.3z"/>
		<path d="M300.6,52.5c-1,0.8-1.8,1.3-2.7,1.7c-0.8,0.4-1.7,0.4-2.7,0.4c-1.6,0-2.8-0.4-3.7-1.1s-1.3-1.8-1.3-3c0-0.7,0.1-1.4,0.4-2
			c0.3-0.6,0.7-1.1,1.3-1.4c0.6-0.3,1.1-0.6,1.8-0.8c0.4-0.1,1.3-0.3,2.3-0.4c2-0.3,3.5-0.6,4.4-0.8c0-0.3,0-0.6,0-0.7
			c0-1-0.3-1.7-0.7-2.1c-0.6-0.6-1.6-0.8-2.8-0.8c-1.1,0-2,0.1-2.5,0.6c-0.6,0.4-1,1.1-1.3,2.1l-2.4-0.3c0.3-1,0.6-1.8,1.1-2.5
			s1.3-1.1,2.3-1.4c1-0.3,2.1-0.6,3.4-0.6c1.3,0,2.3,0.1,3.1,0.4c0.8,0.3,1.4,0.7,1.7,1.1s0.6,1,0.7,1.7c0.1,0.4,0.1,1.1,0.1,2.3V48
			c0,2.3,0,3.8,0.1,4.4c0.1,0.6,0.3,1.1,0.6,1.7h-2.5C300.7,53.9,300.6,53.2,300.6,52.5z M300.3,47c-0.8,0.4-2.3,0.7-4.1,1
			c-1,0.1-1.7,0.3-2.1,0.6c-0.4,0.3-0.7,0.4-1,0.8s-0.3,0.7-0.3,1.1c0,0.7,0.3,1.3,0.7,1.7s1.3,0.7,2.3,0.7s1.8-0.1,2.5-0.6
			c0.7-0.4,1.3-1,1.7-1.7c0.3-0.6,0.4-1.4,0.4-2.5V47H300.3z"/>
		<path d="M316.3,49l2.4,0.3c-0.3,1.7-1,3-2.1,4c-1.1,1-2.4,1.4-4.1,1.4c-2,0-3.7-0.7-4.8-2c-1.1-1.3-1.8-3.3-1.8-5.7
			c0-1.6,0.3-3,0.8-4.1c0.6-1.1,1.3-2.1,2.4-2.7c1.1-0.6,2.3-0.8,3.5-0.8c1.6,0,2.8,0.4,4,1.3c1.1,0.8,1.7,2,2,3.4l-2.4,0.4
			c-0.3-1-0.7-1.7-1.3-2.3c-0.6-0.6-1.3-0.7-2.1-0.7c-1.3,0-2.3,0.4-3.1,1.4c-0.8,1-1.1,2.3-1.1,4.2c0,2,0.4,3.4,1.1,4.2
			c0.7,0.8,1.7,1.3,3,1.3c1,0,1.8-0.3,2.4-0.8C315.6,51.2,316.1,50.2,316.3,49z"/>
		<path d="M330.4,49l2.4,0.3c-0.3,1.7-1,3-2.1,4c-1.1,1-2.4,1.4-4.1,1.4c-2,0-3.7-0.7-4.8-2c-1.1-1.3-1.8-3.3-1.8-5.7
			c0-1.6,0.3-3,0.8-4.1c0.6-1.1,1.3-2.1,2.4-2.7c1.1-0.6,2.3-0.8,3.5-0.8c1.6,0,2.8,0.4,4,1.3c1.1,0.8,1.7,2,2,3.4l-2.4,0.4
			c-0.3-1-0.7-1.7-1.3-2.3c-0.6-0.6-1.3-0.7-2.1-0.7c-1.3,0-2.3,0.4-3.1,1.4c-0.8,1-1.1,2.3-1.1,4.2c0,2,0.4,3.4,1.1,4.2
			c0.7,0.8,1.7,1.3,3,1.3c1,0,1.8-0.3,2.4-0.8S330.3,50.2,330.4,49z"/>
		<path d="M345,49.7l2.5,0.3c-0.4,1.6-1.1,2.7-2.3,3.5c-1.1,0.8-2.5,1.3-4.2,1.3c-2.1,0-3.8-0.7-5.1-2c-1.3-1.3-1.8-3.1-1.8-5.5
			c0-2.4,0.6-4.4,1.8-5.8c1.3-1.4,3-2,5-2c2,0,3.5,0.7,4.8,2c1.3,1.3,1.8,3.3,1.8,5.7c0,0.1,0,0.4,0,0.7h-10.9
			c0.1,1.6,0.6,2.8,1.4,3.7c0.8,0.8,1.8,1.3,3.1,1.3c0.8,0,1.7-0.3,2.4-0.7C344.3,51.7,344.7,50.7,345,49.7z M336.9,45.6h8.2
			c-0.1-1.3-0.4-2.1-1-2.8c-0.8-1-1.8-1.4-3.1-1.4c-1.1,0-2.1,0.4-2.8,1.1C337.5,43.2,336.9,44.3,336.9,45.6z"/>
		<path d="M349.7,50l2.4-0.4c0.1,1,0.6,1.7,1.1,2.3c0.6,0.6,1.6,0.8,2.7,0.8c1.1,0,2-0.3,2.5-0.7s0.8-1,0.8-1.7c0-0.6-0.3-1-0.7-1.3
			c-0.3-0.3-1.1-0.6-2.5-0.8c-1.8-0.4-3.1-0.8-3.8-1.1s-1.3-0.8-1.6-1.4s-0.6-1.3-0.6-2c0-0.7,0.1-1.3,0.4-1.8
			c0.3-0.6,0.7-1,1.3-1.4c0.4-0.3,0.8-0.6,1.6-0.7c0.7-0.1,1.4-0.3,2.1-0.3c1.1,0,2.1,0.1,3,0.6c0.8,0.4,1.6,0.8,2,1.4
			c0.4,0.6,0.7,1.3,0.8,2.3l-2.4,0.3c-0.1-0.7-0.4-1.4-1-1.7c-0.6-0.3-1.3-0.6-2.3-0.6c-1.1,0-2,0.1-2.4,0.6s-0.7,0.8-0.7,1.3
			c0,0.3,0.1,0.6,0.3,0.8c0.1,0.3,0.6,0.4,1,0.7c0.3,0.1,1,0.3,2.3,0.6c1.7,0.4,3,0.8,3.7,1.1c0.7,0.3,1.3,0.7,1.7,1.3
			c0.4,0.6,0.6,1.3,0.6,2.1c0,0.8-0.3,1.6-0.7,2.4c-0.4,0.8-1.1,1.3-2.1,1.7c-1,0.4-2,0.6-3.1,0.6c-1.8,0-3.4-0.4-4.4-1.1
			C350.7,52.9,350,51.5,349.7,50z"/>
		<path d="M363.8,50l2.4-0.4c0.1,1,0.6,1.7,1.1,2.3c0.6,0.6,1.6,0.8,2.7,0.8c1.1,0,2-0.3,2.5-0.7c0.6-0.4,0.8-1,0.8-1.7
			c0-0.6-0.3-1-0.7-1.3c-0.3-0.3-1.1-0.6-2.5-0.8c-1.8-0.4-3.1-0.8-3.8-1.1c-0.7-0.3-1.3-0.8-1.6-1.4c-0.3-0.6-0.6-1.3-0.6-2
			c0-0.7,0.1-1.3,0.4-1.8c0.3-0.6,0.7-1,1.3-1.4c0.4-0.3,0.8-0.6,1.6-0.7c0.7-0.1,1.4-0.3,2.1-0.3c1.1,0,2.1,0.1,3,0.6
			c0.8,0.4,1.6,0.8,2,1.4c0.4,0.6,0.7,1.3,0.8,2.3l-2.4,0.3c-0.1-0.7-0.4-1.4-1-1.7c-0.6-0.3-1.3-0.6-2.3-0.6c-1.1,0-2,0.1-2.4,0.6
			c-0.4,0.4-0.7,0.8-0.7,1.3c0,0.3,0.1,0.6,0.3,0.8c0.1,0.3,0.6,0.4,1,0.7c0.3,0.1,1,0.3,2.3,0.6c1.7,0.4,3,0.8,3.7,1.1
			c0.7,0.3,1.3,0.7,1.7,1.3c0.4,0.6,0.6,1.3,0.6,2.1c0,0.8-0.3,1.6-0.7,2.4c-0.4,0.8-1.1,1.3-2.1,1.7c-1,0.4-2,0.6-3.1,0.6
			c-1.8,0-3.4-0.4-4.4-1.1C364.8,52.9,364.1,51.5,363.8,50z"/>
		<path d="M392.3,52.1l0.4,2.3c-0.7,0.1-1.3,0.3-1.8,0.3c-0.8,0-1.6-0.1-2.1-0.4c-0.6-0.3-0.8-0.7-1-1.1c-0.1-0.4-0.3-1.4-0.3-3
			v-8.5h-1.8v-2h1.8V36l2.4-1.6v5.1h2.5v2h-2.5v8.6c0,0.7,0,1.1,0.1,1.4s0.3,0.4,0.4,0.4s0.4,0.1,0.8,0.1
			C391.6,52.2,391.8,52.2,392.3,52.1z"/>
		<path d="M393.8,47c0-2.7,0.7-4.7,2.3-6.1c1.3-1.1,2.8-1.7,4.7-1.7c2,0,3.7,0.7,5,2c1.3,1.3,2,3.1,2,5.5c0,1.8-0.3,3.4-0.8,4.4
			c-0.6,1-1.4,2-2.4,2.5c-1,0.6-2.3,0.8-3.5,0.8c-2.1,0-3.7-0.7-5-2S393.8,49.5,393.8,47z M396.4,47c0,1.8,0.4,3.3,1.3,4.2
			c0.8,1,1.8,1.4,3.1,1.4c1.3,0,2.3-0.4,3.1-1.4c0.8-1,1.3-2.4,1.3-4.2c0-1.8-0.4-3.3-1.3-4.1c-0.8-0.8-1.8-1.4-3.1-1.4
			c-1.3,0-2.3,0.4-3.1,1.4C396.8,43.9,396.4,45.1,396.4,47z"/>
		<path d="M410.5,54.3V34.1h2.5v11.6l5.9-5.9h3.3l-5.7,5.4l6.2,9.2h-3.1l-4.8-7.5l-1.7,1.7v5.8H410.5z"/>
		<path d="M434.7,49.7l2.5,0.3c-0.4,1.6-1.1,2.7-2.3,3.5c-1.1,0.8-2.5,1.3-4.2,1.3c-2.1,0-3.8-0.7-5.1-2s-1.8-3.1-1.8-5.5
			c0-2.4,0.6-4.4,1.8-5.8c1.3-1.4,3-2,5-2c2,0,3.5,0.7,4.8,2c1.3,1.3,1.8,3.3,1.8,5.7c0,0.1,0,0.4,0,0.7h-10.9
			c0.1,1.6,0.6,2.8,1.4,3.7c0.8,0.8,1.8,1.3,3.1,1.3c0.8,0,1.7-0.3,2.4-0.7C434,51.7,434.3,50.7,434.7,49.7z M426.5,45.6h8.2
			c-0.1-1.3-0.4-2.1-1-2.8c-0.8-1-1.8-1.4-3.1-1.4c-1.1,0-2.1,0.4-2.8,1.1S426.7,44.3,426.5,45.6z"/>
		<path d="M440.4,54.3V39.6h2.3v2.1c1.1-1.6,2.7-2.4,4.7-2.4c0.8,0,1.7,0.1,2.4,0.4c0.7,0.3,1.3,0.7,1.7,1.3
			c0.4,0.6,0.6,1.1,0.7,1.8c0.1,0.4,0.1,1.3,0.1,2.4v9.1h-2.5v-8.9c0-1-0.1-1.8-0.3-2.3c-0.1-0.4-0.6-0.8-1-1.1
			c-0.4-0.3-1.1-0.4-1.7-0.4c-1,0-2,0.3-2.7,1c-0.7,0.7-1.1,2-1.1,3.8v8.1h-2.5V54.3z"/>
		<path d="M464.6,54.3V41.6h-2.1v-2h2.3v-1.6c0-1,0.1-1.7,0.3-2.3c0.3-0.7,0.7-1.1,1.3-1.6c0.6-0.4,1.4-0.6,2.5-0.6
			c0.7,0,1.4,0.1,2.3,0.3l-0.4,2.1c-0.6-0.1-1-0.1-1.4-0.1c-0.7,0-1.3,0.1-1.6,0.4c-0.3,0.3-0.4,1-0.4,1.8v1.4h2.8v2h-2.8v12.7
			H464.6z"/>
		<path d="M471.8,54.3V39.6h2.3v2.3c0.6-1,1.1-1.7,1.6-2.1c0.4-0.4,1-0.6,1.6-0.6c0.8,0,1.7,0.3,2.5,0.8l-0.8,2.3
			c-0.6-0.4-1.3-0.6-1.8-0.6c-0.6,0-1,0.1-1.4,0.4c-0.4,0.3-0.7,0.8-1,1.4c-0.3,0.8-0.4,1.8-0.4,3v7.6h-2.4V54.3z"/>
		<path d="M480.4,47c0-2.7,0.7-4.7,2.3-6.1c1.3-1.1,2.8-1.7,4.7-1.7c2,0,3.7,0.7,5,2s2,3.1,2,5.5c0,1.8-0.3,3.4-0.8,4.4
			c-0.6,1-1.4,2-2.4,2.5s-2.3,0.8-3.5,0.8c-2.1,0-3.7-0.7-5-2C481.3,51.2,480.4,49.5,480.4,47z M483,47c0,1.8,0.4,3.3,1.3,4.2
			c0.8,1,1.8,1.4,3.1,1.4c1.3,0,2.3-0.4,3.1-1.4s1.3-2.4,1.3-4.2c0-1.8-0.4-3.3-1.3-4.1c-0.8-0.8-1.8-1.4-3.1-1.4
			c-1.3,0-2.3,0.4-3.1,1.4C483.4,43.9,483,45.1,483,47z"/>
		<path d="M497,54.3V39.6h2.3v2.1c0.4-0.7,1.1-1.3,1.8-1.7c0.7-0.4,1.7-0.7,2.5-0.7c1.1,0,2,0.3,2.7,0.7c0.7,0.4,1.1,1.1,1.4,1.8
			c1.1-1.7,2.7-2.5,4.5-2.5c1.4,0,2.5,0.4,3.4,1.3s1.1,2,1.1,3.7v10h-2.4v-9.2c0-1-0.1-1.7-0.3-2.1c-0.1-0.4-0.4-0.8-0.8-1
			c-0.4-0.1-1-0.4-1.6-0.4c-1,0-1.8,0.3-2.5,1s-1,1.8-1,3.3v8.5h-2.5v-9.5c0-1.1-0.1-2-0.6-2.5c-0.4-0.6-1.1-0.8-2-0.8
			c-0.7,0-1.4,0.1-2,0.6c-0.6,0.4-1,0.8-1.3,1.6c-0.3,0.7-0.4,1.7-0.4,3.1v7.6H497z"/>
		<path d="M538,52.5c-1,0.8-1.8,1.3-2.7,1.7c-0.8,0.4-1.7,0.4-2.7,0.4c-1.6,0-2.8-0.4-3.7-1.1c-0.8-0.7-1.3-1.8-1.3-3
			c0-0.7,0.1-1.4,0.4-2c0.3-0.6,0.7-1.1,1.3-1.4s1.1-0.6,1.8-0.8c0.4-0.1,1.3-0.3,2.3-0.4c2-0.3,3.5-0.6,4.4-0.8c0-0.3,0-0.6,0-0.7
			c0-1-0.3-1.7-0.7-2.1c-0.6-0.6-1.6-0.8-2.8-0.8c-1.1,0-2,0.1-2.5,0.6c-0.6,0.4-1,1.1-1.3,2.1l-2.4-0.3c0.3-1,0.6-1.8,1.1-2.5
			c0.6-0.7,1.3-1.1,2.3-1.4c1-0.3,2.1-0.6,3.4-0.6s2.3,0.1,3.1,0.4c0.8,0.3,1.4,0.7,1.7,1.1s0.6,1,0.7,1.7c0.1,0.4,0.1,1.1,0.1,2.3
			V48c0,2.3,0,3.8,0.1,4.4c0.1,0.6,0.3,1.1,0.6,1.7h-2.5C538.3,53.9,538.2,53.2,538,52.5z M537.9,47c-0.8,0.4-2.3,0.7-4.1,1
			c-1,0.1-1.7,0.3-2.1,0.6c-0.4,0.3-0.7,0.4-1,0.8s-0.3,0.7-0.3,1.1c0,0.7,0.3,1.3,0.7,1.7s1.3,0.7,2.3,0.7c1,0,1.8-0.1,2.5-0.6
			c0.7-0.4,1.3-1,1.7-1.7c0.3-0.6,0.4-1.4,0.4-2.5V47H537.9z"/>
		<path d="M544.2,54.3V39.6h2.3v2.1c1.1-1.6,2.7-2.4,4.7-2.4c0.8,0,1.7,0.1,2.4,0.4c0.7,0.3,1.3,0.7,1.7,1.3
			c0.4,0.6,0.6,1.1,0.7,1.8c0.1,0.4,0.1,1.3,0.1,2.4v9.1h-2.5v-8.9c0-1-0.1-1.8-0.3-2.3c-0.1-0.4-0.6-0.8-1-1.1
			c-0.4-0.3-1.1-0.4-1.7-0.4c-1,0-2,0.3-2.7,1c-0.7,0.7-1.1,2-1.1,3.8v8.1h-2.5V54.3z"/>
		<path d="M577.4,52.5c-1,0.8-1.8,1.3-2.7,1.7c-0.8,0.4-1.7,0.4-2.7,0.4c-1.6,0-2.8-0.4-3.7-1.1s-1.3-1.8-1.3-3c0-0.7,0.1-1.4,0.4-2
			s0.7-1.1,1.3-1.4s1.1-0.6,1.8-0.8c0.4-0.1,1.3-0.3,2.3-0.4c2-0.3,3.5-0.6,4.4-0.8c0-0.3,0-0.6,0-0.7c0-1-0.3-1.7-0.7-2.1
			c-0.6-0.6-1.6-0.8-2.8-0.8c-1.1,0-2,0.1-2.5,0.6c-0.6,0.4-1,1.1-1.3,2.1l-2.4-0.3c0.3-1,0.6-1.8,1.1-2.5c0.6-0.7,1.3-1.1,2.3-1.4
			s2.1-0.6,3.4-0.6s2.3,0.1,3.1,0.4c0.8,0.3,1.4,0.7,1.7,1.1s0.6,1,0.7,1.7c0.1,0.4,0.1,1.1,0.1,2.3V48c0,2.3,0,3.8,0.1,4.4
			c0.1,0.6,0.3,1.1,0.6,1.7h-2.5C577.6,53.9,577.5,53.2,577.4,52.5z M577.2,47c-0.8,0.4-2.3,0.7-4.1,1c-1,0.1-1.7,0.3-2.1,0.6
			c-0.4,0.3-0.7,0.4-1,0.8s-0.3,0.7-0.3,1.1c0,0.7,0.3,1.3,0.7,1.7c0.4,0.4,1.3,0.7,2.3,0.7s1.8-0.1,2.5-0.6c0.7-0.4,1.3-1,1.7-1.7
			c0.3-0.6,0.4-1.4,0.4-2.5V47H577.2z"/>
		<path d="M593.2,54.3v-2.1c-1.1,1.7-2.7,2.5-4.7,2.5c-0.8,0-1.7-0.1-2.4-0.6c-0.7-0.4-1.3-0.7-1.7-1.3c-0.4-0.6-0.6-1.1-0.7-1.8
			c-0.1-0.4-0.1-1.3-0.1-2.3v-9.1h2.5v8.1c0,1.3,0,2.1,0.1,2.7c0.1,0.7,0.4,1.1,1,1.6c0.6,0.4,1.1,0.6,1.8,0.6
			c0.7,0,1.4-0.1,2.1-0.6c0.7-0.4,1.1-0.8,1.4-1.6s0.4-1.6,0.4-2.8v-7.9h2.5v14.7h-2.4V54.3z"/>
		<path d="M604.7,52.1l0.4,2.3c-0.7,0.1-1.3,0.3-1.8,0.3c-0.8,0-1.6-0.1-2.1-0.4s-0.8-0.7-1-1.1c-0.1-0.4-0.3-1.4-0.3-3v-8.5H598v-2
			h1.8V36l2.4-1.6v5.1h2.5v2h-2.5v8.6c0,0.7,0,1.1,0.1,1.4c0.1,0.3,0.3,0.4,0.4,0.4c0.1,0,0.4,0.1,0.8,0.1
			C604,52.2,604.2,52.2,604.7,52.1z"/>
		<path d="M607.2,54.3V34.1h2.5v7.2c1.1-1.4,2.7-2,4.4-2c1.1,0,2,0.3,2.8,0.7c0.8,0.4,1.4,1,1.7,1.8c0.3,0.8,0.6,1.8,0.6,3.3v9.3
			h-2.5V45c0-1.3-0.3-2.1-0.8-2.7c-0.6-0.6-1.3-0.8-2.3-0.8c-0.7,0-1.4,0.1-2.1,0.6s-1.1,0.8-1.4,1.6s-0.4,1.6-0.4,2.7v8.1
			L607.2,54.3z"/>
		<path d="M633,49.7l2.5,0.3c-0.4,1.6-1.1,2.7-2.3,3.5c-1.1,0.8-2.5,1.3-4.2,1.3c-2.1,0-3.8-0.7-5.1-2s-1.8-3.1-1.8-5.5
			c0-2.4,0.6-4.4,1.8-5.8c1.3-1.4,3-2,5-2s3.5,0.7,4.8,2c1.3,1.3,1.8,3.3,1.8,5.7c0,0.1,0,0.4,0,0.7h-10.9c0.1,1.6,0.6,2.8,1.4,3.7
			c0.8,0.8,1.8,1.3,3.1,1.3c0.8,0,1.7-0.3,2.4-0.7C632.3,51.7,632.5,50.7,633,49.7z M624.8,45.6h8.2c-0.1-1.3-0.4-2.1-1-2.8
			c-0.8-1-1.8-1.4-3.1-1.4c-1.1,0-2.1,0.4-2.8,1.1C625.3,43.2,624.9,44.3,624.8,45.6z"/>
		<path d="M638.6,54.3V39.6h2.3v2.1c1.1-1.6,2.7-2.4,4.7-2.4c0.8,0,1.7,0.1,2.4,0.4c0.7,0.3,1.3,0.7,1.7,1.3
			c0.4,0.6,0.6,1.1,0.7,1.8c0.1,0.4,0.1,1.3,0.1,2.4v9.1H648v-8.9c0-1-0.1-1.8-0.3-2.3c-0.1-0.4-0.6-0.8-1-1.1
			c-0.4-0.3-1.1-0.4-1.7-0.4c-1,0-2,0.3-2.7,1c-0.7,0.7-1.1,2-1.1,3.8v8.1h-2.5V54.3z"/>
		<path d="M659.9,52.1l0.4,2.3c-0.7,0.1-1.3,0.3-1.8,0.3c-0.8,0-1.6-0.1-2.1-0.4s-0.8-0.7-1-1.1c-0.1-0.4-0.3-1.4-0.3-3v-8.5h-1.8
			v-2h1.8V36l2.4-1.6v5.1h2.5v2h-2.5v8.6c0,0.7,0,1.1,0.1,1.4c0.1,0.3,0.3,0.4,0.4,0.4c0.1,0,0.4,0.1,0.8,0.1
			C659,52.2,659.3,52.2,659.9,52.1z"/>
		<path d="M662.3,36.9v-2.8h2.5v2.8H662.3z M662.3,54.3V39.6h2.5v14.7H662.3z"/>
		<path d="M678.1,49l2.4,0.3c-0.3,1.7-1,3-2.1,4c-1.1,1-2.4,1.4-4.1,1.4c-2,0-3.7-0.7-4.8-2c-1.1-1.3-1.8-3.3-1.8-5.7
			c0-1.6,0.3-3,0.8-4.1c0.6-1.1,1.3-2.1,2.4-2.7c1.1-0.6,2.3-0.8,3.5-0.8c1.6,0,2.8,0.4,4,1.3c1.1,0.8,1.7,2,2,3.4l-2.4,0.4
			c-0.3-1-0.7-1.7-1.3-2.3c-0.6-0.6-1.3-0.7-2.1-0.7c-1.3,0-2.3,0.4-3.1,1.4c-0.8,1-1.1,2.3-1.1,4.2c0,2,0.4,3.4,1.1,4.2
			c0.7,0.8,1.7,1.3,3,1.3c1,0,1.8-0.3,2.4-0.8S678,50.2,678.1,49z"/>
		<path d="M692.3,52.5c-1,0.8-1.8,1.3-2.7,1.7s-1.7,0.4-2.7,0.4c-1.6,0-2.8-0.4-3.7-1.1c-0.8-0.7-1.3-1.8-1.3-3c0-0.7,0.1-1.4,0.4-2
			c0.3-0.6,0.7-1.1,1.3-1.4c0.6-0.3,1.1-0.6,1.8-0.8c0.4-0.1,1.3-0.3,2.3-0.4c2-0.3,3.5-0.6,4.4-0.8c0-0.3,0-0.6,0-0.7
			c0-1-0.3-1.7-0.7-2.1c-0.6-0.6-1.6-0.8-2.8-0.8c-1.1,0-2,0.1-2.5,0.6c-0.6,0.4-1,1.1-1.3,2.1l-2.4-0.3c0.3-1,0.6-1.8,1.1-2.5
			s1.3-1.1,2.3-1.4c1-0.3,2.1-0.6,3.4-0.6s2.3,0.1,3.1,0.4c0.8,0.3,1.4,0.7,1.7,1.1s0.6,1,0.7,1.7c0.1,0.4,0.1,1.1,0.1,2.3V48
			c0,2.3,0,3.8,0.1,4.4c0.1,0.6,0.3,1.1,0.6,1.7H693C692.5,53.9,692.3,53.2,692.3,52.5z M692,47c-0.8,0.4-2.3,0.7-4.1,1
			c-1,0.1-1.7,0.3-2.1,0.6s-0.7,0.4-1,0.8c-0.3,0.4-0.3,0.7-0.3,1.1c0,0.7,0.3,1.3,0.7,1.7s1.3,0.7,2.3,0.7c1,0,1.8-0.1,2.5-0.6
			c0.7-0.4,1.3-1,1.7-1.7c0.3-0.6,0.4-1.4,0.4-2.5V47H692z"/>
		<path d="M703.9,52.1l0.4,2.3c-0.7,0.1-1.3,0.3-1.8,0.3c-0.8,0-1.6-0.1-2.1-0.4c-0.6-0.3-0.8-0.7-1-1.1c-0.1-0.4-0.3-1.4-0.3-3
			v-8.5h-1.8v-2h1.8V36l2.4-1.6v5.1h2.5v2h-2.5v8.6c0,0.7,0,1.1,0.1,1.4c0.1,0.3,0.3,0.4,0.4,0.4s0.4,0.1,0.8,0.1
			C703,52.2,703.4,52.2,703.9,52.1z"/>
		<path d="M706.3,36.9v-2.8h2.5v2.8H706.3z M706.3,54.3V39.6h2.5v14.7H706.3z"/>
		<path d="M711.6,47c0-2.7,0.7-4.7,2.3-6.1c1.3-1.1,2.8-1.7,4.7-1.7c2,0,3.7,0.7,5,2s2,3.1,2,5.5c0,1.8-0.3,3.4-0.8,4.4
			c-0.6,1-1.4,2-2.4,2.5c-1,0.6-2.3,0.8-3.5,0.8c-2.1,0-3.7-0.7-5-2S711.6,49.5,711.6,47z M714.2,47c0,1.8,0.4,3.3,1.3,4.2
			s1.8,1.4,3.1,1.4c1.3,0,2.3-0.4,3.1-1.4s1.3-2.4,1.3-4.2c0-1.8-0.4-3.3-1.3-4.1c-0.8-0.8-1.8-1.4-3.1-1.4s-2.3,0.4-3.1,1.4
			S714.2,45.1,714.2,47z"/>
		<path d="M728.3,54.3V39.6h2.3v2.1c1.1-1.6,2.7-2.4,4.7-2.4c0.8,0,1.7,0.1,2.4,0.4c0.7,0.3,1.3,0.7,1.7,1.3
			c0.4,0.6,0.6,1.1,0.7,1.8c0.1,0.4,0.1,1.3,0.1,2.4v9.1h-2.5v-8.9c0-1-0.1-1.8-0.3-2.3c-0.1-0.4-0.6-0.8-1-1.1
			c-0.4-0.3-1.1-0.4-1.7-0.4c-1,0-2,0.3-2.7,1c-0.7,0.7-1.1,2-1.1,3.8v8.1h-2.5V54.3z"/>
		<path d="M750.8,50l2.4-0.4c0.1,1,0.6,1.7,1.1,2.3c0.6,0.6,1.6,0.8,2.7,0.8c1.1,0,2-0.3,2.5-0.7c0.6-0.4,0.8-1,0.8-1.7
			c0-0.6-0.3-1-0.7-1.3c-0.3-0.3-1.1-0.6-2.5-0.8c-1.8-0.4-3.1-0.8-3.8-1.1c-0.7-0.3-1.3-0.8-1.6-1.4c-0.3-0.6-0.6-1.3-0.6-2
			c0-0.7,0.1-1.3,0.4-1.8c0.3-0.6,0.7-1,1.3-1.4c0.4-0.3,0.8-0.6,1.6-0.7c0.7-0.1,1.4-0.3,2.1-0.3c1.1,0,2.1,0.1,3,0.6
			c0.8,0.4,1.6,0.8,2,1.4c0.4,0.6,0.7,1.3,0.8,2.3l-2.4,0.3c-0.1-0.7-0.4-1.4-1-1.7s-1.3-0.6-2.3-0.6c-1.1,0-2,0.1-2.4,0.6
			s-0.7,0.8-0.7,1.3c0,0.3,0.1,0.6,0.3,0.8c0.1,0.3,0.6,0.4,1,0.7c0.3,0.1,1,0.3,2.3,0.6c1.7,0.4,3,0.8,3.7,1.1
			c0.7,0.3,1.3,0.7,1.7,1.3s0.6,1.3,0.6,2.1c0,0.8-0.3,1.6-0.7,2.4c-0.4,0.8-1.1,1.3-2.1,1.7c-1,0.4-2,0.6-3.1,0.6
			c-1.8,0-3.4-0.4-4.4-1.1C751.8,52.9,751.1,51.5,750.8,50z"/>
		<path d="M776,49.7l2.5,0.3c-0.4,1.6-1.1,2.7-2.3,3.5c-1.1,0.8-2.5,1.3-4.2,1.3c-2.1,0-3.8-0.7-5.1-2s-1.8-3.1-1.8-5.5
			c0-2.4,0.6-4.4,1.8-5.8c1.3-1.4,3-2,5-2c2,0,3.5,0.7,4.8,2c1.3,1.3,1.8,3.3,1.8,5.7c0,0.1,0,0.4,0,0.7h-10.9
			c0.1,1.6,0.6,2.8,1.4,3.7c0.8,0.8,1.8,1.3,3.1,1.3c0.8,0,1.7-0.3,2.4-0.7C775.3,51.7,775.7,50.7,776,49.7z M768,45.6h8.2
			c-0.1-1.3-0.4-2.1-1-2.8c-0.8-1-1.8-1.4-3.1-1.4c-1.1,0-2.1,0.4-2.8,1.1C768.5,43.2,768,44.3,768,45.6z"/>
		<path d="M781.7,54.3V39.6h2.3v2.3c0.6-1,1.1-1.7,1.6-2.1s1-0.6,1.6-0.6c0.8,0,1.7,0.3,2.5,0.8l-0.8,2.3c-0.6-0.4-1.3-0.6-1.8-0.6
			c-0.6,0-1,0.1-1.4,0.4s-0.7,0.8-1,1.4c-0.3,0.8-0.4,1.8-0.4,3v7.6h-2.4V54.3z"/>
		<path d="M795.3,54.3l-5.5-14.7h2.7l3.1,8.8c0.3,1,0.7,2,1,3c0.3-0.7,0.6-1.7,1-2.8l3.3-8.9h2.5l-5.5,14.7H795.3z"/>
		<path d="M815.4,49.7l2.5,0.3c-0.4,1.6-1.1,2.7-2.3,3.5c-1.1,0.8-2.5,1.3-4.2,1.3c-2.1,0-3.8-0.7-5.1-2s-1.8-3.1-1.8-5.5
			c0-2.4,0.6-4.4,1.8-5.8c1.3-1.4,3-2,5-2s3.5,0.7,4.8,2c1.3,1.3,1.8,3.3,1.8,5.7c0,0.1,0,0.4,0,0.7H807c0.1,1.6,0.6,2.8,1.4,3.7
			c0.8,0.8,1.8,1.3,3.1,1.3c0.8,0,1.7-0.3,2.4-0.7C814.7,51.7,815.1,50.7,815.4,49.7z M807.3,45.6h8.2c-0.1-1.3-0.4-2.1-1-2.8
			c-0.8-1-1.8-1.4-3.1-1.4c-1.1,0-2.1,0.4-2.8,1.1C807.9,43.2,807.3,44.3,807.3,45.6z"/>
		<path d="M821,54.3V39.6h2.3v2.3c0.6-1,1.1-1.7,1.6-2.1c0.4-0.4,1-0.6,1.6-0.6c0.8,0,1.7,0.3,2.5,0.8l-0.8,2.3
			c-0.6-0.4-1.3-0.6-1.8-0.6c-0.6,0-1,0.1-1.4,0.4c-0.4,0.3-0.7,0.8-1,1.4c-0.3,0.8-0.4,1.8-0.4,3v7.6H821V54.3z"/>
	</g>
	<g>
		<path d="M164.5,273.7c0.1,0.1,0.1,0.6,0,0.7c-0.1,0.1-0.3,0.1-0.4,0.1c-0.1,0-0.3,0-0.4-0.1l-1.7-1.7l-1.7,1.7
			c-0.1,0.1-0.3,0.1-0.4,0.1c-0.1,0-0.3,0-0.4-0.1c-0.1-0.1-0.1-0.6,0-0.7l1.7-1.7l-1.8-1.8c-0.1-0.1-0.1-0.6,0-0.7
			c0.1-0.1,0.6-0.1,0.7,0l1.8,1.8l1.8-1.8c0.1-0.1,0.6-0.1,0.7,0c0.1,0.1,0.1,0.6,0,0.7l-1.8,1.8L164.5,273.7z M109.1,265.6v12.7
			h59.4v-12.7H109.1z"/>
		<rect x="142.1" y="292.1" width="9.6" height="3.1"/>
		<rect x="128.2" y="292.1" width="9.6" height="3.1"/>
		<path d="M160.1,284.8h-39.2c-0.3,0-0.6-0.3-0.6-0.6c0-0.3,0.3-0.6,0.6-0.6h39.2c0.3,0,0.6,0.3,0.6,0.6
			C160.6,284.6,160.4,284.8,160.1,284.8z"/>
		<path d="M150.6,289.1h-22.2c-0.3,0-0.6-0.3-0.6-0.6s0.3-0.6,0.6-0.6h22.4c0.3,0,0.6,0.3,0.6,0.6S150.9,289.1,150.6,289.1z"/>
		<path d="M95.4,317.5h87v-65.8h-87V317.5z M184.6,319.7H93.3v-70h91.3V319.7z"/>
		<path d="M95.4,249.6h87V242c0-0.4-0.7-0.8-1.4-0.8H96.8c-0.7,0-1.4,0.4-1.4,0.8V249.6z M184.6,251.7H93.3V242c0-1.8,1.8-3,3.5-3
			h84.1c1.7,0,3.5,1.1,3.5,3v9.8H184.6z"/>
		<path d="M102.5,245.2c0,2.1-3.3,2.1-3.3,0S102.5,243,102.5,245.2"/>
		<path d="M107.9,245.2c0,2.1-3.3,2.1-3.3,0S107.9,243,107.9,245.2"/>
		<path d="M113.1,245.2c0,2.1-3.3,2.1-3.3,0S113.1,243,113.1,245.2"/>
		<path d="M110.3,300.6h57.3v-22.4h-57.3V300.6z M168.6,301.7h-59.4v-24.3h59.4V301.7z"/>
	</g>
	<path d="M768.4,374.6c-2,0-3.5-1.6-3.5-3.5s1.6-3.5,3.5-3.5s3.5,1.6,3.5,3.5S770.4,374.6,768.4,374.6z M751,374.8h-48.4v-7.5H751
		V374.8z M774.6,358.9h-76.7c-2.1,0-3.8,1.7-3.8,3.8v16.8c0,2.1,1.7,3.8,3.8,3.8h76.7c2.1,0,3.8-1.7,3.8-3.8v-16.8
		C778.6,360.6,776.9,358.9,774.6,358.9z M768.4,431.4c-2,0-3.5-1.6-3.5-3.5c0-2,1.6-3.5,3.5-3.5s3.5,1.6,3.5,3.5
		C771.9,429.9,770.4,431.4,768.4,431.4z M751,431.7h-48.4v-7.5H751V431.7z M774.6,415.7h-76.7c-2.1,0-3.8,1.7-3.8,3.8v16.8
		c0,2.1,1.7,3.8,3.8,3.8h76.7c2.1,0,3.8-1.7,3.8-3.8v-16.8C778.6,417.4,776.9,415.7,774.6,415.7z M768.4,403.3c-2,0-3.5-1.6-3.5-3.5
		s1.6-3.5,3.5-3.5s3.5,1.6,3.5,3.5S770.4,403.3,768.4,403.3z M751,403.6h-48.4v-7.5H751V403.6z M774.6,387.6h-76.7
		c-2.1,0-3.8,1.7-3.8,3.8v16.8c0,2.1,1.7,3.8,3.8,3.8h76.7c2.1,0,3.8-1.7,3.8-3.8v-16.8C778.6,389.3,776.9,387.6,774.6,387.6z"/>
	<g>
		<g>
			<line fill="none" stroke="#999999" stroke-miterlimit="10" x1="392.1" y1="146.9" x2="389.4" y2="147.9"/>
			
				<line fill="none" stroke="#999999" stroke-miterlimit="10" stroke-dasharray="4.0392,4.0392" x1="384.1" y1="149.9" x2="193.5" y2="219.3"/>
			<line fill="none" stroke="#999999" stroke-miterlimit="10" x1="190.8" y1="220.3" x2="188.1" y2="221.3"/>
			<g>
				<path fill="#999999" d="M180,224.3c3.3-2.8,7.1-6.9,9.1-10.5v7.2l4.5,5.5C189.9,225,184.3,224.3,180,224.3z"/>
			</g>
		</g>
	</g>
	<g>
		<g>
			<line fill="none" stroke="#999999" stroke-miterlimit="10" x1="481.7" y1="163.9" x2="483.8" y2="165.8"/>
			
				<line fill="none" stroke="#999999" stroke-miterlimit="10" stroke-dasharray="3.9204,3.9204" x1="487.9" y1="169.5" x2="676" y2="337.9"/>
			<line fill="none" stroke="#999999" stroke-miterlimit="10" x1="678" y1="339.8" x2="680.1" y2="341.7"/>
			<g>
				<path fill="#999999" d="M686.5,347.4c-4-1.6-9.3-3-13.4-3.1l6.4-3.4l2.7-6.7C682.5,338.3,684.5,343.6,686.5,347.4z"/>
			</g>
		</g>
	</g>
	<g>
		<path d="M61,518.9l6.2-16.3h2.3l6.7,16.3h-2.4l-1.8-5h-6.8l-1.8,5H61z M65.7,512.2h5.5l-1.7-4.5c-0.6-1.4-0.8-2.5-1.1-3.4
			c-0.1,1-0.6,2.1-0.8,3.1L65.7,512.2z"/>
		<path d="M85.2,518.9v-1.7c-0.8,1.3-2.1,2-3.7,2c-0.7,0-1.3-0.1-2-0.4c-0.6-0.3-1-0.6-1.3-1c-0.3-0.4-0.6-0.8-0.6-1.4
			c-0.1-0.4-0.1-1-0.1-1.8v-7.2h2v6.5c0,1,0,1.7,0.1,2.1c0.1,0.6,0.4,1,0.8,1.3s0.8,0.4,1.6,0.4c0.7,0,1.1-0.1,1.7-0.4
			c0.6-0.3,0.8-0.7,1.1-1.3c0.3-0.6,0.3-1.3,0.3-2.3v-6.2h2v11.7h-2V518.9z"/>
		<path d="M94.6,517.1l0.3,1.7c-0.6,0.1-1.1,0.1-1.6,0.1c-0.7,0-1.3-0.1-1.7-0.3c-0.4-0.1-0.7-0.6-0.8-0.8c-0.1-0.4-0.3-1.1-0.3-2.4
			v-6.8H89V507h1.4v-3l2-1.1v4.1h2.1v1.6h-2v6.9c0,0.6,0,1,0.1,1.1c0,0.1,0.1,0.3,0.3,0.4c0.1,0.1,0.4,0.1,0.7,0.1
			C93.9,517.2,94.1,517.2,94.6,517.1z"/>
		<path d="M96.5,518.9v-16.3h2v5.8c1-1.1,2.1-1.6,3.5-1.6c0.8,0,1.6,0.1,2.3,0.6c0.7,0.4,1.1,0.8,1.4,1.4s0.4,1.4,0.4,2.7v7.5h-2
			v-7.5c0-1-0.3-1.7-0.7-2.1c-0.4-0.4-1-0.7-1.8-0.7c-0.6,0-1.1,0.1-1.7,0.4c-0.6,0.3-0.8,0.7-1.1,1.3c-0.3,0.6-0.3,1.3-0.3,2.1v6.4
			L96.5,518.9L96.5,518.9z"/>
		<path d="M117.1,515.1l2.1,0.3c-0.3,1.1-1,2.1-1.8,2.8c-0.8,0.7-2,1-3.4,1c-1.7,0-3.1-0.6-4.1-1.6c-1-1-1.6-2.5-1.6-4.4
			c0-2,0.6-3.5,1.6-4.5c1-1,2.4-1.7,4-1.7c1.6,0,2.8,0.6,3.8,1.6c1,1,1.6,2.5,1.6,4.5c0,0.1,0,0.3,0,0.6h-8.8c0.1,1.3,0.4,2.3,1.1,3
			c0.7,0.7,1.4,1,2.4,1c0.7,0,1.4-0.1,1.8-0.6C116.3,516.5,116.8,515.9,117.1,515.1z M110.5,511.8h6.5c-0.1-1-0.3-1.7-0.7-2.3
			c-0.6-0.7-1.4-1.1-2.4-1.1c-0.8,0-1.7,0.3-2.3,0.8C111,510,110.7,510.8,110.5,511.8z"/>
		<path d="M121.6,518.9v-11.7h1.8v1.7c0.8-1.3,2.1-2,3.7-2c0.7,0,1.4,0.1,2,0.4c0.6,0.3,1,0.6,1.3,1c0.3,0.4,0.6,0.8,0.6,1.4
			c0.1,0.4,0.1,1,0.1,2v7.2h-2v-7.1c0-0.8-0.1-1.4-0.3-1.8c-0.1-0.4-0.4-0.7-0.8-1c-0.4-0.3-0.8-0.4-1.4-0.4c-0.8,0-1.6,0.3-2.3,0.8
			c-0.6,0.6-1,1.6-1,3.1v6.4L121.6,518.9L121.6,518.9z"/>
		<path d="M138.6,517.1l0.3,1.7c-0.6,0.1-1.1,0.1-1.6,0.1c-0.7,0-1.3-0.1-1.7-0.3c-0.4-0.1-0.7-0.6-0.8-0.8
			c-0.1-0.4-0.3-1.1-0.3-2.4v-6.8H133V507h1.4v-3l2-1.1v4.1h2v1.6h-2v6.9c0,0.6,0,1,0.1,1.1c0,0.1,0.1,0.3,0.3,0.4
			c0.1,0.1,0.4,0.1,0.7,0.1C138,517.2,138.3,517.2,138.6,517.1z"/>
		<path d="M140.5,504.9v-2.3h2v2.3H140.5z M140.5,518.9v-11.7h2v11.7H140.5z"/>
		<path d="M153.3,514.5l2,0.3c-0.3,1.4-0.7,2.4-1.7,3.1c-0.8,0.7-2,1.1-3.3,1.1c-1.6,0-2.8-0.6-3.8-1.6c-1-1-1.4-2.5-1.4-4.5
			c0-1.3,0.1-2.4,0.6-3.4c0.4-1,1-1.7,2-2.1c0.8-0.4,1.8-0.7,2.8-0.7c1.3,0,2.3,0.3,3.1,1c0.8,0.7,1.3,1.6,1.6,2.7l-2,0.3
			c-0.1-0.8-0.6-1.4-1-1.8c-0.4-0.4-1-0.6-1.7-0.6c-1,0-1.8,0.4-2.4,1.1s-1,1.8-1,3.4s0.3,2.7,0.8,3.4c0.6,0.7,1.4,1.1,2.4,1.1
			c0.8,0,1.4-0.3,2-0.7C152.7,516.3,153.1,515.5,153.3,514.5z"/>
		<path d="M164.6,517.5c-0.7,0.6-1.4,1.1-2.1,1.3c-0.7,0.3-1.4,0.4-2.3,0.4c-1.3,0-2.3-0.3-3-1c-0.7-0.6-1-1.4-1-2.4
			c0-0.6,0.1-1.1,0.4-1.6s0.6-0.8,1-1.1c0.4-0.3,0.8-0.6,1.4-0.7c0.4-0.1,1-0.1,1.7-0.3c1.6-0.1,2.8-0.4,3.5-0.7c0-0.3,0-0.4,0-0.6
			c0-0.8-0.1-1.4-0.6-1.7c-0.6-0.4-1.3-0.7-2.3-0.7c-1,0-1.6,0.1-2.1,0.4c-0.4,0.3-0.7,0.8-1,1.7l-2-0.3c0.1-0.8,0.4-1.6,0.8-2
			c0.4-0.6,1-0.8,1.7-1.1c0.7-0.3,1.7-0.4,2.7-0.4c1,0,1.8,0.1,2.4,0.3c0.6,0.3,1.1,0.6,1.4,0.8c0.3,0.4,0.6,0.8,0.6,1.4
			c0,0.3,0.1,1,0.1,1.8v2.7c0,1.8,0,3,0.1,3.5c0.1,0.4,0.3,1,0.6,1.4h-2.1C164.7,518.5,164.6,517.9,164.6,517.5z M164.3,512.9
			c-0.7,0.3-1.8,0.6-3.3,0.7c-0.8,0.1-1.4,0.3-1.7,0.4c-0.3,0.1-0.6,0.4-0.8,0.7c-0.1,0.3-0.3,0.6-0.3,1c0,0.6,0.1,1,0.6,1.3
			c0.4,0.3,1,0.6,1.7,0.6c0.7,0,1.4-0.1,2-0.6c0.6-0.4,1-0.8,1.3-1.4c0.3-0.4,0.3-1.1,0.3-2v-0.7H164.3z"/>
		<path d="M173.8,517.1l0.3,1.7c-0.6,0.1-1.1,0.1-1.6,0.1c-0.7,0-1.3-0.1-1.7-0.3c-0.4-0.1-0.7-0.6-0.8-0.8
			c-0.1-0.4-0.3-1.1-0.3-2.4v-6.8h-1.4V507h1.4v-3l2-1.1v4.1h2v1.6h-2v6.9c0,0.6,0,1,0.1,1.1c0,0.1,0.1,0.3,0.3,0.4
			c0.1,0.1,0.4,0.1,0.7,0.1C173.2,517.2,173.5,517.2,173.8,517.1z"/>
		<path d="M175.8,504.9v-2.3h2v2.3H175.8z M175.8,518.9v-11.7h2v11.7H175.8z"/>
		<path d="M180,512.9c0-2.1,0.6-3.8,1.8-4.8c1-0.8,2.3-1.3,3.7-1.3c1.6,0,3,0.6,4,1.6c1,1,1.6,2.5,1.6,4.4c0,1.6-0.3,2.7-0.7,3.5
			c-0.4,0.8-1.1,1.6-2,2c-0.8,0.4-1.8,0.7-2.8,0.7c-1.7,0-3-0.6-4-1.6C180.6,516.5,180,514.9,180,512.9z M182.1,512.9
			c0,1.6,0.3,2.7,1,3.4c0.7,0.7,1.4,1.1,2.5,1.1c1,0,1.8-0.4,2.4-1.1c0.7-0.7,1-1.8,1-3.4c0-1.4-0.3-2.5-1-3.3
			c-0.7-0.7-1.4-1.1-2.4-1.1s-1.8,0.4-2.5,1.1C182.4,510.4,182.1,511.5,182.1,512.9z"/>
		<path d="M193.3,518.9v-11.7h1.8v1.7c0.8-1.3,2.1-2,3.7-2c0.7,0,1.4,0.1,2,0.4c0.6,0.3,1,0.6,1.3,1c0.3,0.4,0.6,0.8,0.6,1.4
			c0.1,0.4,0.1,1,0.1,2v7.2h-2v-7.1c0-0.8-0.1-1.4-0.3-1.8c-0.1-0.4-0.4-0.7-0.8-1c-0.4-0.3-0.8-0.4-1.4-0.4c-0.8,0-1.6,0.3-2.3,0.8
			c-0.6,0.6-1,1.6-1,3.1v6.4L193.3,518.9L193.3,518.9z"/>
		<path d="M105.2,542.5l2-0.3c0.1,0.8,0.4,1.4,1,1.8c0.6,0.4,1.3,0.6,2.1,0.6s1.6-0.1,2-0.6c0.4-0.4,0.7-0.8,0.7-1.3
			c0-0.4-0.1-0.8-0.6-1.1c-0.3-0.1-1-0.4-2-0.7c-1.4-0.4-2.4-0.7-3-1s-1-0.7-1.3-1.1c-0.3-0.4-0.4-1-0.4-1.6c0-0.6,0.1-1,0.4-1.4
			c0.3-0.4,0.6-0.8,1-1.1c0.3-0.3,0.7-0.4,1.3-0.6c0.6-0.1,1.1-0.3,1.7-0.3c1,0,1.7,0.1,2.4,0.4c0.7,0.3,1.3,0.6,1.6,1.1
			c0.3,0.6,0.6,1,0.7,1.8l-2,0.3c-0.1-0.6-0.3-1.1-0.7-1.4c-0.4-0.3-1-0.6-1.8-0.6c-0.8,0-1.6,0.1-2,0.4c-0.4,0.3-0.6,0.7-0.6,1.1
			c0,0.3,0.1,0.4,0.3,0.7s0.4,0.4,0.7,0.6c0.1,0.1,0.8,0.3,1.7,0.6c1.4,0.4,2.4,0.7,3,1s1,0.6,1.3,1c0.3,0.4,0.4,1,0.4,1.7
			s-0.1,1.3-0.6,1.8c-0.4,0.6-1,1-1.7,1.4c-0.7,0.4-1.6,0.4-2.5,0.4c-1.6,0-2.7-0.3-3.5-1C105.9,544.6,105.3,543.8,105.2,542.5z"/>
		<path d="M125.3,542.2l2.1,0.3c-0.3,1.1-1,2.1-1.8,2.8c-0.8,0.7-2,1-3.4,1c-1.7,0-3.1-0.6-4.1-1.6c-1-1-1.6-2.5-1.6-4.4
			c0-2,0.6-3.5,1.6-4.5c1-1,2.4-1.7,4-1.7s2.8,0.6,3.8,1.6c1,1,1.6,2.5,1.6,4.5c0,0.1,0,0.3,0,0.6h-8.8c0.1,1.3,0.4,2.3,1.1,3
			c0.7,0.7,1.4,1,2.4,1c0.7,0,1.4-0.1,1.8-0.6C124.6,543.7,125,543.1,125.3,542.2z M118.8,539h6.5c-0.1-1-0.3-1.7-0.7-2.3
			c-0.6-0.7-1.4-1.1-2.4-1.1c-0.8,0-1.7,0.3-2.3,0.8C119.2,537.1,118.8,538,118.8,539z"/>
		<path d="M129.8,546.1v-11.7h1.8v1.8c0.4-0.8,0.8-1.4,1.3-1.7c0.4-0.3,0.8-0.4,1.3-0.4c0.7,0,1.4,0.3,2,0.7l-0.7,1.8
			c-0.4-0.3-1-0.4-1.4-0.4c-0.4,0-0.8,0.1-1.1,0.4c-0.3,0.3-0.6,0.6-0.7,1.1c-0.3,0.7-0.3,1.4-0.3,2.3v6.1L129.8,546.1L129.8,546.1z
			"/>
		<path d="M140.7,546.1l-4.5-11.7h2.1l2.5,7.1c0.3,0.7,0.6,1.6,0.7,2.4c0.1-0.6,0.4-1.4,0.7-2.3l2.5-7.2h2.1l-4.4,11.7H140.7z"/>
		<path d="M156.7,542.2l2.1,0.3c-0.3,1.1-1,2.1-1.8,2.8c-0.8,0.7-2,1-3.4,1c-1.7,0-3.1-0.6-4.1-1.6c-1-1-1.6-2.5-1.6-4.4
			c0-2,0.6-3.5,1.6-4.5c1-1,2.4-1.7,4-1.7s2.8,0.6,3.8,1.6c1,1,1.6,2.5,1.6,4.5c0,0.1,0,0.3,0,0.6H150c0.1,1.3,0.4,2.3,1.1,3
			c0.7,0.7,1.4,1,2.4,1c0.7,0,1.4-0.1,1.8-0.6C156,543.7,156.4,543.1,156.7,542.2z M150.2,539h6.5c-0.1-1-0.3-1.7-0.7-2.3
			c-0.6-0.7-1.4-1.1-2.4-1.1c-0.8,0-1.7,0.3-2.3,0.8C150.6,537.1,150.3,538,150.2,539z"/>
		<path d="M161.2,546.1v-11.7h1.8v1.8c0.4-0.8,0.8-1.4,1.3-1.7c0.4-0.3,0.8-0.4,1.3-0.4c0.7,0,1.4,0.3,2,0.7l-0.7,1.8
			c-0.4-0.3-1-0.4-1.4-0.4c-0.4,0-0.8,0.1-1.1,0.4c-0.3,0.3-0.6,0.6-0.7,1.1c-0.3,0.7-0.3,1.4-0.3,2.3v6.1L161.2,546.1L161.2,546.1z
			"/>
	</g>
	<path fill="#539153" d="M307.2,241.1h4.1c0.6,0,1,0.4,1,1c0,0.6-0.4,1-1,1h-4.1c-0.6,0-1-0.4-1-1
		C306.2,241.5,306.7,241.1,307.2,241.1z M296.3,237c-1.1,0-2,0.8-2,2c0,1.1,0.8,2,2,2s2-0.8,2-2C298.3,237.9,297.5,237,296.3,237z
		 M296.3,235.2c1.8,0,3.3,1.3,3.7,2.8h11.2c0.6,0,1,0.4,1,1s-0.4,1-1,1H300c-0.4,1.7-2,2.8-3.7,2.8c-2.1,0-3.8-1.7-3.8-3.8
		C292.5,236.9,294.2,235.2,296.3,235.2z M302.6,219.3L302.6,219.3c-0.3,0-0.6,0.1-0.7,0.4c-1.7,2.4-7.1,4.5-13.2,4.5l0,0
		c0,0,0,0-0.1,0c-0.4,0-0.8,0.3-0.8,0.7c0,0-1,4.1-1.4,9.2s-0.6,10.9,1.4,14.7c1.6,2.8,5.1,5.1,8.3,6.9c3,1.6,5.4,2.5,5.8,2.7
		c0.1,0.1,0.4,0.1,0.6,0.1c0.3,0,0.4,0,0.6-0.1l0,0c0.4-0.1,2.8-1.1,5.8-2.7c3.3-1.7,6.8-4.1,8.3-6.9c2-3.8,2-9.8,1.4-14.7
		c-0.4-5.1-1.4-9.2-1.4-9.2c-0.1-0.4-0.4-0.7-1-0.7c0,0,0,0-0.1,0c-5.9,0-11-2-12.9-4.4C303.3,219.6,302.8,219.3,302.6,219.3
		L302.6,219.3z"/>
	<path fill="#539153" d="M604.2,230.9h4.1c0.6,0,1,0.4,1,1c0,0.6-0.4,1-1,1h-4.1c-0.6,0-1-0.4-1-1
		C603.3,231.4,603.7,230.9,604.2,230.9z M593.3,227c-1.1,0-2,0.8-2,2c0,1.1,0.8,2,2,2c1.1,0,2-0.8,2-2
		C595.3,227.8,594.5,227,593.3,227z M593.3,225.1c1.8,0,3.3,1.3,3.7,2.8h11.2c0.6,0,1,0.4,1,1c0,0.6-0.4,1-1,1H597
		c-0.4,1.7-2,2.8-3.7,2.8c-2.1,0-3.8-1.7-3.8-3.8S591.2,225.1,593.3,225.1z M599.6,209.3L599.6,209.3c-0.3,0-0.6,0.1-0.7,0.4
		c-1.7,2.4-7.1,4.5-13.2,4.5l0,0c0,0,0,0-0.1,0c-0.4,0-0.8,0.3-0.8,0.7c0,0-1,4.1-1.4,9.2c-0.4,5.1-0.6,10.9,1.4,14.7
		c1.6,2.8,5.1,5.1,8.3,6.9c3,1.6,5.4,2.5,5.8,2.7c0.1,0.1,0.4,0.1,0.6,0.1c0.3,0,0.4,0,0.6-0.1l0,0c0.4-0.1,2.8-1.1,5.8-2.7
		c3.3-1.7,6.8-4.1,8.3-6.9c2-3.8,2-9.8,1.4-14.7c-0.4-5.1-1.4-9.2-1.4-9.2c-0.1-0.4-0.4-0.7-1-0.7c0,0,0,0-0.1,0
		c-5.9,0-11-2-12.9-4.4C600.3,209.4,600,209.3,599.6,209.3L599.6,209.3z"/>
	<line fill="none" x1="217.7" y1="394.7" x2="228.3" y2="394.7"/>
	<g>
		<g>
			
				<line fill="none" stroke="#999999" stroke-miterlimit="10" stroke-dasharray="4,4" x1="120.7" y1="350.6" x2="120.7" y2="391.7"/>
			<g>
				<path fill="#999999" d="M120.7,400.2c-1.6-4-4.1-9.1-6.8-12l6.8,2.4l6.8-2.4C124.8,391.1,122.3,396.2,120.7,400.2z"/>
			</g>
		</g>
	</g>
	<g>
		<g>
			
				<line fill="none" stroke="#999999" stroke-miterlimit="10" stroke-dasharray="4,4" x1="146.2" y1="359.1" x2="146.2" y2="400.2"/>
			<g>
				<path fill="#999999" d="M146.2,350.6c-1.6,4-4.1,9.1-6.8,12l6.8-2.4l6.8,2.4C150.3,359.7,147.8,354.6,146.2,350.6z"/>
			</g>
		</g>
	</g>
	<g>
		<g>
			<line fill="none" stroke="#999999" stroke-miterlimit="10" x1="197" y1="248.3" x2="199.7" y2="247.4"/>
			
				<line fill="none" stroke="#999999" stroke-miterlimit="10" stroke-dasharray="4.0392,4.0392" x1="205.1" y1="245.4" x2="395.7" y2="175.9"/>
			<line fill="none" stroke="#999999" stroke-miterlimit="10" x1="398.4" y1="174.9" x2="401" y2="173.9"/>
			<g>
				<path fill="#999999" d="M409.1,170.9c-3.3,2.8-7.1,6.9-9.1,10.5v-7.2l-4.5-5.5C399.2,170.4,404.7,170.9,409.1,170.9z"/>
			</g>
		</g>
	</g>
	<path fill="#707270" d="M163.5,425.8c-2,0-3.5-1.6-3.5-3.5s1.6-3.5,3.5-3.5s3.5,1.6,3.5,3.5S165.4,425.8,163.5,425.8z M146.1,426.1
		H97.8v-7.5h48.4v7.5H146.1z M169.7,410.1H93c-2.1,0-3.8,1.7-3.8,3.8v16.8c0,2.1,1.7,3.8,3.8,3.8h76.7c2.1,0,3.8-1.7,3.8-3.8v-16.8
		C173.7,411.8,171.8,410.1,169.7,410.1z M163.5,482.8c-2,0-3.5-1.6-3.5-3.5s1.6-3.5,3.5-3.5s3.5,1.6,3.5,3.5
		S165.4,482.8,163.5,482.8z M146.1,482.9H97.8v-7.5h48.4v7.5H146.1z M169.7,467H93c-2.1,0-3.8,1.7-3.8,3.8v16.8
		c0,2.1,1.7,3.8,3.8,3.8h76.7c2.1,0,3.8-1.7,3.8-3.8v-16.7C173.7,468.7,171.8,467,169.7,467z M163.5,454.6c-2,0-3.5-1.6-3.5-3.5
		c0-2,1.6-3.5,3.5-3.5s3.5,1.6,3.5,3.5C167,453.1,165.4,454.6,163.5,454.6z M146.1,454.8H97.8v-7.5h48.4v7.5H146.1z M169.7,438.8H93
		c-2.1,0-3.8,1.7-3.8,3.8v16.8c0,2.1,1.7,3.8,3.8,3.8h76.7c2.1,0,3.8-1.7,3.8-3.8v-16.8C173.7,440.5,171.8,438.8,169.7,438.8z"/>
	<g>
		<path d="M693.2,473.6v-16.3h7.2c1.4,0,2.5,0.1,3.3,0.4c0.7,0.3,1.4,0.8,1.8,1.6c0.4,0.7,0.7,1.6,0.7,2.4c0,1.1-0.4,2.1-1.1,3
			c-0.7,0.8-1.8,1.3-3.4,1.6c0.6,0.3,1,0.6,1.3,0.8c0.6,0.6,1.3,1.3,1.8,2.1l2.8,4.4H705l-2.1-3.4c-0.6-1-1.1-1.7-1.6-2.3
			c-0.4-0.6-0.7-0.8-1.1-1.1c-0.3-0.1-0.7-0.3-1-0.4c-0.3,0-0.7-0.1-1.1-0.1h-2.5v7.2h-2.3V473.6z M695.4,464.6h4.7
			c1,0,1.7-0.1,2.3-0.3s1-0.6,1.3-1c0.3-0.4,0.4-1,0.4-1.4c0-0.7-0.3-1.4-0.8-1.8c-0.6-0.4-1.4-0.7-2.7-0.7h-5.1L695.4,464.6
			L695.4,464.6z"/>
		<path d="M717.3,469.8l2.1,0.3c-0.3,1.1-1,2.1-1.8,2.8c-0.8,0.7-2,1-3.4,1c-1.7,0-3.1-0.6-4.1-1.6c-1-1-1.6-2.5-1.6-4.4
			c0-2,0.6-3.5,1.6-4.5c1-1.1,2.4-1.7,4-1.7c1.6,0,2.8,0.6,3.8,1.6c1,1.1,1.6,2.5,1.6,4.5c0,0.1,0,0.3,0,0.6h-8.8
			c0.1,1.3,0.4,2.3,1.1,3c0.7,0.7,1.4,1,2.4,1c0.7,0,1.4-0.1,1.8-0.6C716.6,471.2,717,470.6,717.3,469.8z M710.8,466.5h6.5
			c-0.1-1-0.3-1.7-0.7-2.3c-0.6-0.7-1.4-1.1-2.4-1.1c-0.8,0-1.7,0.3-2.3,0.8C711.2,464.7,710.9,465.5,710.8,466.5z"/>
		<path d="M721.1,470.1l2-0.3c0.1,0.8,0.4,1.4,1,1.8c0.6,0.4,1.3,0.6,2.1,0.6c0.8,0,1.6-0.1,2-0.6c0.4-0.4,0.7-0.8,0.7-1.3
			c0-0.4-0.1-0.8-0.6-1.1c-0.3-0.1-1-0.4-2-0.7c-1.4-0.4-2.4-0.7-3-1s-1-0.7-1.3-1.1c-0.3-0.4-0.4-1-0.4-1.6c0-0.6,0.1-1,0.4-1.4
			c0.3-0.4,0.6-0.8,1-1.1c0.3-0.3,0.7-0.4,1.3-0.6c0.6-0.1,1.1-0.3,1.7-0.3c1,0,1.7,0.1,2.4,0.4c0.7,0.3,1.3,0.6,1.6,1.1
			c0.3,0.6,0.6,1,0.7,1.8l-2,0.3c-0.1-0.6-0.3-1.1-0.7-1.4s-1-0.6-1.8-0.6c-0.8,0-1.6,0.1-2,0.4c-0.4,0.3-0.6,0.7-0.6,1.1
			c0,0.3,0.1,0.4,0.3,0.7c0.1,0.3,0.4,0.4,0.7,0.6c0.1,0.1,0.8,0.3,1.7,0.6c1.4,0.4,2.4,0.7,3,1c0.6,0.3,1,0.6,1.3,1
			c0.3,0.4,0.4,1,0.4,1.7c0,0.7-0.1,1.3-0.6,1.8s-1,1-1.7,1.4c-0.7,0.4-1.6,0.4-2.5,0.4c-1.6,0-2.7-0.3-3.5-1
			C721.8,472.2,721.4,471.3,721.1,470.1z"/>
		<path d="M732.4,467.7c0-2.1,0.6-3.8,1.8-4.8c1-0.8,2.3-1.3,3.7-1.3c1.6,0,3,0.6,4,1.6s1.6,2.5,1.6,4.4c0,1.6-0.3,2.7-0.7,3.5
			c-0.4,0.8-1.1,1.6-2,2c-0.8,0.4-1.8,0.7-2.8,0.7c-1.7,0-3-0.6-4-1.6C733,471.2,732.4,469.6,732.4,467.7z M734.6,467.7
			c0,1.6,0.3,2.7,1,3.4c0.7,0.7,1.4,1.1,2.5,1.1c1,0,1.8-0.4,2.4-1.1c0.7-0.7,1-1.8,1-3.4c0-1.4-0.3-2.5-1-3.3
			c-0.7-0.7-1.4-1.1-2.4-1.1c-1,0-1.8,0.4-2.5,1.1C734.8,465.1,734.6,466.3,734.6,467.7z"/>
		<path d="M753.5,473.6v-1.7c-0.8,1.3-2.1,2-3.7,2c-0.7,0-1.3-0.1-2-0.4c-0.6-0.3-1-0.6-1.3-1c-0.3-0.4-0.6-0.8-0.6-1.4
			c-0.1-0.4-0.1-1-0.1-1.8V462h2v6.5c0,1,0,1.7,0.1,2.1c0.1,0.6,0.4,1,0.8,1.3c0.4,0.3,0.8,0.4,1.6,0.4c0.7,0,1.1-0.1,1.7-0.4
			s0.8-0.7,1.1-1.3c0.3-0.6,0.3-1.3,0.3-2.3v-6.2h2v11.7h-2V473.6z"/>
		<path d="M758.3,473.6v-11.7h1.8v1.8c0.4-0.8,0.8-1.4,1.3-1.7s0.8-0.4,1.3-0.4c0.7,0,1.4,0.3,2,0.7l-0.7,1.8
			c-0.4-0.3-1-0.4-1.4-0.4s-0.8,0.1-1.1,0.4c-0.3,0.3-0.6,0.6-0.7,1.1c-0.3,0.7-0.3,1.4-0.3,2.3v6.1L758.3,473.6L758.3,473.6z"/>
		<path d="M773.6,469.2l2,0.3c-0.3,1.4-0.7,2.4-1.7,3.1c-0.8,0.7-2,1.1-3.3,1.1c-1.6,0-2.8-0.6-3.8-1.6c-1-1-1.4-2.5-1.4-4.5
			c0-1.3,0.1-2.4,0.6-3.4c0.4-1,1-1.7,2-2.1c0.8-0.4,1.8-0.7,2.8-0.7c1.3,0,2.3,0.3,3.1,1c0.8,0.7,1.3,1.6,1.6,2.7l-2,0.3
			c-0.1-0.8-0.6-1.4-1-1.8c-0.4-0.4-1-0.6-1.7-0.6c-1,0-1.8,0.4-2.4,1.1s-1,1.8-1,3.4c0,1.6,0.3,2.7,0.8,3.4
			c0.6,0.7,1.4,1.1,2.4,1.1c0.8,0,1.4-0.3,2-0.7C773.2,471.1,773.5,470.2,773.6,469.2z"/>
		<path d="M785.4,469.8l2.1,0.3c-0.3,1.1-1,2.1-1.8,2.8c-0.8,0.7-2,1-3.4,1c-1.7,0-3.1-0.6-4.1-1.6c-1-1-1.6-2.5-1.6-4.4
			c0-2,0.6-3.5,1.6-4.5c1-1.1,2.4-1.7,4-1.7c1.6,0,2.8,0.6,3.8,1.6c1,1.1,1.6,2.5,1.6,4.5c0,0.1,0,0.3,0,0.6h-8.8
			c0.1,1.3,0.4,2.3,1.1,3c0.7,0.7,1.4,1,2.4,1c0.7,0,1.4-0.1,1.8-0.6C784.7,471.2,785.1,470.6,785.4,469.8z M778.9,466.5h6.5
			c-0.1-1-0.3-1.7-0.7-2.3c-0.6-0.7-1.4-1.1-2.4-1.1c-0.8,0-1.7,0.3-2.3,0.8C779.1,464.7,778.9,465.5,778.9,466.5z"/>
		<path d="M683.3,497.2l2-0.3c0.1,0.8,0.4,1.4,1,1.8c0.6,0.4,1.3,0.6,2.1,0.6s1.6-0.1,2-0.6c0.4-0.4,0.7-0.8,0.7-1.3
			c0-0.4-0.1-0.8-0.6-1.1c-0.3-0.1-1-0.4-2-0.7c-1.4-0.4-2.4-0.7-3-1c-0.6-0.3-1-0.7-1.3-1.1c-0.3-0.4-0.4-1-0.4-1.6
			c0-0.6,0.1-1,0.4-1.4c0.3-0.4,0.6-0.8,1-1.1c0.3-0.3,0.7-0.4,1.3-0.6c0.6-0.1,1.1-0.3,1.7-0.3c1,0,1.7,0.1,2.4,0.4
			c0.7,0.3,1.3,0.6,1.6,1.1c0.3,0.6,0.6,1,0.7,1.8l-2,0.3c-0.1-0.6-0.3-1.1-0.7-1.4s-1-0.6-1.8-0.6c-0.8,0-1.6,0.1-2,0.4
			c-0.4,0.3-0.6,0.7-0.6,1.1c0,0.3,0.1,0.4,0.3,0.7c0.1,0.3,0.4,0.4,0.7,0.6c0.1,0.1,0.8,0.3,1.7,0.6c1.4,0.4,2.4,0.7,3,1
			c0.6,0.3,1,0.6,1.3,1c0.3,0.4,0.4,1,0.4,1.7c0,0.7-0.1,1.3-0.6,1.8c-0.4,0.6-1,1-1.7,1.4c-0.7,0.4-1.6,0.4-2.5,0.4
			c-1.6,0-2.7-0.3-3.5-1C684.2,499.4,683.6,498.5,683.3,497.2z"/>
		<path d="M703.6,497l2.1,0.3c-0.3,1.1-1,2.1-1.8,2.8c-0.8,0.7-2,1-3.4,1c-1.7,0-3.1-0.6-4.1-1.6s-1.6-2.5-1.6-4.4
			c0-2,0.6-3.5,1.6-4.5c1-1.1,2.4-1.7,4-1.7c1.6,0,2.8,0.6,3.8,1.6c1,1.1,1.6,2.5,1.6,4.5c0,0.1,0,0.3,0,0.6h-8.8
			c0.1,1.3,0.4,2.3,1.1,3c0.7,0.7,1.4,1,2.4,1c0.7,0,1.4-0.1,1.8-0.6C702.9,498.4,703.3,497.8,703.6,497z M697.1,493.7h6.5
			c-0.1-1-0.3-1.7-0.7-2.3c-0.6-0.7-1.4-1.1-2.4-1.1c-0.8,0-1.7,0.3-2.3,0.8C697.5,491.9,697.1,492.7,697.1,493.7z"/>
		<path d="M708.1,500.8V489h1.8v1.8c0.4-0.8,0.8-1.4,1.3-1.7s0.8-0.4,1.3-0.4c0.7,0,1.4,0.3,2,0.7l-0.7,1.8c-0.4-0.3-1-0.4-1.4-0.4
			c-0.4,0-0.8,0.1-1.1,0.4c-0.3,0.3-0.6,0.6-0.7,1.1c-0.3,0.7-0.3,1.4-0.3,2.3v6.1L708.1,500.8L708.1,500.8z"/>
		<path d="M718.9,500.8l-4.5-11.7h2.1l2.5,7.1c0.3,0.7,0.6,1.6,0.7,2.4c0.1-0.6,0.4-1.4,0.7-2.3l2.5-7.2h2l-4.4,11.7H718.9z"/>
		<path d="M735,497l2.1,0.3c-0.3,1.1-1,2.1-1.8,2.8c-0.8,0.7-2,1-3.4,1c-1.7,0-3.1-0.6-4.1-1.6s-1.6-2.5-1.6-4.4
			c0-2,0.6-3.5,1.6-4.5c1-1.1,2.4-1.7,4-1.7c1.6,0,2.8,0.6,3.8,1.6c1,1.1,1.6,2.5,1.6,4.5c0,0.1,0,0.3,0,0.6h-8.8
			c0.1,1.3,0.4,2.3,1.1,3c0.7,0.7,1.4,1,2.4,1c0.7,0,1.4-0.1,1.8-0.6C734.3,498.4,734.7,497.8,735,497z M728.5,493.7h6.5
			c-0.1-1-0.3-1.7-0.7-2.3c-0.6-0.7-1.4-1.1-2.4-1.1c-0.8,0-1.7,0.3-2.3,0.8C728.9,491.9,728.5,492.7,728.5,493.7z"/>
		<path d="M739.5,500.8V489h1.8v1.8c0.4-0.8,0.8-1.4,1.3-1.7s0.8-0.4,1.3-0.4c0.7,0,1.4,0.3,2,0.7l-0.7,1.8c-0.4-0.3-1-0.4-1.4-0.4
			c-0.4,0-0.8,0.1-1.1,0.4c-0.3,0.3-0.6,0.6-0.7,1.1c-0.3,0.7-0.3,1.4-0.3,2.3v6.1L739.5,500.8L739.5,500.8z"/>
		<path d="M757.2,505.4c-1.1-1.4-2-3-2.8-4.8c-0.7-1.8-1.1-3.8-1.1-5.8c0-1.7,0.3-3.4,0.8-5.1c0.7-1.8,1.7-3.7,3.1-5.5h1.4
			c-0.8,1.6-1.4,2.7-1.7,3.3c-0.4,1-0.8,2.1-1.1,3.1c-0.3,1.4-0.4,2.8-0.4,4.1c0,3.5,1.1,7.1,3.3,10.6h-1.4V505.4z"/>
		<path d="M759.3,500.8l6.2-16.3h2.3l6.7,16.3h-2.4l-1.8-5h-6.8l-1.8,5H759.3z M764.1,494.1h5.5l-1.7-4.5c-0.6-1.4-0.8-2.5-1.1-3.4
			c-0.1,1-0.6,2.1-0.8,3.1L764.1,494.1z"/>
		<path d="M776.3,500.8v-16.3h6.1c1.1,0,1.8,0,2.4,0.1c0.8,0.1,1.4,0.4,2,0.7c0.6,0.4,1,0.8,1.3,1.6c0.3,0.7,0.4,1.4,0.4,2.3
			c0,1.4-0.4,2.5-1.3,3.5s-2.4,1.4-4.8,1.4h-4.1v6.7L776.3,500.8L776.3,500.8z M778.4,492.3h4.2c1.4,0,2.4-0.3,3-0.7
			c0.6-0.6,0.8-1.3,0.8-2.1c0-0.7-0.1-1.3-0.6-1.7c-0.3-0.4-0.8-0.8-1.4-1c-0.4-0.1-1-0.1-2-0.1h-4.1L778.4,492.3L778.4,492.3z"/>
		<path d="M791.7,500.8v-16.3h2.1v16.3H791.7z"/>
		<path d="M798.7,505.4h-1.4c2.3-3.5,3.3-7.1,3.3-10.6c0-1.4-0.1-2.8-0.4-4.1c-0.3-1.1-0.6-2.1-1-3.1c-0.3-0.7-0.8-1.7-1.8-3.3h1.4
			c1.4,1.8,2.4,3.7,3.1,5.5c0.6,1.6,0.8,3.3,0.8,5.1c0,2-0.4,4-1.1,5.8C800.8,502.6,799.8,504.2,798.7,505.4z"/>
	</g>
	<g>
		<rect x="259" y="266" fill="none" width="119.9" height="24.5"/>
		<path d="M265.9,277.1c-0.6,0.4-1.1,0.8-1.6,1c-0.4,0.1-1,0.3-1.7,0.3c-1,0-1.7-0.3-2.3-0.7c-0.6-0.4-0.8-1.1-0.8-1.8
			c0-0.4,0.1-0.8,0.3-1.1c0.1-0.3,0.4-0.7,0.7-0.8s0.7-0.4,1.1-0.4c0.3-0.1,0.7-0.1,1.3-0.3c1.3-0.1,2.1-0.3,2.7-0.6
			c0-0.1,0-0.3,0-0.4c0-0.6-0.1-1-0.4-1.3c-0.4-0.3-1-0.6-1.7-0.6c-0.7,0-1.3,0.1-1.6,0.4s-0.6,0.7-0.7,1.3l-1.4-0.1
			c0.1-0.6,0.3-1.1,0.7-1.6s0.7-0.7,1.3-0.8c0.6-0.1,1.3-0.3,2-0.3s1.4,0.1,1.8,0.3c0.4,0.1,0.8,0.4,1,0.7c0.1,0.3,0.4,0.6,0.4,1
			c0,0.3,0.1,0.7,0.1,1.4v2c0,1.4,0,2.3,0.1,2.7c0.1,0.4,0.1,0.7,0.4,1h-1.6C266.1,277.9,265.9,277.5,265.9,277.1z M265.8,273.8
			c-0.6,0.3-1.4,0.4-2.4,0.6c-0.6,0.1-1,0.1-1.3,0.3s-0.4,0.3-0.6,0.4s-0.1,0.4-0.1,0.7c0,0.4,0.1,0.7,0.4,1s0.7,0.4,1.3,0.4
			c0.6,0,1.1-0.1,1.6-0.4c0.4-0.3,0.7-0.6,1-1c0.1-0.3,0.3-0.8,0.3-1.6v-0.4H265.8z"/>
		<path d="M275.3,274.9l1.4,0.1c-0.1,1-0.6,1.8-1.3,2.4c-0.7,0.6-1.4,0.8-2.4,0.8c-1.3,0-2.1-0.4-3-1.1c-0.8-0.7-1.1-2-1.1-3.4
			c0-1,0.1-1.8,0.4-2.5s0.8-1.3,1.4-1.6c0.6-0.3,1.4-0.6,2.1-0.6c1,0,1.7,0.3,2.4,0.7s1,1.1,1.1,2.1l-1.4,0.3
			c-0.1-0.6-0.4-1-0.7-1.3c-0.3-0.3-0.7-0.4-1.3-0.4c-0.7,0-1.4,0.3-1.8,0.8s-0.7,1.4-0.7,2.5c0,1.1,0.3,2,0.7,2.5
			c0.4,0.6,1,0.8,1.8,0.8c0.6,0,1.1-0.1,1.4-0.6C274.7,276.4,275.3,275.8,275.3,274.9z"/>
		<path d="M283.7,274.9l1.4,0.1c-0.1,1-0.6,1.8-1.3,2.4c-0.7,0.6-1.4,0.8-2.4,0.8c-1.3,0-2.1-0.4-3-1.1c-0.8-0.7-1.1-2-1.1-3.4
			c0-1,0.1-1.8,0.4-2.5c0.3-0.7,0.8-1.3,1.4-1.6s1.4-0.6,2.1-0.6c1,0,1.7,0.3,2.4,0.7c0.7,0.4,1,1.1,1.1,2.1l-1.4,0.3
			c-0.1-0.6-0.4-1-0.7-1.3s-0.7-0.4-1.3-0.4c-0.7,0-1.4,0.3-1.8,0.8s-0.7,1.4-0.7,2.5c0,1.1,0.3,2,0.7,2.5c0.4,0.6,1,0.8,1.8,0.8
			c0.6,0,1.1-0.1,1.4-0.6C283.2,276.4,283.7,275.8,283.7,274.9z"/>
		<path d="M292.5,275.4l1.6,0.1c-0.3,0.8-0.7,1.6-1.4,2.1c-0.7,0.6-1.6,0.7-2.5,0.7c-1.3,0-2.3-0.4-3.1-1.1s-1.1-1.8-1.1-3.4
			c0-1.4,0.4-2.7,1.1-3.4c0.7-0.7,1.7-1.3,3-1.3c1.1,0,2.1,0.4,2.8,1.1c0.7,0.7,1.1,2,1.1,3.4c0,0.1,0,0.3,0,0.4h-6.5
			c0,1,0.3,1.7,0.8,2.3c0.6,0.6,1.1,0.7,1.8,0.7c0.6,0,1-0.1,1.4-0.4C292,276.4,292.4,275.9,292.5,275.4z M287.7,273h5
			c0-0.7-0.3-1.3-0.6-1.7c-0.4-0.6-1.1-0.8-1.8-0.8c-0.7,0-1.3,0.3-1.7,0.7S287.7,272.3,287.7,273z"/>
		<path d="M295.3,275.5l1.4-0.3c0.1,0.6,0.3,1,0.7,1.4c0.4,0.4,0.8,0.4,1.6,0.4s1.1-0.1,1.6-0.4s0.6-0.6,0.6-1
			c0-0.3-0.1-0.6-0.4-0.8c-0.1-0.1-0.7-0.3-1.6-0.6c-1.1-0.3-1.8-0.6-2.3-0.7s-0.7-0.4-1-0.8s-0.3-0.7-0.3-1.1
			c0-0.4,0.1-0.7,0.3-1.1s0.4-0.6,0.7-0.8c0.3-0.1,0.6-0.3,1-0.4c0.4-0.1,0.8-0.1,1.3-0.1c0.7,0,1.3,0.1,1.8,0.3
			c0.6,0.1,0.8,0.4,1.1,0.8s0.4,0.8,0.6,1.4l-1.4,0.1c0-0.4-0.3-0.8-0.6-1.1s-0.7-0.4-1.4-0.4c-0.7,0-1.1,0.1-1.4,0.3
			c-0.3,0.1-0.4,0.4-0.4,0.8c0,0.1,0,0.4,0.1,0.6c0.1,0.1,0.3,0.3,0.6,0.4c0.1,0,0.6,0.1,1.3,0.4c1,0.3,1.8,0.6,2.3,0.7
			s0.7,0.4,1,0.8s0.4,0.7,0.4,1.3c0,0.6-0.1,1-0.4,1.4c-0.3,0.4-0.7,0.8-1.3,1c-0.6,0.1-1.1,0.4-1.8,0.4c-1.1,0-2-0.3-2.5-0.7
			S295.6,276.5,295.3,275.5z"/>
		<path d="M303.8,275.5l1.4-0.3c0.1,0.6,0.3,1,0.7,1.4s0.8,0.4,1.6,0.4c0.7,0,1.1-0.1,1.6-0.4s0.6-0.6,0.6-1c0-0.3-0.1-0.6-0.4-0.8
			c-0.1-0.1-0.7-0.3-1.6-0.6c-1.1-0.3-1.8-0.6-2.3-0.7c-0.4-0.1-0.7-0.4-1-0.8s-0.3-0.7-0.3-1.1c0-0.4,0.1-0.7,0.3-1.1
			s0.4-0.6,0.7-0.8c0.3-0.1,0.6-0.3,1-0.4c0.4-0.1,0.8-0.1,1.3-0.1c0.7,0,1.3,0.1,1.8,0.3c0.6,0.1,0.8,0.4,1.1,0.8s0.4,0.8,0.6,1.4
			l-1.4,0.1c0-0.4-0.3-0.8-0.6-1.1c-0.3-0.3-0.7-0.4-1.4-0.4c-0.7,0-1.1,0.1-1.4,0.3s-0.4,0.4-0.4,0.8c0,0.1,0,0.4,0.1,0.6
			c0.1,0.1,0.3,0.3,0.6,0.4c0.1,0,0.6,0.1,1.3,0.4c1,0.3,1.8,0.6,2.3,0.7s0.7,0.4,1,0.8c0.3,0.4,0.4,0.7,0.4,1.3
			c0,0.6-0.1,1-0.4,1.4c-0.3,0.4-0.7,0.8-1.3,1c-0.6,0.1-1.1,0.4-1.8,0.4c-1.1,0-2-0.3-2.5-0.7S304.1,276.5,303.8,275.5z"/>
		<path d="M321,276.9l0.3,1.3c-0.4,0.1-0.8,0.1-1.1,0.1c-0.6,0-1-0.1-1.3-0.3c-0.3-0.1-0.6-0.4-0.6-0.7s-0.1-0.8-0.1-1.7v-5.1H317
			v-1.1h1.1v-2.3l1.4-0.8v3.1h1.6v1.1h-1.6v5.1c0,0.4,0,0.7,0.1,0.8c0.1,0.1,0.1,0.3,0.3,0.3c0.1,0,0.3,0.1,0.6,0.1
			C320.5,276.9,320.7,276.9,321,276.9z"/>
		<path d="M321.8,273.8c0-1.7,0.4-2.8,1.4-3.7c0.7-0.7,1.7-1,2.8-1c1.3,0,2.3,0.4,3,1.1c0.7,0.7,1.1,1.8,1.1,3.3
			c0,1.1-0.1,2-0.6,2.7c-0.4,0.7-0.8,1.1-1.4,1.6c-0.6,0.4-1.4,0.6-2.1,0.6c-1.3,0-2.3-0.4-3-1.1
			C322.4,276.5,321.8,275.2,321.8,273.8z M323.4,273.8c0,1.1,0.3,2,0.7,2.5s1.1,0.8,1.8,0.8c0.7,0,1.4-0.3,1.8-0.8
			c0.4-0.6,0.7-1.4,0.7-2.5c0-1.1-0.3-2-0.7-2.4c-0.4-0.4-1.1-0.8-1.8-0.8c-0.7,0-1.4,0.3-1.8,0.8S323.4,272.7,323.4,273.8z"/>
		<path d="M331.9,278.2V266h1.6v6.9l3.5-3.5h2l-3.4,3.3l3.7,5.5h-1.8l-3-4.5l-1,1v3.5L331.9,278.2L331.9,278.2z"/>
		<path d="M346.4,275.4l1.6,0.1c-0.3,0.8-0.7,1.6-1.4,2.1c-0.7,0.6-1.6,0.7-2.5,0.7c-1.3,0-2.3-0.4-3.1-1.1
			c-0.8-0.7-1.1-1.8-1.1-3.4c0-1.4,0.4-2.7,1.1-3.4c0.7-0.7,1.7-1.3,3-1.3c1.1,0,2.1,0.4,2.8,1.1s1.1,2,1.1,3.4c0,0.1,0,0.3,0,0.4
			h-6.5c0,1,0.3,1.7,0.8,2.3s1.1,0.7,1.8,0.7c0.6,0,1-0.1,1.4-0.4C345.9,276.4,346.1,275.9,346.4,275.4z M341.5,273h5
			c0-0.7-0.3-1.3-0.6-1.7c-0.4-0.6-1.1-0.8-1.8-0.8s-1.3,0.3-1.7,0.7S341.5,272.3,341.5,273z"/>
		<path d="M349.8,278.2v-8.8h1.3v1.3c0.7-1,1.6-1.4,2.8-1.4c0.6,0,1,0.1,1.4,0.3c0.4,0.1,0.7,0.4,1,0.7c0.3,0.3,0.4,0.7,0.4,1.1
			c0,0.3,0.1,0.7,0.1,1.4v5.4h-1.6v-5.4c0-0.6,0-1.1-0.1-1.4s-0.3-0.6-0.6-0.7c-0.3-0.1-0.7-0.3-1-0.3c-0.6,0-1.1,0.1-1.7,0.6
			c-0.6,0.4-0.7,1.1-0.7,2.3v4.8h-1.4V278.2z"/>
	</g>
	<path d="M461.9,135.3c-1.8,0.8-4.1-0.1-4.8-2c-0.8-1.8,0.1-4.1,2-4.8c1.8-0.8,4.1,0.1,4.8,2C464.7,132.3,463.7,134.6,461.9,135.3z
		 M467.7,126.9l-1.3,0.6c-0.4-0.6-1-1-1.4-1.4l0.6-1.3c0.1-0.4,0-0.8-0.4-1L463,123c-0.4-0.1-0.8,0-1,0.4l-0.6,1.3
		c-0.7-0.1-1.4-0.1-2.1,0l-0.6-1.3c-0.1-0.4-0.6-0.6-1-0.4l-2.1,0.8c-0.4,0.1-0.6,0.6-0.4,1l0.6,1.3c-0.6,0.4-1,1-1.4,1.4l-1.3-0.6
		c-0.4-0.1-0.8,0-1,0.4l-0.8,2.1c-0.1,0.4,0,0.8,0.4,1l1.3,0.6c-0.1,0.7-0.1,1.4,0,2.1l-1.3,0.6c-0.4,0.1-0.6,0.6-0.4,1l0.8,2.1
		c0.1,0.4,0.6,0.6,1,0.4l1.3-0.6c0.4,0.6,1,1,1.4,1.4l-0.6,1.3c-0.1,0.4,0,0.8,0.4,1l2.1,0.8c0.4,0.1,0.8,0,1-0.4l0.6-1.3
		c0.7,0.1,1.4,0.1,2.1,0l0.6,1.3c0.1,0.4,0.6,0.6,1,0.4l2.1-0.8c0.4-0.1,0.6-0.6,0.4-1l-0.6-1.3c0.6-0.4,1-1,1.4-1.4l1.3,0.6
		c0.4,0.1,0.8,0,1-0.4l0.8-2.1c0.1-0.4,0-0.8-0.4-1l-1.3-0.6c0.1-0.7,0.1-1.4,0-2.1l1.3-0.6c0.4-0.1,0.6-0.6,0.4-1l-0.8-2.1
		C468.4,126.9,468,126.7,467.7,126.9z"/>
	<path d="M444.6,166.4c-1.4,0-2.5-1.1-2.5-2.5c0-1.4,1.1-2.5,2.5-2.5s2.5,1.1,2.5,2.5C447.2,165.3,446,166.4,444.6,166.4z
		 M442.4,112.8h5c0.3,0,0.6,0.3,0.6,0.6c0,0.3-0.3,0.6-0.6,0.6h-5c-0.3,0-0.6-0.3-0.6-0.6C441.8,113.1,442.1,112.8,442.4,112.8z
		 M458.5,142.9v16.4h-27.3v-41.6h27.3v3h3.1v-8.6c0-2.7-2.3-5-5-5H433c-2.7,0-5,2.3-5,5v52.2c0,2.7,2.3,5,5,5h23.6c2.7,0,5-2.3,5-5
		v-21.5h-3.1V142.9z"/>
	<rect x="410.1" y="123.1" width="14.9" height="3.1"/>
	<rect x="413.8" y="129.3" width="11.2" height="3.1"/>
	<rect x="421.3" y="135.6" width="3.7" height="3.1"/>
	<g>
		<path d="M211.7,195.7c-0.4,0.6-0.7,1.1-1.1,1.4c-0.4,0.4-0.8,0.6-1.4,0.8c-0.8,0.3-1.7,0.4-2.4,0.1c-0.7-0.3-1.1-0.7-1.4-1.4
			c-0.1-0.4-0.1-0.8-0.1-1.3c0-0.4,0.1-0.7,0.4-1.1c0.3-0.3,0.6-0.6,0.8-0.8c0.3-0.1,0.7-0.4,1.1-0.7c1.1-0.6,1.8-1,2.3-1.4
			c0-0.1-0.1-0.3-0.1-0.4c-0.1-0.6-0.4-1-0.8-1.1c-0.4-0.1-1.1-0.1-1.8,0.1c-0.7,0.3-1.1,0.6-1.3,0.8c-0.3,0.3-0.3,0.8-0.3,1.4
			l-1.4,0.3c-0.1-0.6,0-1.1,0.1-1.7c0.1-0.4,0.4-0.8,1-1.3c0.6-0.4,1.1-0.7,1.8-1c0.7-0.3,1.3-0.4,1.8-0.4c0.6,0,0.8,0.1,1.1,0.3
			c0.3,0.1,0.6,0.4,0.8,0.8c0.1,0.3,0.3,0.7,0.6,1.3l0.7,1.8c0.4,1.3,0.8,2.1,1,2.4c0.1,0.3,0.4,0.6,0.7,0.8l-1.4,0.6
			C212.1,196.3,212,196,211.7,195.7z M210.4,192.6c-0.4,0.4-1.1,0.8-2.1,1.4c-0.6,0.3-1,0.6-1.1,0.7s-0.3,0.4-0.4,0.7
			c-0.1,0.3,0,0.4,0,0.7c0.1,0.4,0.4,0.6,0.7,0.8c0.4,0.1,0.8,0.1,1.4-0.1c0.6-0.1,1-0.4,1.3-0.8c0.3-0.4,0.6-0.8,0.6-1.3
			c0-0.4,0-0.8-0.3-1.4L210.4,192.6z"/>
		<path d="M216.8,198.5l-4.1-11.5l1.3-0.4l0.4,1.1c0.1-0.6,0.4-1,0.7-1.3c0.3-0.3,0.7-0.6,1.3-0.8c0.7-0.3,1.4-0.3,2.1-0.1
			c0.7,0.1,1.3,0.6,1.8,1.1c0.6,0.6,0.8,1.3,1.1,2c0.3,0.8,0.4,1.7,0.4,2.4c0,0.8-0.3,1.4-0.7,2s-1,1-1.7,1.1
			c-0.4,0.1-1,0.3-1.4,0.1c-0.4,0-0.8-0.1-1.1-0.4l1.4,4L216.8,198.5z M215.4,190.9c0.4,1.1,0.8,1.8,1.6,2.1
			c0.6,0.4,1.3,0.4,1.8,0.1c0.6-0.3,1.1-0.7,1.3-1.4c0.1-0.7,0.1-1.6-0.3-2.7c-0.4-1-0.8-1.7-1.6-2.1c-0.7-0.4-1.3-0.4-1.8-0.3
			c-0.6,0.3-1,0.7-1.3,1.4C215,188.9,215,189.8,215.4,190.9z"/>
		<path d="M225.6,195.4l-4.1-11.5l1.3-0.4l0.4,1.1c0.1-0.6,0.4-1,0.7-1.3c0.3-0.3,0.7-0.6,1.3-0.8c0.7-0.3,1.4-0.3,2.1-0.1
			c0.7,0.1,1.3,0.6,1.8,1.1c0.6,0.6,0.8,1.3,1.1,2c0.3,0.8,0.4,1.7,0.4,2.4c0,0.8-0.3,1.4-0.7,2c-0.4,0.6-1,1-1.7,1.1
			c-0.4,0.1-1,0.3-1.4,0.1c-0.4,0-0.8-0.1-1.1-0.4l1.4,4L225.6,195.4z M224.3,187.6c0.4,1.1,0.8,1.8,1.6,2.1
			c0.6,0.3,1.3,0.4,1.8,0.1c0.6-0.3,1.1-0.7,1.3-1.4c0.3-0.7,0.1-1.6-0.3-2.7c-0.4-1-0.8-1.7-1.6-2.1c-0.6-0.4-1.3-0.4-1.8-0.3
			c-0.6,0.3-1,0.7-1.3,1.4C223.7,185.5,223.9,186.6,224.3,187.6z"/>
		<path d="M233.4,189.1l-4.1-11.5l1.4-0.6l4.1,11.5L233.4,189.1z"/>
		<path d="M233.4,177.9l-0.6-1.6l1.4-0.6l0.6,1.6L233.4,177.9z M236.9,187.8l-3-8.3l1.4-0.6l3,8.3L236.9,187.8z"/>
		<path d="M244.8,181.4l1.4-0.3c0.1,1,0.1,1.8-0.3,2.7c-0.4,0.7-1.1,1.3-2,1.7c-1.1,0.4-2.1,0.4-3.1-0.1s-1.7-1.4-2.1-2.8
			c-0.3-0.8-0.4-1.7-0.4-2.5c0-0.7,0.3-1.4,0.8-2c0.6-0.6,1.1-1,1.8-1.3c0.8-0.3,1.7-0.4,2.4-0.1c0.7,0.3,1.3,0.7,1.8,1.6l-1.3,0.7
			c-0.3-0.6-0.7-0.8-1.1-1c-0.4-0.1-0.8-0.1-1.4,0c-0.7,0.3-1.1,0.7-1.4,1.4c-0.3,0.7-0.1,1.6,0.1,2.7c0.4,1.1,0.8,1.8,1.6,2.3
			c0.6,0.3,1.3,0.4,2,0.1c0.6-0.1,1-0.6,1.1-1C245,183,245,182.3,244.8,181.4z"/>
		<path d="M253.5,180.6c-0.4,0.6-0.7,1.1-1.1,1.4c-0.4,0.3-0.8,0.6-1.4,0.8c-0.8,0.3-1.7,0.4-2.4,0.1s-1.1-0.7-1.4-1.4
			c-0.1-0.4-0.1-0.8-0.1-1.3c0-0.4,0.1-0.7,0.4-1.1c0.3-0.3,0.6-0.6,0.8-0.8c0.3-0.1,0.7-0.4,1.1-0.7c1.1-0.6,1.8-1,2.3-1.4
			c0-0.1-0.1-0.3-0.1-0.4c-0.1-0.6-0.4-1-0.8-1.1c-0.4-0.1-1.1-0.1-1.8,0.1c-0.7,0.3-1.1,0.6-1.3,0.8c-0.3,0.3-0.3,0.8-0.3,1.4
			l-1.4,0.3c-0.1-0.6,0-1.1,0.1-1.7c0.1-0.4,0.4-0.8,1-1.3c0.4-0.4,1.1-0.7,1.8-1c0.7-0.3,1.3-0.4,1.8-0.4c0.6,0,0.8,0.1,1.1,0.3
			c0.3,0.1,0.6,0.4,0.8,0.8c0.1,0.3,0.3,0.7,0.6,1.3l0.7,1.8c0.4,1.3,0.8,2.1,1,2.4c0.1,0.3,0.4,0.6,0.7,0.8l-1.4,0.6
			C253.9,181.3,253.7,181,253.5,180.6z M252.2,177.5c-0.4,0.4-1.1,0.8-2.1,1.4c-0.6,0.3-1,0.6-1.1,0.7s-0.3,0.4-0.4,0.7
			c-0.1,0.3,0,0.4,0,0.7c0.1,0.4,0.4,0.6,0.7,0.8c0.4,0.1,0.8,0.1,1.4-0.1c0.6-0.1,1-0.4,1.3-0.8c0.3-0.4,0.6-0.8,0.6-1.3
			c0-0.4,0-0.8-0.3-1.4L252.2,177.5z"/>
		<path d="M260,178l0.7,1.1c-0.4,0.3-0.7,0.4-1,0.6c-0.6,0.1-1,0.3-1.3,0.1c-0.3-0.1-0.6-0.1-0.8-0.4c-0.1-0.3-0.4-0.7-0.7-1.6
			l-1.7-4.8l-1,0.4l-0.4-1.1l1-0.4l-0.7-2l1.1-1.4l1,2.8l1.4-0.6l0.4,1.1l-1.4,0.6l1.7,4.8c0.1,0.4,0.3,0.7,0.3,0.7
			c0.1,0.1,0.1,0.1,0.3,0.1c0.1,0,0.3,0,0.6-0.1C259.5,178.2,259.7,178.2,260,178z"/>
		<path d="M258.3,169l-0.6-1.6l1.4-0.6l0.6,1.6L258.3,169z M261.8,178.7l-3-8.3l1.4-0.6l3,8.3L261.8,178.7z"/>
		<path d="M263.4,173.5c-0.6-1.6-0.6-2.8,0-3.8c0.4-0.8,1.3-1.6,2.3-1.8c1.1-0.4,2.3-0.4,3.3,0.1c1,0.4,1.7,1.4,2.3,2.7
			c0.4,1.1,0.6,2,0.4,2.7c-0.1,0.7-0.4,1.4-0.8,2c-0.4,0.6-1.1,1-1.8,1.3c-1.1,0.4-2.3,0.4-3.3-0.1
			C264.5,175.9,263.8,174.9,263.4,173.5z M264.8,173.1c0.4,1.1,0.8,1.8,1.6,2.1c0.7,0.4,1.3,0.4,2,0.1c0.7-0.3,1.1-0.7,1.4-1.4
			c0.3-0.7,0.1-1.6-0.1-2.7c-0.4-1-0.8-1.7-1.6-2.1c-0.7-0.4-1.3-0.4-2-0.1c-0.7,0.3-1.1,0.7-1.4,1.4
			C264.4,171.1,264.4,171.9,264.8,173.1z"/>
		<path d="M274.3,174.3l-3-8.3l1.3-0.4l0.4,1.1c0.3-1.1,1-1.8,2.1-2.3c0.6-0.1,1-0.3,1.4-0.3s0.8,0.1,1.1,0.4
			c0.3,0.3,0.6,0.6,0.8,0.8c0.1,0.3,0.3,0.7,0.6,1.3l1.8,5.1l-1.4,0.6l-1.8-5.1c-0.1-0.6-0.4-1-0.6-1.3c-0.3-0.3-0.4-0.4-0.8-0.4
			c-0.3,0-0.7,0-1.1,0.1c-0.6,0.3-1,0.6-1.3,1.1c-0.3,0.6-0.3,1.3,0.1,2.4l1.7,4.5L274.3,174.3z"/>
		<path d="M287.6,169.5l-4.1-11.5l1.4-0.6l2.4,6.5l2.1-4.5l1.8-0.7l-2.1,4.2l5.4,4l-1.7,0.6l-4.2-3.3l-0.7,1.3l1.1,3.3L287.6,169.5z
			"/>
		<path d="M300.2,161.9l1.6-0.3c0.1,1-0.1,1.7-0.6,2.4c-0.4,0.7-1.1,1.3-2.1,1.6c-1.3,0.4-2.3,0.4-3.3-0.1c-1-0.4-1.7-1.4-2.3-2.7
			c-0.6-1.4-0.6-2.5-0.1-3.7c0.4-1,1.3-1.7,2.4-2.1c1.1-0.4,2.1-0.3,3.1,0.1c1,0.6,1.7,1.4,2.3,2.8c0,0.1,0.1,0.1,0.1,0.4l-6.2,2.3
			c0.4,0.8,0.8,1.6,1.6,1.8c0.7,0.3,1.3,0.3,2,0.1c0.6-0.1,0.8-0.4,1.1-0.8C300.2,163,300.2,162.6,300.2,161.9z M294.8,161.3
			l4.7-1.7c-0.3-0.7-0.7-1.1-1.1-1.4c-0.7-0.4-1.3-0.4-2-0.1c-0.7,0.3-1.1,0.7-1.4,1.3C294.6,159.9,294.6,160.5,294.8,161.3z"/>
		<path d="M305.5,166.6l-0.6-1.3c0.3,0,0.6-0.1,0.8-0.1c0.3-0.1,0.6-0.3,0.7-0.4c0.1-0.1,0.3-0.4,0.3-0.6c0-0.1,0-0.6,0-1.1
			c0-0.1,0-0.3,0-0.4l-6.1-7.2l1.6-0.6l3.4,4.2c0.4,0.6,0.8,1.1,1.3,1.7c0-0.7-0.1-1.4-0.1-2.1v-5.5l1.4-0.6l-0.1,9.6
			c0,1,0,1.7-0.1,2.1c-0.1,0.6-0.3,1-0.4,1.3c-0.3,0.3-0.6,0.6-1,0.7C306.2,166.6,305.8,166.6,305.5,166.6z"/>
		<path d="M319.1,155.9l-1.1-3.1l-3.1,1.1l-0.4-1.3l3.1-1.1l-1.1-3.1l1.3-0.4l1.1,3.1l3.1-1.1l0.4,1.3l-3.1,1.1l1.1,3.1L319.1,155.9
			z"/>
		<path d="M329.2,151.7l1.3-0.7c0.3,0.6,0.7,0.8,1.1,1c0.4,0.1,1,0.1,1.7-0.1c0.7-0.3,1.1-0.6,1.3-0.8c0.3-0.4,0.3-0.7,0.1-1.1
			c-0.1-0.3-0.3-0.6-0.7-0.6c-0.3,0-0.7,0-1.6,0c-1.1,0.1-2,0.1-2.4,0.1s-0.8-0.1-1.1-0.4c-0.3-0.3-0.6-0.6-0.7-1s-0.1-0.7-0.1-1.1
			c0-0.4,0.1-0.7,0.4-1c0.1-0.3,0.4-0.4,0.7-0.7c0.3-0.3,0.7-0.4,1.1-0.6c0.7-0.3,1.3-0.3,1.8-0.3c0.6,0,1,0.1,1.4,0.4
			c0.3,0.3,0.7,0.6,1,1.1l-1.3,0.7c-0.3-0.4-0.6-0.7-0.8-0.8c-0.4-0.1-0.8-0.1-1.4,0.1c-0.7,0.3-1.1,0.6-1.3,0.8
			c-0.1,0.3-0.3,0.6-0.1,0.8c0,0.1,0.1,0.3,0.3,0.4c0.1,0.1,0.4,0.1,0.7,0.1c0.1,0,0.6,0,1.4-0.1c1.1-0.1,1.8-0.1,2.3-0.1
			s0.8,0.1,1.1,0.4c0.3,0.3,0.6,0.6,0.7,1.1c0.1,0.4,0.1,1,0,1.4c-0.1,0.6-0.4,1-0.8,1.4s-1,0.7-1.6,1c-1.1,0.4-2,0.4-2.7,0.3
			C330.3,153.4,329.6,152.5,329.2,151.7z"/>
		<path d="M343.3,146.3l1.6-0.3c0.1,1-0.1,1.7-0.6,2.4c-0.4,0.7-1.1,1.3-2.1,1.6c-1.3,0.4-2.3,0.4-3.3-0.1c-1-0.4-1.7-1.4-2.3-2.7
			c-0.6-1.4-0.6-2.5-0.1-3.7c0.4-1,1.3-1.7,2.4-2.1c1.1-0.4,2.1-0.3,3.1,0.1c1,0.4,1.7,1.4,2.3,2.8c0,0.1,0.1,0.1,0.1,0.4l-6.2,2.3
			c0.4,0.8,0.8,1.6,1.6,1.8c0.7,0.3,1.3,0.3,2,0.1c0.6-0.1,0.8-0.4,1.1-0.8C343.2,147.6,343.3,147,343.3,146.3z M337.8,145.8
			l4.7-1.7c-0.3-0.7-0.7-1.1-1.1-1.4c-0.7-0.4-1.3-0.4-2-0.1c-0.7,0.3-1.1,0.7-1.4,1.3C337.7,144.3,337.7,145,337.8,145.8z"/>
		<path d="M351.8,142.9l1.4-0.3c0.1,1,0.1,1.8-0.3,2.7c-0.4,0.7-1.1,1.3-2,1.7c-1.1,0.4-2.1,0.4-3.1-0.1c-1-0.4-1.7-1.4-2.1-2.8
			c-0.3-0.8-0.4-1.7-0.4-2.5c0-0.7,0.3-1.4,0.8-2c0.4-0.6,1.1-1,1.8-1.3c0.8-0.3,1.7-0.4,2.4-0.1c0.7,0.3,1.3,0.7,1.8,1.6l-1.3,0.7
			c-0.3-0.6-0.7-0.8-1.1-1c-0.4-0.1-0.8-0.1-1.4,0c-0.7,0.3-1.1,0.7-1.4,1.4s-0.1,1.6,0.1,2.7c0.4,1.1,0.8,1.8,1.6,2.3
			c0.6,0.3,1.3,0.4,2,0.1c0.6-0.1,1-0.6,1.1-1C351.9,144.2,351.9,143.6,351.8,142.9z"/>
		<path d="M355.5,144.9l-3-8.3l1.3-0.4l0.4,1.3c0.1-0.7,0.3-1.1,0.4-1.4s0.4-0.4,0.8-0.6c0.4-0.1,1-0.1,1.6,0v1.4
			c-0.4-0.1-0.8,0-1.1,0c-0.3,0.1-0.6,0.3-0.7,0.6s-0.3,0.6-0.3,1c0,0.6,0.1,1.1,0.4,1.7l1.6,4.4L355.5,144.9z"/>
		<path d="M365.5,138.4l1.6-0.3c0.1,1-0.1,1.7-0.6,2.4c-0.4,0.7-1.1,1.3-2.1,1.6c-1.3,0.4-2.3,0.4-3.3-0.1c-1-0.4-1.7-1.4-2.3-2.7
			c-0.6-1.4-0.6-2.5-0.1-3.7c0.4-1,1.3-1.7,2.4-2.1c1.1-0.4,2.1-0.3,3.1,0.1c1,0.6,1.7,1.4,2.3,2.8c0,0.1,0.1,0.1,0.1,0.4l-6.2,2.3
			c0.4,0.8,0.8,1.6,1.6,1.8c0.7,0.3,1.3,0.3,2,0.1c0.6-0.1,0.8-0.4,1.1-0.8C365.4,139.5,365.5,139,365.5,138.4z M360,137.7l4.7-1.7
			c-0.3-0.7-0.7-1.1-1.1-1.4c-0.7-0.4-1.3-0.4-2-0.1c-0.7,0.3-1.1,0.7-1.4,1.3C359.9,136.3,359.9,137,360,137.7z"/>
		<path d="M372.3,137.4l0.7,1.1c-0.4,0.3-0.7,0.4-1,0.6c-0.6,0.1-1,0.3-1.3,0.1c-0.3-0.1-0.6-0.1-0.8-0.4c-0.1-0.3-0.4-0.7-0.7-1.6
			l-1.7-4.8l-1,0.4l-0.4-1.1l1-0.4l-0.7-2l1.1-1.4l1,2.8l1.4-0.6l0.4,1.1l-1.4,0.6l1.7,4.8c0.1,0.4,0.3,0.7,0.3,0.7
			c0.1,0.1,0.1,0.1,0.3,0.1c0.1,0,0.3,0,0.6-0.1C371.8,137.7,372,137.5,372.3,137.4z"/>
	</g>
	<g>
		<path d="M114.8,338.3v-12.2h1.6v12.2H114.8z"/>
		<path d="M118,333.8c0-1.7,0.4-2.8,1.4-3.7c0.7-0.7,1.7-1,2.8-1c1.3,0,2.3,0.4,3,1.1c0.7,0.7,1.1,1.8,1.1,3.3c0,1.1-0.1,2-0.6,2.7
			c-0.4,0.7-0.8,1.1-1.4,1.6s-1.4,0.6-2.1,0.6c-1.3,0-2.3-0.4-3-1.1C118.6,336.5,118,335.4,118,333.8z M119.6,333.8
			c0,1.1,0.3,2,0.7,2.5c0.4,0.6,1.1,0.8,1.8,0.8s1.4-0.3,1.8-0.8c0.4-0.6,0.7-1.4,0.7-2.5c0-1.1-0.3-2-0.7-2.4
			c-0.4-0.4-1.1-0.8-1.8-0.8s-1.4,0.3-1.8,0.8C119.9,332,119.6,332.7,119.6,333.8z"/>
		<path d="M127.8,339l1.4,0.3c0,0.4,0.3,0.7,0.6,1c0.4,0.3,0.8,0.4,1.6,0.4s1.3-0.1,1.6-0.4c0.3-0.3,0.6-0.7,0.7-1.1
			c0.1-0.3,0.1-1,0.1-2c-0.7,0.7-1.4,1.1-2.4,1.1c-1.3,0-2.1-0.4-2.8-1.3c-0.7-0.8-1-2-1-3.1c0-0.8,0.1-1.6,0.4-2.3
			c0.3-0.7,0.7-1.3,1.3-1.7c0.6-0.4,1.3-0.6,2-0.6c1,0,1.8,0.4,2.5,1.3v-1.3h1.4v7.6c0,1.4-0.1,2.4-0.4,3s-0.7,1-1.3,1.4
			c-0.6,0.4-1.4,0.6-2.3,0.6c-1,0-1.8-0.3-2.5-0.7S127.7,339.9,127.8,339z M128.9,333.7c0,1.1,0.3,2,0.7,2.5s1,0.8,1.7,0.8
			s1.3-0.3,1.7-0.8c0.4-0.6,0.7-1.4,0.7-2.5c0-1.1-0.3-1.8-0.7-2.4c-0.4-0.6-1-0.8-1.7-0.8s-1.3,0.3-1.7,0.8
			C129.2,331.8,128.9,332.7,128.9,333.7z"/>
		<path d="M137.4,327.9v-1.7h1.6v1.7H137.4z M137.4,338.3v-8.9h1.6v8.8h-1.6V338.3z"/>
		<path d="M141.3,338.3v-8.9h1.3v1.3c0.7-1,1.6-1.4,2.8-1.4c0.6,0,1,0.1,1.4,0.3c0.4,0.1,0.7,0.4,1,0.7c0.3,0.3,0.4,0.7,0.4,1.1
			c0,0.3,0.1,0.7,0.1,1.4v5.4h-1.4v-5.4c0-0.6,0-1.1-0.1-1.4c-0.1-0.3-0.3-0.6-0.6-0.7s-0.7-0.3-1-0.3c-0.6,0-1.1,0.1-1.7,0.6
			c-0.6,0.4-0.7,1.1-0.7,2.3v4.8h-1.6V338.3z"/>
	</g>
	<g>
		<path d="M426,203.3l6.2-16.3h2.3l6.7,16.3h-2.4l-1.8-5h-6.8l-1.8,5H426z M430.6,196.7h5.5l-1.7-4.5c-0.6-1.4-0.8-2.5-1.1-3.4
			c-0.1,1-0.6,2.1-0.8,3.1L430.6,196.7z"/>
		<path d="M442.5,207.9v-16.3h1.8v1.6c0.4-0.6,0.8-1,1.4-1.3s1.1-0.4,2-0.4c1,0,1.8,0.3,2.7,0.7c0.7,0.6,1.4,1.3,1.7,2.1
			c0.4,1,0.6,2,0.6,3.1s-0.3,2.3-0.7,3.3c-0.4,1-1,1.7-1.8,2.3c-0.8,0.6-1.7,0.7-2.5,0.7c-0.7,0-1.3-0.1-1.8-0.4
			c-0.6-0.3-1-0.6-1.3-1.1v5.7h-2V207.9z M444.3,197.5c0,1.6,0.3,2.7,0.8,3.4s1.4,1.1,2.3,1.1s1.7-0.4,2.3-1.1s1-1.8,1-3.5
			c0-1.6-0.3-2.5-1-3.4c-0.6-0.7-1.4-1.1-2.3-1.1s-1.6,0.4-2.3,1.1C444.5,194.7,444.3,196,444.3,197.5z"/>
		<path d="M455.1,207.9v-16.3h1.8v1.6c0.4-0.6,0.8-1,1.4-1.3c0.6-0.3,1.1-0.4,2-0.4c1,0,1.8,0.3,2.7,0.7c0.7,0.6,1.4,1.3,1.7,2.1
			c0.4,1,0.6,2,0.6,3.1s-0.3,2.3-0.7,3.3c-0.4,1-1,1.7-1.8,2.3c-0.8,0.6-1.7,0.7-2.5,0.7c-0.7,0-1.3-0.1-1.8-0.4
			c-0.6-0.3-1-0.6-1.3-1.1v5.7h-2V207.9z M456.9,197.5c0,1.6,0.3,2.7,0.8,3.4c0.6,0.7,1.4,1.1,2.3,1.1c0.8,0,1.7-0.4,2.3-1.1
			c0.6-0.7,1-1.8,1-3.5c0-1.6-0.3-2.5-1-3.4c-0.6-0.7-1.4-1.1-2.3-1.1c-0.8,0-1.6,0.4-2.3,1.1C457.1,194.7,456.9,196,456.9,197.5z"
			/>
	</g>
</g>
</svg>
