<?xml version="1.0" encoding="utf-8"?>
<!-- Generator: Adobe Illustrator 17.1.0, SVG Export Plug-In . SVG Version: 6.00 Build 0)  -->
<!DOCTYPE svg PUBLIC "-//W3C//DTD SVG 1.1//EN" "http://www.w3.org/Graphics/SVG/1.1/DTD/svg11.dtd">
<svg version="1.1" id="Layer_1" xmlns="http://www.w3.org/2000/svg" xmlns:xlink="http://www.w3.org/1999/xlink" x="0px" y="0px"
	 viewBox="0 0 850 566" enable-background="new 0 0 850 566" xml:space="preserve">
<g id="restapi">
	<g>
		<path d="M82.8,68.5V48.3h2.7v8.3H96v-8.3h2.7v20.2H96v-9.5H85.5v9.5H82.8z"/>
		<path d="M103,68.5V48.3h4.1l4.8,14.3c0.4,1.3,0.7,2.4,1,3c0.3-0.7,0.6-1.8,1.1-3.3l4.8-14.1h3.5v20.2h-2.5v-17l-5.9,17h-2.4
			l-5.8-17.3v17.3H103V68.5z"/>
		<path d="M124.5,68.5l7.8-20.2h2.8l8.3,20.2h-3.1l-2.4-6.1h-8.5l-2.3,6.1H124.5z M130.3,60.2h6.9l-2.1-5.7
			c-0.7-1.7-1.1-3.1-1.4-4.2c-0.3,1.3-0.6,2.5-1.1,3.8L130.3,60.2z"/>
		<path d="M160.1,61.5l2.7,0.7c-0.6,2.3-1.6,3.8-3,5.1c-1.4,1.1-3.3,1.7-5.4,1.7s-4-0.4-5.4-1.3c-1.4-0.8-2.4-2.1-3.1-3.8
			c-0.7-1.7-1.1-3.5-1.1-5.4c0-2.1,0.4-4,1.3-5.5s2-2.8,3.4-3.5c1.4-0.7,3.1-1.3,5-1.3c2,0,3.7,0.6,5.1,1.6c1.4,1,2.4,2.5,2.8,4.4
			l-2.7,0.6c-0.4-1.4-1.1-2.5-2-3.3c-0.8-0.7-2-1-3.4-1c-1.6,0-2.8,0.4-4,1.1s-1.8,1.7-2.3,3s-0.6,2.5-0.6,3.8
			c0,1.7,0.3,3.3,0.7,4.5c0.4,1.3,1.3,2.3,2.4,2.8s2.3,1,3.4,1c1.6,0,2.8-0.4,3.8-1.3C159.1,64.4,159.8,63.2,160.1,61.5z"/>
		<path d="M183.3,68.5v-2.1c-1.1,1.7-2.7,2.5-4.7,2.5c-0.8,0-1.7-0.1-2.4-0.6c-0.7-0.4-1.3-0.7-1.7-1.3c-0.4-0.6-0.6-1.1-0.7-1.8
			c-0.1-0.4-0.1-1.3-0.1-2.3V54h2.5V62c0,1.3,0,2.1,0.1,2.7c0.1,0.7,0.4,1.1,1,1.6c0.6,0.4,1.1,0.6,1.8,0.6s1.4-0.1,2.1-0.6
			c0.7-0.4,1.1-0.8,1.4-1.6c0.3-0.7,0.4-1.6,0.4-2.8V54h2.5v14.7h-2.4V68.5z"/>
		<path d="M188.4,64.1l2.4-0.4c0.1,1,0.6,1.7,1.1,2.3c0.6,0.6,1.6,0.8,2.7,0.8c1.1,0,2-0.3,2.5-0.7c0.6-0.4,0.8-1,0.8-1.7
			c0-0.6-0.3-1-0.7-1.3c-0.3-0.3-1.1-0.6-2.5-0.8c-1.8-0.4-3.1-0.8-3.8-1.1c-0.7-0.3-1.3-0.8-1.6-1.4s-0.6-1.3-0.6-2
			c0-0.7,0.1-1.3,0.4-1.8c0.3-0.6,0.7-1,1.3-1.4c0.4-0.3,0.8-0.6,1.6-0.7c0.7-0.1,1.4-0.3,2.1-0.3c1.1,0,2.1,0.1,3,0.6
			c0.8,0.4,1.6,0.8,2,1.4c0.4,0.6,0.7,1.3,0.8,2.3l-2.4,0.3c-0.1-0.7-0.4-1.4-1-1.7c-0.6-0.4-1.3-0.6-2.3-0.6c-1.1,0-2,0.1-2.4,0.6
			c-0.4,0.4-0.7,0.8-0.7,1.3c0,0.3,0.1,0.6,0.3,0.8c0.1,0.3,0.6,0.4,1,0.7c0.3,0.1,1,0.3,2.3,0.6c1.7,0.4,3,0.8,3.7,1.1
			s1.3,0.7,1.7,1.3s0.6,1.3,0.6,2.1c0,0.8-0.3,1.6-0.7,2.4c-0.4,0.8-1.1,1.3-2.1,1.7c-1,0.4-2,0.6-3.1,0.6c-1.8,0-3.4-0.4-4.4-1.1
			C189.2,67,188.6,65.7,188.4,64.1z"/>
		<path d="M213.5,63.9l2.5,0.3c-0.4,1.6-1.1,2.7-2.3,3.5s-2.5,1.3-4.2,1.3c-2.1,0-3.8-0.7-5.1-2c-1.3-1.3-1.8-3.1-1.8-5.5
			c0-2.4,0.6-4.4,1.8-5.8c1.3-1.4,3-2,5-2c2,0,3.5,0.7,4.8,2c1.3,1.3,1.8,3.3,1.8,5.7c0,0.1,0,0.4,0,0.7h-10.9
			c0.1,1.6,0.6,2.8,1.4,3.7c0.8,0.8,1.8,1.3,3.1,1.3c0.8,0,1.7-0.3,2.4-0.7C212.7,65.7,213.1,64.9,213.5,63.9z M205.3,59.8h8.2
			c-0.1-1.3-0.4-2.1-1-2.8c-0.8-1-1.8-1.4-3.1-1.4c-1.1,0-2.1,0.4-2.8,1.1C205.9,57.5,205.5,58.5,205.3,59.8z"/>
		<path d="M218.2,64.1l2.4-0.4c0.1,1,0.6,1.7,1.1,2.3c0.6,0.6,1.6,0.8,2.7,0.8c1.1,0,2-0.3,2.5-0.7c0.6-0.4,0.8-1,0.8-1.7
			c0-0.6-0.3-1-0.7-1.3c-0.3-0.3-1.1-0.6-2.5-0.8c-1.8-0.4-3.1-0.8-3.8-1.1c-0.7-0.3-1.3-0.8-1.6-1.4s-0.6-1.3-0.6-2
			c0-0.7,0.1-1.3,0.4-1.8c0.3-0.6,0.7-1,1.3-1.4c0.4-0.3,0.8-0.6,1.6-0.7c0.7-0.1,1.4-0.3,2.1-0.3c1.1,0,2.1,0.1,3,0.6
			c0.8,0.4,1.6,0.8,2,1.4c0.4,0.6,0.7,1.3,0.8,2.3l-2.4,0.3c-0.1-0.7-0.4-1.4-1-1.7c-0.6-0.4-1.3-0.6-2.3-0.6c-1.1,0-2,0.1-2.4,0.6
			s-0.7,0.8-0.7,1.3c0,0.3,0.1,0.6,0.3,0.8s0.6,0.4,1,0.7c0.3,0.1,1,0.3,2.3,0.6c1.7,0.4,3,0.8,3.7,1.1c0.7,0.3,1.3,0.7,1.7,1.3
			s0.6,1.3,0.6,2.1c0,0.8-0.3,1.6-0.7,2.4c-0.4,0.8-1.1,1.3-2.1,1.7c-1,0.4-2,0.6-3.1,0.6c-1.8,0-3.4-0.4-4.4-1.1
			C219.2,67,218.5,65.7,218.2,64.1z"/>
		<path d="M250.8,66.7c-1,0.8-1.8,1.3-2.7,1.7c-0.8,0.3-1.7,0.4-2.7,0.4c-1.6,0-2.8-0.4-3.7-1.1c-0.8-0.7-1.3-1.8-1.3-3
			c0-0.7,0.1-1.4,0.4-2c0.3-0.6,0.7-1.1,1.3-1.4s1.1-0.6,1.8-0.8c0.4-0.1,1.3-0.3,2.3-0.4c2-0.3,3.5-0.6,4.4-0.8c0-0.3,0-0.6,0-0.7
			c0-1-0.3-1.7-0.7-2.1c-0.6-0.6-1.6-0.8-2.8-0.8c-1.1,0-2,0.1-2.5,0.6c-0.6,0.4-1,1.1-1.3,2.1l-2.4-0.3c0.3-1,0.6-1.8,1.1-2.5
			c0.6-0.7,1.3-1.1,2.3-1.4c1-0.3,2.1-0.6,3.4-0.6c1.3,0,2.3,0.1,3.1,0.4c0.8,0.3,1.4,0.7,1.7,1.1c0.4,0.4,0.6,1,0.7,1.7
			c0.1,0.4,0.1,1.1,0.1,2.3v3.3c0,2.3,0,3.8,0.1,4.4s0.3,1.1,0.6,1.7h-2.5C251,68.1,250.9,67.4,250.8,66.7z M250.6,61.2
			c-0.8,0.4-2.3,0.7-4.1,1c-1,0.1-1.7,0.3-2.1,0.6c-0.4,0.1-0.7,0.4-1,0.8c-0.3,0.4-0.3,0.7-0.3,1.1c0,0.7,0.3,1.3,0.7,1.7
			c0.4,0.4,1.3,0.7,2.3,0.7c1,0,1.8-0.1,2.5-0.6s1.3-1,1.7-1.7c0.3-0.6,0.4-1.4,0.4-2.5v-1.1H250.6z"/>
		<path d="M263.9,64.1l2.4-0.4c0.1,1,0.6,1.7,1.1,2.3c0.6,0.6,1.6,0.8,2.7,0.8s2-0.3,2.5-0.7s0.8-1,0.8-1.7c0-0.6-0.3-1-0.7-1.3
			c-0.3-0.3-1.1-0.6-2.5-0.8c-1.8-0.4-3.1-0.8-3.8-1.1c-0.7-0.3-1.3-0.8-1.6-1.4s-0.6-1.3-0.6-2c0-0.7,0.1-1.3,0.4-1.8
			c0.3-0.6,0.7-1,1.3-1.4c0.4-0.3,0.8-0.6,1.6-0.7c0.7-0.1,1.4-0.3,2.1-0.3c1.1,0,2.1,0.1,3,0.6c0.8,0.4,1.6,0.8,2,1.4
			c0.4,0.6,0.7,1.3,0.8,2.3l-2.4,0.3c-0.1-0.7-0.4-1.4-1-1.7c-0.6-0.4-1.3-0.6-2.3-0.6c-1.1,0-2,0.1-2.4,0.6s-0.7,0.8-0.7,1.3
			c0,0.3,0.1,0.6,0.3,0.8c0.1,0.3,0.6,0.4,1,0.7c0.3,0.1,1,0.3,2.3,0.6c1.7,0.4,3,0.8,3.7,1.1c0.7,0.3,1.3,0.7,1.7,1.3
			s0.6,1.3,0.6,2.1c0,0.8-0.3,1.6-0.7,2.4c-0.4,0.8-1.1,1.3-2.1,1.7c-1,0.4-2,0.6-3.1,0.6c-1.8,0-3.4-0.4-4.4-1.1
			C264.8,67,264.1,65.7,263.9,64.1z"/>
		<path d="M289.1,63.9l2.5,0.3c-0.4,1.6-1.1,2.7-2.3,3.5c-1.1,0.8-2.5,1.3-4.2,1.3c-2.1,0-3.8-0.7-5.1-2c-1.3-1.3-1.8-3.1-1.8-5.5
			c0-2.4,0.6-4.4,1.8-5.8c1.3-1.4,3-2,5-2s3.5,0.7,4.8,2c1.3,1.3,1.8,3.3,1.8,5.7c0,0.1,0,0.4,0,0.7h-10.9c0.1,1.6,0.6,2.8,1.4,3.7
			c0.8,0.8,1.8,1.3,3.1,1.3c0.8,0,1.7-0.3,2.4-0.7C288.1,65.7,288.7,64.9,289.1,63.9z M280.9,59.8h8.2c-0.1-1.3-0.4-2.1-1-2.8
			c-0.8-1-1.8-1.4-3.1-1.4c-1.1,0-2.1,0.4-2.8,1.1C281.3,57.5,280.9,58.5,280.9,59.8z"/>
		<path d="M304.2,63.2l2.4,0.3c-0.3,1.7-1,3-2.1,4c-1.1,1-2.4,1.4-4.1,1.4c-2,0-3.7-0.7-4.8-2c-1.1-1.3-1.8-3.3-1.8-5.7
			c0-1.6,0.3-3,0.8-4.1c0.6-1.1,1.3-2.1,2.4-2.7c1.1-0.6,2.3-0.8,3.5-0.8c1.6,0,2.8,0.4,4,1.3c1,0.8,1.7,2,2,3.4l-2.4,0.4
			c-0.3-1-0.7-1.7-1.3-2.3c-0.6-0.6-1.3-0.7-2.1-0.7c-1.3,0-2.3,0.4-3.1,1.4c-0.8,1-1.1,2.3-1.1,4.2c0,2,0.4,3.4,1.1,4.2
			c0.7,0.8,1.7,1.3,3,1.3c1,0,1.8-0.3,2.4-0.8C303.7,65.4,304.1,64.4,304.2,63.2z"/>
		<path d="M308.9,68.5V53.8h2.3v2.3c0.6-1,1.1-1.7,1.6-2.1c0.4-0.4,1-0.6,1.6-0.6c0.8,0,1.7,0.3,2.5,0.8l-0.8,2.3
			c-0.6-0.4-1.3-0.6-1.8-0.6c-0.6,0-1,0.1-1.4,0.4c-0.4,0.3-0.7,0.8-1,1.4c-0.3,0.8-0.4,1.8-0.4,3v7.6h-2.4V68.5z"/>
		<path d="M328.3,63.9l2.5,0.3c-0.4,1.6-1.1,2.7-2.3,3.5c-1.1,0.8-2.5,1.3-4.2,1.3c-2.1,0-3.8-0.7-5.1-2c-1.3-1.3-1.8-3.1-1.8-5.5
			c0-2.4,0.6-4.4,1.8-5.8c1.3-1.4,3-2,5-2c2,0,3.5,0.7,4.8,2c1.3,1.3,1.8,3.3,1.8,5.7c0,0.1,0,0.4,0,0.7H320
			c0.1,1.6,0.6,2.8,1.4,3.7s1.8,1.3,3.1,1.3c0.8,0,1.7-0.3,2.4-0.7C327.5,65.7,328,64.9,328.3,63.9z M320.2,59.8h8.2
			c-0.1-1.3-0.4-2.1-1-2.8c-0.8-1-1.8-1.4-3.1-1.4c-1.1,0-2.1,0.4-2.8,1.1C320.7,57.5,320.2,58.5,320.2,59.8z"/>
		<path d="M339.5,66.3l0.4,2.3c-0.7,0.1-1.3,0.3-1.8,0.3c-0.8,0-1.6-0.1-2.1-0.4c-0.6-0.3-0.8-0.7-1-1.1c-0.1-0.4-0.3-1.4-0.3-3
			v-8.5h-1.8v-2h1.8v-3.7l2.4-1.6v5.1h2.5v2h-2.5v8.6c0,0.7,0,1.1,0.1,1.4c0.1,0.1,0.3,0.4,0.4,0.4c0.1,0.1,0.4,0.1,0.8,0.1
			C338.6,66.4,339.1,66.4,339.5,66.3z"/>
		<path d="M349.8,68.5V48.3h2.5v11.6l5.9-5.9h3.3l-5.7,5.4l6.2,9.2H359l-4.8-7.5l-1.7,1.7v5.8H349.8z"/>
		<path d="M374,63.9l2.5,0.3c-0.4,1.6-1.1,2.7-2.3,3.5S371.7,69,370,69c-2.1,0-3.8-0.7-5.1-2c-1.3-1.3-1.8-3.1-1.8-5.5
			c0-2.4,0.6-4.4,1.8-5.8c1.3-1.4,3-2,5-2s3.5,0.7,4.8,2c1.3,1.3,1.8,3.3,1.8,5.7c0,0.1,0,0.4,0,0.7h-10.9c0.1,1.6,0.6,2.8,1.4,3.7
			s1.8,1.3,3.1,1.3c0.8,0,1.7-0.3,2.4-0.7C373,65.7,373.6,64.9,374,63.9z M365.8,59.8h8.2c-0.1-1.3-0.4-2.1-1-2.8
			c-0.8-1-1.8-1.4-3.1-1.4c-1.1,0-2.1,0.4-2.8,1.1C366.4,57.5,365.9,58.5,365.8,59.8z"/>
		<path d="M379.5,74.2l-0.3-2.4c0.6,0.1,1,0.3,1.4,0.3c0.6,0,1-0.1,1.3-0.3c0.3-0.1,0.6-0.4,0.8-0.7c0.1-0.3,0.4-0.8,0.7-1.8
			c0-0.1,0.1-0.3,0.3-0.6L378.3,54h2.7l3.1,8.5c0.4,1.1,0.7,2.3,1.1,3.4c0.3-1.1,0.6-2.3,1-3.4l3.1-8.5h2.5l-5.7,14.9
			c-0.6,1.6-1.1,2.7-1.4,3.4c-0.4,0.8-1,1.4-1.6,1.8c-0.6,0.4-1.3,0.6-2,0.6C380.7,74.5,380.1,74.5,379.5,74.2z"/>
		<path d="M401.7,68.5V48.3h2.5v11.6l5.9-5.9h3.3l-5.7,5.4l6.2,9.2h-3.1l-4.8-7.5l-1.7,1.7v5.8H401.7z"/>
		<path d="M415.9,68.5V53.8h2.3v2.1c1.1-1.6,2.7-2.4,4.7-2.4c0.8,0,1.7,0.1,2.4,0.4c0.7,0.3,1.3,0.7,1.7,1.3
			c0.4,0.6,0.6,1.1,0.7,1.8c0.1,0.4,0.1,1.3,0.1,2.4v9.1h-2.5v-8.9c0-1-0.1-1.8-0.3-2.3c-0.1-0.6-0.6-0.8-1-1.1
			c-0.4-0.3-1.1-0.4-1.7-0.4c-1,0-2,0.3-2.7,1c-0.7,0.7-1.1,2-1.1,3.8v8.1h-2.5V68.5z"/>
		<path d="M430.6,61.2c0-2.7,0.7-4.7,2.3-6.1c1.3-1.1,2.8-1.7,4.7-1.7c2,0,3.7,0.7,5,2c1.3,1.3,2,3.1,2,5.5c0,1.8-0.3,3.4-0.8,4.4
			c-0.6,1.1-1.4,2-2.4,2.5c-1.1,0.6-2.3,0.8-3.5,0.8c-2.1,0-3.7-0.7-5-2C431.3,65.6,430.6,63.7,430.6,61.2z M433.2,61.2
			c0,1.8,0.4,3.3,1.3,4.2c0.8,1,1.8,1.4,3.1,1.4c1.3,0,2.3-0.4,3.1-1.4s1.3-2.4,1.3-4.2c0-1.8-0.4-3.3-1.3-4.1
			c-0.8-1-1.8-1.4-3.1-1.4c-1.3,0-2.3,0.4-3.1,1.4C433.6,57.9,433.2,59.3,433.2,61.2z"/>
		<path d="M450,68.5l-4.5-14.7h2.5l2.4,8.5l0.8,3.1c0-0.1,0.3-1.1,0.7-3l2.4-8.6h2.5l2.3,8.5l0.7,2.8l0.8-2.8l2.5-8.5h2.4l-4.5,14.7
			h-2.5l-2.4-8.8l-0.6-2.5l-3,11.3H450z"/>
		<path d="M467.7,68.5V53.8h2.3v2.1c1.1-1.6,2.7-2.4,4.7-2.4c0.8,0,1.7,0.1,2.4,0.4c0.7,0.3,1.3,0.7,1.7,1.3
			c0.4,0.6,0.6,1.1,0.7,1.8c0.1,0.4,0.1,1.3,0.1,2.4v9.1H477v-8.9c0-1-0.1-1.8-0.3-2.3c-0.1-0.6-0.6-0.8-1-1.1
			c-0.4-0.3-1.1-0.4-1.7-0.4c-1,0-2,0.3-2.7,1c-0.7,0.7-1.1,2-1.1,3.8v8.1h-2.5V68.5z"/>
		<path d="M490.5,61.2c0-2.7,0.7-4.7,2.3-6.1c1.3-1.1,2.8-1.7,4.7-1.7c2,0,3.7,0.7,5,2c1.3,1.3,2,3.1,2,5.5c0,1.8-0.3,3.4-0.8,4.4
			c-0.6,1.1-1.4,2-2.4,2.5c-1.1,0.6-2.3,0.8-3.5,0.8c-2.1,0-3.7-0.7-5-2C491,65.6,490.5,63.7,490.5,61.2z M493,61.2
			c0,1.8,0.4,3.3,1.3,4.2s1.8,1.4,3.1,1.4c1.3,0,2.3-0.4,3.1-1.4c0.8-1,1.3-2.4,1.3-4.2c0-1.8-0.4-3.3-1.3-4.1
			c-0.8-1-1.8-1.4-3.1-1.4c-1.3,0-2.3,0.4-3.1,1.4C493.4,57.9,493,59.3,493,61.2z"/>
		<path d="M507,68.5V53.8h2.3v2.1c1.1-1.6,2.7-2.4,4.7-2.4c0.8,0,1.7,0.1,2.4,0.4c0.7,0.3,1.3,0.7,1.7,1.3c0.4,0.6,0.6,1.1,0.7,1.8
			c0.1,0.4,0.1,1.3,0.1,2.4v9.1h-2.5v-8.9c0-1-0.1-1.8-0.3-2.3c-0.1-0.6-0.6-0.8-1-1.1c-0.4-0.3-1.1-0.4-1.7-0.4c-1,0-2,0.3-2.7,1
			s-1.1,2-1.1,3.8v8.1H507V68.5z"/>
		<path d="M522.7,68.5V48.3h2.5v20.2H522.7z"/>
		<path d="M528.9,74.2l-0.3-2.4c0.6,0.1,1,0.3,1.4,0.3c0.6,0,1-0.1,1.3-0.3c0.3-0.1,0.6-0.4,0.8-0.7c0.1-0.3,0.4-0.8,0.7-1.8
			c0-0.1,0.1-0.3,0.3-0.6l-5.5-14.9h2.7l3.1,8.5c0.4,1.1,0.7,2.3,1.1,3.4c0.3-1.1,0.6-2.3,1-3.4l3.1-8.5h2.5l-5.5,14.9
			c-0.6,1.6-1.1,2.7-1.4,3.4c-0.4,0.8-1,1.4-1.6,1.8c-0.6,0.4-1.3,0.6-2,0.6C530.1,74.5,529.7,74.5,528.9,74.2z"/>
		<path d="M556.5,66.3l0.4,2.3c-0.7,0.1-1.3,0.3-1.8,0.3c-0.8,0-1.6-0.1-2.1-0.4c-0.6-0.3-0.8-0.7-1-1.1c-0.1-0.4-0.3-1.4-0.3-3
			v-8.5h-1.8v-2h1.8v-3.7l2.4-1.6v5.1h2.5v2h-2.5v8.6c0,0.7,0,1.1,0.1,1.4c0.1,0.1,0.3,0.4,0.4,0.4c0.1,0.1,0.4,0.1,0.8,0.1
			C555.7,66.4,556.1,66.4,556.5,66.3z"/>
		<path d="M558.1,61.2c0-2.7,0.7-4.7,2.3-6.1c1.3-1.1,2.8-1.7,4.7-1.7c2,0,3.7,0.7,5,2s2,3.1,2,5.5c0,1.8-0.3,3.4-0.8,4.4
			c-0.6,1.1-1.4,2-2.4,2.5c-1.1,0.6-2.3,0.8-3.5,0.8c-2.1,0-3.7-0.7-5-2C558.7,65.6,558.1,63.7,558.1,61.2z M560.6,61.2
			c0,1.8,0.4,3.3,1.3,4.2s1.8,1.4,3.1,1.4c1.3,0,2.3-0.4,3.1-1.4c0.8-1,1.3-2.4,1.3-4.2c0-1.8-0.4-3.3-1.3-4.1
			c-0.8-1-1.8-1.4-3.1-1.4s-2.3,0.4-3.1,1.4C561.1,57.9,560.6,59.3,560.6,61.2z"/>
		<path d="M588,66.3l0.4,2.3c-0.7,0.1-1.3,0.3-1.8,0.3c-0.8,0-1.6-0.1-2.1-0.4c-0.6-0.3-0.8-0.7-1-1.1c-0.1-0.4-0.3-1.4-0.3-3v-8.5
			h-1.8v-2h1.8v-3.7l2.4-1.6v5.1h2.5v2h-2.5v8.6c0,0.7,0,1.1,0.1,1.4c0.1,0.1,0.3,0.4,0.4,0.4c0.1,0.1,0.4,0.1,0.8,0.1
			C587.2,66.4,587.5,66.4,588,66.3z"/>
		<path d="M590.5,68.5V48.3h2.5v7.2c1.1-1.4,2.7-2,4.4-2c1.1,0,2,0.3,2.8,0.7c0.8,0.4,1.4,1,1.7,1.8c0.3,0.7,0.6,1.8,0.6,3.3v9.3
			H600v-9.5c0-1.3-0.3-2.1-0.8-2.7c-0.6-0.6-1.3-0.8-2.3-0.8c-0.7,0-1.4,0.1-2.1,0.6c-0.7,0.4-1.1,0.8-1.4,1.6s-0.4,1.6-0.4,2.7v8.1
			L590.5,68.5z"/>
		<path d="M616.3,63.9l2.5,0.3c-0.4,1.6-1.1,2.7-2.3,3.5S614,69,612.3,69c-2.1,0-3.8-0.7-5.1-2c-1.3-1.3-1.8-3.1-1.8-5.5
			c0-2.4,0.6-4.4,1.8-5.8c1.3-1.4,3-2,5-2c2,0,3.5,0.7,4.8,2c1.3,1.3,1.8,3.3,1.8,5.7c0,0.1,0,0.4,0,0.7h-10.9
			c0.1,1.6,0.6,2.8,1.4,3.7s1.8,1.3,3.1,1.3c0.8,0,1.7-0.3,2.4-0.7C615.4,65.7,615.8,64.9,616.3,63.9z M608,59.8h8.2
			c-0.1-1.3-0.4-2.1-1-2.8c-0.8-1-1.8-1.4-3.1-1.4c-1.1,0-2.1,0.4-2.8,1.1C608.6,57.5,608.2,58.5,608,59.8z"/>
		<path d="M639.3,63.2l2.4,0.3c-0.3,1.7-1,3-2.1,4c-1.1,1-2.4,1.4-4.1,1.4c-2,0-3.7-0.7-4.8-2c-1.1-1.3-1.8-3.3-1.8-5.7
			c0-1.6,0.3-3,0.8-4.1c0.6-1.1,1.3-2.1,2.4-2.7c1.1-0.6,2.3-0.8,3.5-0.8c1.6,0,2.8,0.4,4,1.3c1,0.8,1.7,2,2,3.4l-2.4,0.4
			c-0.3-1-0.7-1.7-1.3-2.3c-0.6-0.6-1.3-0.7-2.1-0.7c-1.3,0-2.3,0.4-3.1,1.4c-0.8,1-1.1,2.3-1.1,4.2c0,2,0.4,3.4,1.1,4.2
			s1.7,1.3,3,1.3c1,0,1.8-0.3,2.4-0.8C638.8,65.4,639.2,64.4,639.3,63.2z"/>
		<path d="M643.8,68.5V48.3h2.5v20.2H643.8z"/>
		<path d="M650.2,51.1v-2.8h2.5v2.8H650.2z M650.2,68.5V53.8h2.5v14.7H650.2z"/>
		<path d="M666.6,63.9l2.5,0.3c-0.4,1.6-1.1,2.7-2.3,3.5s-2.5,1.3-4.2,1.3c-2.1,0-3.8-0.7-5.1-2c-1.3-1.3-1.8-3.1-1.8-5.5
			c0-2.4,0.6-4.4,1.8-5.8c1.3-1.4,3-2,5-2c2,0,3.5,0.7,4.8,2c1.3,1.3,1.8,3.3,1.8,5.7c0,0.1,0,0.4,0,0.7h-10.9
			c0.1,1.6,0.6,2.8,1.4,3.7s1.8,1.3,3.1,1.3c0.8,0,1.7-0.3,2.4-0.7C665.6,65.7,666.2,64.9,666.6,63.9z M658.4,59.8h8.2
			c-0.1-1.3-0.4-2.1-1-2.8c-0.8-1-1.8-1.4-3.1-1.4c-1.1,0-2.1,0.4-2.8,1.1C658.8,57.5,658.4,58.5,658.4,59.8z"/>
		<path d="M672.3,68.5V53.8h2.3v2.1c1.1-1.6,2.7-2.4,4.7-2.4c0.8,0,1.7,0.1,2.4,0.4c0.7,0.3,1.3,0.7,1.7,1.3
			c0.4,0.6,0.6,1.1,0.7,1.8c0.1,0.4,0.1,1.3,0.1,2.4v9.1h-2.5v-8.9c0-1-0.1-1.8-0.3-2.3c-0.1-0.6-0.6-0.8-1-1.1
			c-0.4-0.3-1.1-0.4-1.7-0.4c-1,0-2,0.3-2.7,1s-1.1,2-1.1,3.8v8.1h-2.5V68.5z"/>
		<path d="M693.4,66.3l0.4,2.3c-0.7,0.1-1.3,0.3-1.8,0.3c-0.8,0-1.6-0.1-2.1-0.4c-0.6-0.3-0.8-0.7-1-1.1c-0.1-0.4-0.3-1.4-0.3-3
			v-8.5h-1.8v-2h1.8v-3.7l2.4-1.6v5.1h2.5v2H691v8.6c0,0.7,0,1.1,0.1,1.4c0.1,0.1,0.3,0.4,0.4,0.4c0.1,0.1,0.4,0.1,0.8,0.1
			C692.7,66.4,692.9,66.4,693.4,66.3z"/>
		<path d="M713.3,66.7c-1,0.8-1.8,1.3-2.7,1.7c-0.8,0.3-1.7,0.4-2.7,0.4c-1.6,0-2.8-0.4-3.7-1.1c-0.8-0.7-1.3-1.8-1.3-3
			c0-0.7,0.1-1.4,0.4-2s0.7-1.1,1.3-1.4s1.1-0.6,1.8-0.8c0.4-0.1,1.3-0.3,2.3-0.4c2-0.3,3.5-0.6,4.4-0.8c0-0.3,0-0.6,0-0.7
			c0-1-0.3-1.7-0.7-2.1c-0.6-0.6-1.6-0.8-2.8-0.8c-1.1,0-2,0.1-2.5,0.6c-0.6,0.4-1,1.1-1.3,2.1l-2.4-0.3c0.3-1,0.6-1.8,1.1-2.5
			s1.3-1.1,2.3-1.4c1-0.3,2.1-0.6,3.4-0.6s2.3,0.1,3.1,0.4c0.8,0.3,1.4,0.7,1.7,1.1c0.4,0.4,0.6,1,0.7,1.7c0.1,0.4,0.1,1.1,0.1,2.3
			v3.3c0,2.3,0,3.8,0.1,4.4c0.1,0.6,0.3,1.1,0.6,1.7H714C713.5,68.1,713.3,67.4,713.3,66.7z M713,61.2c-0.8,0.4-2.3,0.7-4.1,1
			c-1,0.1-1.7,0.3-2.1,0.6c-0.4,0.1-0.7,0.4-1,0.8c-0.3,0.4-0.3,0.7-0.3,1.1c0,0.7,0.3,1.3,0.7,1.7s1.3,0.7,2.3,0.7
			c1,0,1.8-0.1,2.5-0.6s1.3-1,1.7-1.7c0.3-0.6,0.4-1.4,0.4-2.5v-1.1H713z"/>
		<path d="M719.4,68.5V53.8h2.3v2.1c1.1-1.6,2.7-2.4,4.7-2.4c0.8,0,1.7,0.1,2.4,0.4c0.7,0.3,1.3,0.7,1.7,1.3
			c0.4,0.6,0.6,1.1,0.7,1.8c0.1,0.4,0.1,1.3,0.1,2.4v9.1h-2.5v-8.9c0-1-0.1-1.8-0.3-2.3c-0.1-0.6-0.6-0.8-1-1.1
			c-0.4-0.3-1.1-0.4-1.7-0.4c-1,0-2,0.3-2.7,1s-1.1,2-1.1,3.8v8.1h-2.5V68.5z"/>
		<path d="M744.7,68.5v-1.8c-1,1.4-2.3,2.1-4.1,2.1c-1.1,0-2.3-0.3-3.3-1c-1-0.7-1.7-1.6-2.3-2.7c-0.6-1.1-0.8-2.5-0.8-4
			s0.3-2.8,0.7-4s1.3-2.1,2.3-2.7c1-0.6,2.1-1,3.3-1c0.8,0,1.7,0.1,2.4,0.6c0.7,0.4,1.3,0.8,1.7,1.4v-7.2h2.4v20.2H744.7z
			 M736.8,61.2c0,1.8,0.4,3.3,1.1,4.2c0.8,1,1.7,1.4,2.8,1.4c1.1,0,2-0.4,2.8-1.3c0.7-0.8,1.1-2.3,1.1-4.1c0-2-0.4-3.5-1.1-4.4
			c-0.7-0.8-1.7-1.4-2.8-1.4c-1.1,0-2,0.4-2.8,1.4C737.2,57.9,736.8,59.3,736.8,61.2z"/>
		<path d="M81.4,98.1l2.4-0.4c0.1,1,0.6,1.7,1.1,2.3c0.6,0.6,1.6,0.8,2.7,0.8c1.1,0,2-0.3,2.5-0.7c0.6-0.4,0.8-1,0.8-1.7
			c0-0.6-0.3-1-0.7-1.3c-0.3-0.3-1.1-0.6-2.5-0.8c-1.8-0.4-3.1-0.8-3.8-1.1c-0.7-0.3-1.3-0.8-1.6-1.4s-0.6-1.3-0.6-2
			c0-0.7,0.1-1.3,0.4-1.8c0.3-0.6,0.7-1,1.3-1.4c0.4-0.3,0.8-0.6,1.6-0.7c0.7-0.1,1.4-0.3,2.1-0.3c1.1,0,2.1,0.1,3,0.6
			c0.8,0.4,1.6,0.8,2,1.4s0.7,1.3,0.8,2.3L90.6,92c-0.1-0.7-0.4-1.4-1-1.7c-0.6-0.4-1.3-0.6-2.3-0.6c-1.1,0-2,0.1-2.4,0.6
			c-0.4,0.4-0.7,0.8-0.7,1.3c0,0.3,0.1,0.6,0.3,0.8c0.1,0.3,0.6,0.4,1,0.7c0.3,0.1,1,0.3,2.3,0.6c1.7,0.4,3,0.8,3.7,1.1
			c0.7,0.3,1.3,0.7,1.7,1.3s0.6,1.3,0.6,2.1s-0.3,1.6-0.7,2.4c-0.4,0.8-1.1,1.3-2.1,1.7c-1,0.4-2,0.6-3.1,0.6
			c-1.8,0-3.4-0.4-4.4-1.1C82.4,100.9,81.7,99.7,81.4,98.1z"/>
		<path d="M106.6,97.8l2.5,0.3c-0.4,1.6-1.1,2.7-2.3,3.5c-1.1,0.8-2.5,1.3-4.2,1.3c-2.1,0-3.8-0.7-5.1-2c-1.3-1.3-1.8-3.1-1.8-5.5
			c0-2.4,0.6-4.4,1.8-5.8c1.3-1.4,3-2,5-2s3.5,0.7,4.8,2c1.3,1.3,1.8,3.3,1.8,5.7c0,0.1,0,0.4,0,0.7H98.2c0.1,1.6,0.6,2.8,1.4,3.7
			s1.8,1.3,3.1,1.3c0.8,0,1.7-0.3,2.4-0.7C105.7,99.7,106.3,98.8,106.6,97.8z M98.5,93.7h8.2c-0.1-1.3-0.4-2.1-1-2.8
			c-0.8-1-1.8-1.4-3.1-1.4c-1.1,0-2.1,0.4-2.8,1.1C98.9,91.5,98.5,92.4,98.5,93.7z"/>
		<path d="M112.2,102.5V87.8h2.3V90c0.6-1,1.1-1.7,1.6-2.1c0.4-0.4,1-0.6,1.6-0.6c0.8,0,1.7,0.3,2.5,0.8l-0.8,2.3
			c-0.6-0.4-1.3-0.6-1.8-0.6s-1,0.1-1.4,0.4c-0.4,0.3-0.7,0.8-1,1.4c-0.3,0.8-0.4,1.8-0.4,3v7.6h-2.4V102.5z"/>
		<path d="M125.8,102.5l-5.7-14.7h2.7l3.1,8.8c0.3,1,0.7,2,1,3c0.3-0.7,0.6-1.7,1-2.8l3.3-8.9h2.5l-5.5,14.7H125.8z"/>
		<path d="M145.9,97.8l2.5,0.3c-0.4,1.6-1.1,2.7-2.3,3.5c-1.1,0.8-2.5,1.3-4.2,1.3c-2.1,0-3.8-0.7-5.1-2c-1.3-1.3-1.8-3.1-1.8-5.5
			c0-2.4,0.6-4.4,1.8-5.8s3-2,5-2s3.5,0.7,4.8,2c1.3,1.3,1.8,3.3,1.8,5.7c0,0.1,0,0.4,0,0.7h-10.9c0.1,1.6,0.6,2.8,1.4,3.7
			s1.8,1.3,3.1,1.3c0.8,0,1.7-0.3,2.4-0.7C145.1,99.7,145.5,98.8,145.9,97.8z M137.7,93.7h8.2c-0.1-1.3-0.4-2.1-1-2.8
			c-0.8-1-1.8-1.4-3.1-1.4c-1.1,0-2.1,0.4-2.8,1.1C138.3,91.5,137.8,92.4,137.7,93.7z"/>
		<path d="M151.6,102.5V87.8h2.3V90c0.6-1,1.1-1.7,1.6-2.1c0.4-0.4,1-0.6,1.6-0.6c0.8,0,1.7,0.3,2.5,0.8l-0.8,2.3
			c-0.6-0.4-1.3-0.6-1.8-0.6c-0.6,0-1,0.1-1.4,0.4c-0.4,0.3-0.7,0.8-1,1.4c-0.3,0.8-0.4,1.8-0.4,3v7.6h-2.4V102.5z"/>
		<path d="M174.3,100.2l0.4,2.3c-0.7,0.1-1.3,0.3-1.8,0.3c-0.8,0-1.6-0.1-2.1-0.4c-0.6-0.3-0.8-0.7-1-1.1c-0.1-0.4-0.3-1.4-0.3-3
			v-8.5h-1.8v-2h1.8v-3.7l2.4-1.6v5.1h2.5v2h-2.5v8.6c0,0.7,0,1.1,0.1,1.4c0.1,0.1,0.3,0.4,0.4,0.4c0.1,0.1,0.4,0.1,0.8,0.1
			C173.5,100.4,173.9,100.4,174.3,100.2z"/>
		<path d="M175.9,95.1c0-2.7,0.7-4.7,2.3-6.1c1.3-1.1,2.8-1.7,4.7-1.7c2,0,3.7,0.7,5,2c1.3,1.3,2,3.1,2,5.5c0,1.8-0.3,3.4-0.8,4.4
			c-0.6,1.1-1.4,2-2.4,2.5c-1.1,0.6-2.3,0.8-3.5,0.8c-2.1,0-3.7-0.7-5-2C176.5,99.5,175.9,97.7,175.9,95.1z M178.5,95.1
			c0,1.8,0.4,3.3,1.3,4.2s1.8,1.4,3.1,1.4c1.3,0,2.3-0.4,3.1-1.4c0.8-1,1.3-2.4,1.3-4.2s-0.4-3.3-1.3-4.1c-0.8-1-1.8-1.4-3.1-1.4
			c-1.3,0-2.3,0.4-3.1,1.4C178.9,91.9,178.5,93.3,178.5,95.1z"/>
		<path d="M210,97.1l2.4,0.3c-0.3,1.7-1,3-2.1,4s-2.4,1.4-4.1,1.4c-2,0-3.7-0.7-4.8-2c-1.1-1.3-1.8-3.3-1.8-5.7c0-1.6,0.3-3,0.8-4.1
			c0.6-1.1,1.3-2.1,2.4-2.7c1.1-0.6,2.3-0.8,3.5-0.8c1.6,0,2.8,0.4,4,1.3c1,0.8,1.7,2,2,3.4l-2.4,0.4c-0.3-1-0.7-1.7-1.3-2.3
			c-0.6-0.6-1.3-0.7-2.1-0.7c-1.3,0-2.3,0.4-3.1,1.4s-1.1,2.3-1.1,4.2s0.4,3.4,1.1,4.2s1.7,1.3,3,1.3c1,0,1.8-0.3,2.4-0.8
			C209.3,99.4,209.7,98.4,210,97.1z"/>
		<path d="M213.5,95.1c0-2.7,0.7-4.7,2.3-6.1c1.3-1.1,2.8-1.7,4.7-1.7c2,0,3.7,0.7,5,2c1.3,1.3,2,3.1,2,5.5c0,1.8-0.3,3.4-0.8,4.4
			c-0.6,1.1-1.4,2-2.4,2.5c-1.1,0.6-2.3,0.8-3.5,0.8c-2.1,0-3.7-0.7-5-2C214.3,99.5,213.5,97.7,213.5,95.1z M216.1,95.1
			c0,1.8,0.4,3.3,1.3,4.2c0.8,1,1.8,1.4,3.1,1.4c1.3,0,2.3-0.4,3.1-1.4s1.3-2.4,1.3-4.2s-0.4-3.3-1.3-4.1c-0.8-1-1.8-1.4-3.1-1.4
			c-1.3,0-2.3,0.4-3.1,1.4C216.5,91.9,216.1,93.3,216.1,95.1z"/>
		<path d="M230.2,102.5V87.8h2.3v2.1c1.1-1.6,2.7-2.4,4.7-2.4c0.8,0,1.7,0.1,2.4,0.4c0.7,0.3,1.3,0.7,1.7,1.3
			c0.4,0.6,0.6,1.1,0.7,1.8c0.1,0.4,0.1,1.3,0.1,2.4v9.1h-2.5v-8.9c0-1-0.1-1.8-0.3-2.3c-0.1-0.6-0.6-0.8-1-1.1
			c-0.4-0.3-1.1-0.4-1.7-0.4c-1,0-2,0.3-2.7,1c-0.7,0.7-1.1,2-1.1,3.8v8.1h-2.5V102.5z"/>
		<path d="M245,98.1l2.4-0.4c0.1,1,0.6,1.7,1.1,2.3c0.6,0.6,1.6,0.8,2.7,0.8c1.1,0,2-0.3,2.5-0.7c0.6-0.4,0.8-1,0.8-1.7
			c0-0.6-0.3-1-0.7-1.3c-0.3-0.3-1.1-0.6-2.5-0.8c-1.8-0.4-3.1-0.8-3.8-1.1c-0.7-0.3-1.3-0.8-1.6-1.4c-0.3-0.6-0.6-1.3-0.6-2
			c0-0.7,0.1-1.3,0.4-1.8s0.7-1,1.3-1.4c0.4-0.3,0.8-0.6,1.6-0.7c0.7-0.1,1.4-0.3,2.1-0.3c1.1,0,2.1,0.1,3,0.6
			c0.8,0.4,1.6,0.8,2,1.4s0.7,1.3,0.8,2.3l-2.4,0.3c-0.1-0.7-0.4-1.4-1-1.7c-0.6-0.4-1.3-0.6-2.3-0.6c-1.1,0-2,0.1-2.4,0.6
			c-0.4,0.4-0.7,0.8-0.7,1.3c0,0.3,0.1,0.6,0.3,0.8c0.1,0.3,0.6,0.4,1,0.7c0.3,0.1,1,0.3,2.3,0.6c1.7,0.4,3,0.8,3.7,1.1
			c0.7,0.3,1.3,0.7,1.7,1.3s0.6,1.3,0.6,2.1s-0.3,1.6-0.7,2.4c-0.4,0.8-1.1,1.3-2.1,1.7c-1,0.4-2,0.6-3.1,0.6
			c-1.8,0-3.4-0.4-4.4-1.1C245.9,100.9,245.2,99.7,245,98.1z"/>
		<path d="M265.6,100.2l0.4,2.3c-0.7,0.1-1.3,0.3-1.8,0.3c-0.8,0-1.6-0.1-2.1-0.4c-0.6-0.3-0.8-0.7-1-1.1c-0.1-0.4-0.3-1.4-0.3-3
			v-8.5h-2v-2h1.8v-3.7l2.4-1.6v5.1h2.5v2h-2.5v8.6c0,0.7,0,1.1,0.1,1.4c0.1,0.1,0.3,0.4,0.4,0.4c0.1,0.1,0.4,0.1,0.8,0.1
			C264.8,100.4,265.2,100.4,265.6,100.2z"/>
		<path d="M268,102.5V87.8h2.3V90c0.6-1,1.1-1.7,1.6-2.1c0.4-0.4,1-0.6,1.6-0.6c0.8,0,1.7,0.3,2.5,0.8l-0.8,2.3
			c-0.6-0.4-1.3-0.6-1.8-0.6c-0.6,0-1,0.1-1.4,0.4c-0.4,0.3-0.7,0.8-1,1.4c-0.3,0.8-0.4,1.8-0.4,3v7.6H268V102.5z"/>
		<path d="M287,102.5v-2.1c-1.1,1.7-2.7,2.5-4.7,2.5c-0.8,0-1.7-0.1-2.4-0.6c-0.7-0.4-1.3-0.7-1.7-1.3s-0.6-1.1-0.7-1.8
			c-0.1-0.4-0.1-1.3-0.1-2.3v-9.1h2.5V96c0,1.3,0,2.1,0.1,2.7c0.1,0.7,0.4,1.1,1,1.6c0.6,0.4,1.1,0.6,1.8,0.6c0.7,0,1.4-0.1,2.1-0.6
			c0.7-0.4,1.1-0.8,1.4-1.6s0.4-1.6,0.4-2.8v-7.9h2.5v14.7H287V102.5z"/>
		<path d="M302.7,97.1l2.4,0.3c-0.3,1.7-1,3-2.1,4c-1.1,1-2.4,1.4-4.1,1.4c-2,0-3.7-0.7-4.8-2c-1.1-1.3-1.8-3.3-1.8-5.7
			c0-1.6,0.3-3,0.8-4.1s1.3-2.1,2.4-2.7c1.1-0.6,2.3-0.8,3.5-0.8c1.6,0,2.8,0.4,4,1.3c1,0.8,1.7,2,2,3.4l-2.4,0.4
			c-0.3-1-0.7-1.7-1.3-2.3c-0.6-0.6-1.3-0.7-2.1-0.7c-1.3,0-2.3,0.4-3.1,1.4c-0.8,1-1.1,2.3-1.1,4.2s0.4,3.4,1.1,4.2
			c0.7,0.8,1.7,1.3,3,1.3c1,0,1.8-0.3,2.4-0.8C302.1,99.4,302.5,98.4,302.7,97.1z"/>
		<path d="M312.7,100.2l0.4,2.3c-0.7,0.1-1.3,0.3-1.8,0.3c-0.8,0-1.6-0.1-2.1-0.4c-0.6-0.3-0.8-0.7-1-1.1c-0.1-0.4-0.3-1.4-0.3-3
			v-8.5h-1.8v-2h1.8v-3.7l2.4-1.6v5.1h2.5v2h-2.5v8.6c0,0.7,0,1.1,0.1,1.4c0.1,0.1,0.3,0.4,0.4,0.4c0.1,0.1,0.4,0.1,0.8,0.1
			C311.9,100.4,312.3,100.4,312.7,100.2z"/>
		<path d="M332.7,100.7c-1,0.8-1.8,1.3-2.7,1.7c-0.8,0.3-1.7,0.4-2.7,0.4c-1.6,0-2.8-0.4-3.7-1.1c-0.8-0.7-1.3-1.8-1.3-3
			c0-0.7,0.1-1.4,0.4-2c0.3-0.6,0.7-1.1,1.3-1.4c0.6-0.3,1.1-0.6,1.8-0.8c0.4-0.1,1.3-0.3,2.3-0.4c2-0.3,3.5-0.6,4.4-0.8
			c0-0.3,0-0.6,0-0.7c0-1-0.3-1.7-0.7-2.1c-0.6-0.6-1.6-0.8-2.8-0.8c-1.1,0-2,0.1-2.5,0.6c-0.6,0.4-1,1.1-1.3,2.1l-2.4-0.3
			c0.3-1,0.6-1.8,1.1-2.5c0.6-0.7,1.3-1.1,2.3-1.4c1-0.3,2.1-0.6,3.4-0.6c1.3,0,2.3,0.1,3.1,0.4c0.8,0.3,1.4,0.7,1.7,1.1
			c0.4,0.4,0.6,1,0.7,1.7c0.1,0.4,0.1,1.1,0.1,2.3v3.3c0,2.3,0,3.8,0.1,4.4s0.3,1.1,0.6,1.7h-2.5
			C332.8,102.1,332.7,101.4,332.7,100.7z M332.4,95.1c-0.8,0.4-2.3,0.7-4.1,1c-1,0.1-1.7,0.3-2.1,0.6c-0.4,0.1-0.7,0.4-1,0.8
			c-0.3,0.4-0.3,0.7-0.3,1.1c0,0.7,0.3,1.3,0.7,1.7s1.3,0.7,2.3,0.7c1,0,1.8-0.1,2.5-0.6s1.3-1,1.7-1.7c0.3-0.6,0.4-1.4,0.4-2.5
			v-1.1H332.4z"/>
		<path d="M346.7,102.5V87.8h2.3v2.1c0.4-0.7,1.1-1.3,1.8-1.7c0.7-0.4,1.7-0.7,2.5-0.7c1.1,0,2,0.3,2.7,0.7c0.7,0.4,1.1,1.1,1.4,1.8
			c1.1-1.7,2.7-2.5,4.5-2.5c1.4,0,2.5,0.4,3.4,1.3c0.8,0.8,1.1,2,1.1,3.7v10h-2.4v-9.2c0-1-0.1-1.7-0.3-2.1c-0.1-0.4-0.4-0.8-0.8-1
			c-0.4-0.3-1-0.4-1.6-0.4c-1,0-1.8,0.3-2.5,1s-1,1.8-1,3.3v8.5h-2.5V93c0-1.1-0.1-2-0.6-2.5c-0.4-0.6-1.1-0.8-2-0.8
			c-0.7,0-1.4,0.1-2,0.6c-0.6,0.4-1,0.8-1.3,1.6s-0.4,1.7-0.4,3.1v7.6L346.7,102.5z"/>
		<path d="M379.8,100.7c-1,0.8-1.8,1.3-2.7,1.7c-0.8,0.3-1.7,0.4-2.7,0.4c-1.6,0-2.8-0.4-3.7-1.1c-0.8-0.7-1.3-1.8-1.3-3
			c0-0.7,0.1-1.4,0.4-2c0.3-0.6,0.7-1.1,1.3-1.4c0.6-0.3,1.1-0.6,1.8-0.8c0.4-0.1,1.3-0.3,2.3-0.4c2-0.3,3.5-0.6,4.4-0.8
			c0-0.3,0-0.6,0-0.7c0-1-0.3-1.7-0.7-2.1c-0.6-0.6-1.6-0.8-2.8-0.8c-1.1,0-2,0.1-2.5,0.6c-0.6,0.4-1,1.1-1.3,2.1l-2.4-0.3
			c0.3-1,0.6-1.8,1.1-2.5c0.6-0.7,1.3-1.1,2.3-1.4c1-0.3,2.1-0.6,3.4-0.6s2.3,0.1,3.1,0.4c0.8,0.3,1.4,0.7,1.7,1.1
			c0.4,0.4,0.6,1,0.7,1.7c0.1,0.4,0.1,1.1,0.1,2.3v3.3c0,2.3,0,3.8,0.1,4.4c0.1,0.6,0.3,1.1,0.6,1.7h-2.5
			C380.1,102.1,379.8,101.4,379.8,100.7z M379.5,95.1c-0.8,0.4-2.3,0.7-4.1,1c-1,0.1-1.7,0.3-2.1,0.6c-0.4,0.1-0.7,0.4-1,0.8
			s-0.3,0.7-0.3,1.1c0,0.7,0.3,1.3,0.7,1.7c0.4,0.4,1.3,0.7,2.3,0.7c1,0,1.8-0.1,2.5-0.6s1.3-1,1.7-1.7c0.3-0.6,0.4-1.4,0.4-2.5
			v-1.1H379.5z"/>
		<path d="M391.4,100.2l0.4,2.3c-0.7,0.1-1.3,0.3-1.8,0.3c-0.8,0-1.6-0.1-2.1-0.4c-0.6-0.3-0.8-0.7-1-1.1s-0.3-1.4-0.3-3v-8.5h-1.8
			v-2h1.8v-3.7l2.4-1.6v5.1h2.5v2H389v8.6c0,0.7,0,1.1,0.1,1.4c0.1,0.1,0.3,0.4,0.4,0.4c0.1,0.1,0.4,0.1,0.8,0.1
			C390.6,100.4,391,100.4,391.4,100.2z"/>
		<path d="M403.4,97.1l2.4,0.3c-0.3,1.7-1,3-2.1,4s-2.4,1.4-4.1,1.4c-2,0-3.7-0.7-4.8-2c-1.1-1.3-1.8-3.3-1.8-5.7
			c0-1.6,0.3-3,0.8-4.1c0.6-1.1,1.3-2.1,2.4-2.7c1.1-0.6,2.3-0.8,3.5-0.8c1.6,0,2.8,0.4,4,1.3c1,0.8,1.7,2,2,3.4l-2.4,0.4
			c-0.3-1-0.7-1.7-1.3-2.3s-1.3-0.7-2.1-0.7c-1.3,0-2.3,0.4-3.1,1.4c-0.8,1-1.1,2.3-1.1,4.2s0.4,3.4,1.1,4.2c0.7,0.8,1.7,1.3,3,1.3
			c1,0,1.8-0.3,2.4-0.8C402.9,99.4,403.3,98.4,403.4,97.1z"/>
		<path d="M408,102.5V82.3h2.5v7.2c1.1-1.4,2.7-2,4.4-2c1.1,0,2,0.3,2.8,0.7s1.4,1,1.7,1.8c0.3,0.7,0.6,1.8,0.6,3.3v9.3h-2.5v-9.5
			c0-1.3-0.3-2.1-0.8-2.7c-0.6-0.6-1.3-0.8-2.3-0.8c-0.7,0-1.4,0.1-2.1,0.6c-0.7,0.4-1.1,0.8-1.4,1.6c-0.3,0.7-0.4,1.6-0.4,2.7v8.1
			L408,102.5z"/>
		<path d="M423.7,85.1v-2.8h2.5v2.8H423.7z M423.7,102.5V87.8h2.5v14.7H423.7z"/>
		<path d="M430,102.5V87.8h2.3v2.1c1.1-1.6,2.7-2.4,4.7-2.4c0.8,0,1.7,0.1,2.4,0.4c0.7,0.3,1.3,0.7,1.7,1.3c0.4,0.6,0.6,1.1,0.7,1.8
			c0.1,0.4,0.1,1.3,0.1,2.4v9.1h-2.5v-8.9c0-1-0.1-1.8-0.3-2.3c-0.1-0.6-0.6-0.8-1-1.1c-0.4-0.3-1.1-0.4-1.7-0.4c-1,0-2,0.3-2.7,1
			c-0.7,0.7-1.1,2-1.1,3.8v8.1H430V102.5z"/>
		<path d="M445.3,103.8l2.4,0.4c0.1,0.7,0.4,1.3,0.8,1.7c0.6,0.4,1.4,0.7,2.5,0.7s2-0.3,2.7-0.7c0.6-0.4,1-1.1,1.3-2
			c0.1-0.6,0.1-1.6,0.1-3.3c-1.1,1.3-2.4,2-4.1,2c-2,0-3.5-0.7-4.7-2.1c-1.1-1.4-1.7-3.3-1.7-5.2c0-1.4,0.3-2.7,0.7-3.8
			c0.6-1.1,1.3-2.1,2.3-2.7c1-0.7,2.1-1,3.4-1c1.7,0,3.1,0.7,4.2,2.1v-1.7h2.3v12.7c0,2.3-0.3,4-0.7,4.8c-0.4,0.8-1.1,1.7-2.3,2.3
			c-1.1,0.6-2.3,0.8-3.7,0.8c-1.7,0-3.1-0.4-4.2-1.1C445.6,107,445.2,105.3,445.3,103.8z M447.3,94.9c0,2,0.4,3.4,1.1,4.2
			c0.7,0.8,1.7,1.3,2.8,1.3s2.1-0.4,2.8-1.3c0.7-0.8,1.1-2.3,1.1-4.1s-0.4-3.1-1.1-4.1c-0.7-1-1.7-1.4-2.8-1.4s-2,0.4-2.8,1.4
			C447.6,91.9,447.3,93.2,447.3,94.9z"/>
		<path d="M468.4,98.1l2.4-0.4c0.1,1,0.6,1.7,1.1,2.3c0.6,0.6,1.6,0.8,2.7,0.8s2-0.3,2.5-0.7c0.6-0.4,0.8-1,0.8-1.7
			c0-0.6-0.3-1-0.7-1.3c-0.3-0.3-1.1-0.6-2.5-0.8c-1.8-0.4-3.1-0.8-3.8-1.1c-0.7-0.3-1.3-0.8-1.6-1.4s-0.6-1.3-0.6-2
			c0-0.7,0.1-1.3,0.4-1.8c0.3-0.6,0.7-1,1.3-1.4c0.4-0.3,0.8-0.6,1.6-0.7c0.7-0.1,1.4-0.3,2.1-0.3c1.1,0,2.1,0.1,3,0.6
			c0.8,0.4,1.6,0.8,2,1.4c0.4,0.6,0.7,1.3,0.8,2.3l-2.4,0.3c-0.1-0.7-0.4-1.4-1-1.7c-0.6-0.4-1.3-0.6-2.3-0.6c-1.1,0-2,0.1-2.4,0.6
			c-0.4,0.4-0.7,0.8-0.7,1.3c0,0.3,0.1,0.6,0.3,0.8s0.6,0.4,1,0.7c0.3,0.1,1,0.3,2.3,0.6c1.7,0.4,3,0.8,3.7,1.1
			c0.7,0.3,1.3,0.7,1.7,1.3c0.4,0.6,0.6,1.3,0.6,2.1s-0.3,1.6-0.7,2.4c-0.4,0.8-1.1,1.3-2.1,1.7c-1,0.4-2,0.6-3.1,0.6
			c-1.8,0-3.4-0.4-4.4-1.1C469.2,100.9,468.7,99.7,468.4,98.1z"/>
		<path d="M483.5,85.1v-2.8h2.5v2.8H483.5z M483.5,102.5V87.8h2.5v14.7H483.5z"/>
		<path d="M489.3,103.8l2.4,0.4c0.1,0.7,0.4,1.3,0.8,1.7c0.6,0.4,1.4,0.7,2.5,0.7s2-0.3,2.7-0.7c0.6-0.4,1-1.1,1.3-2
			c0.1-0.6,0.1-1.6,0.1-3.3c-1.1,1.3-2.4,2-4.1,2c-2,0-3.5-0.7-4.7-2.1c-1.1-1.4-1.7-3.3-1.7-5.2c0-1.4,0.3-2.7,0.7-3.8
			c0.6-1.1,1.3-2.1,2.3-2.7c1-0.7,2.1-1,3.4-1c1.7,0,3.1,0.7,4.2,2.1v-1.7h2.3v12.7c0,2.3-0.3,4-0.7,4.8s-1.1,1.7-2.3,2.3
			s-2.3,0.8-3.7,0.8c-1.7,0-3.1-0.4-4.2-1.1C489.6,107,489.3,105.3,489.3,103.8z M491.5,94.9c0,2,0.4,3.4,1.1,4.2
			c0.7,0.8,1.7,1.3,2.8,1.3c1.1,0,2.1-0.4,2.8-1.3s1.1-2.3,1.1-4.1s-0.4-3.1-1.1-4.1s-1.7-1.4-2.8-1.4c-1.1,0-2,0.4-2.8,1.4
			C491.7,91.9,491.5,93.2,491.5,94.9z"/>
		<path d="M505.5,102.5V87.8h2.3v2.1c1.1-1.6,2.7-2.4,4.7-2.4c0.8,0,1.7,0.1,2.4,0.4c0.7,0.3,1.3,0.7,1.7,1.3s0.6,1.1,0.7,1.8
			c0.1,0.4,0.1,1.3,0.1,2.4v9.1h-2.4v-8.9c0-1-0.1-1.8-0.3-2.3c-0.1-0.6-0.6-0.8-1-1.1c-0.4-0.3-1.1-0.4-1.7-0.4c-1,0-2,0.3-2.7,1
			c-0.7,0.7-1.1,2-1.1,3.8v8.1h-2.7V102.5z"/>
		<path d="M530.8,100.7c-1,0.8-1.8,1.3-2.7,1.7c-0.8,0.3-1.7,0.4-2.7,0.4c-1.6,0-2.8-0.4-3.7-1.1c-0.8-0.7-1.3-1.8-1.3-3
			c0-0.7,0.1-1.4,0.4-2c0.3-0.6,0.7-1.1,1.3-1.4c0.6-0.3,1.1-0.6,1.8-0.8c0.4-0.1,1.3-0.3,2.3-0.4c2-0.3,3.5-0.6,4.4-0.8
			c0-0.3,0-0.6,0-0.7c0-1-0.3-1.7-0.7-2.1c-0.6-0.6-1.6-0.8-2.8-0.8c-1.1,0-2,0.1-2.5,0.6c-0.6,0.4-1,1.1-1.3,2.1l-2.4-0.3
			c0.3-1,0.6-1.8,1.1-2.5c0.6-0.7,1.3-1.1,2.3-1.4c1-0.3,2.1-0.6,3.4-0.6s2.3,0.1,3.1,0.4c0.8,0.3,1.4,0.7,1.7,1.1
			c0.4,0.4,0.6,1,0.7,1.7c0.1,0.4,0.1,1.1,0.1,2.3v3.3c0,2.3,0,3.8,0.1,4.4c0.1,0.6,0.3,1.1,0.6,1.7h-2.5
			C531.1,102.1,530.9,101.4,530.8,100.7z M530.6,95.1c-0.8,0.4-2.3,0.7-4.1,1c-1,0.1-1.7,0.3-2.1,0.6c-0.4,0.1-0.7,0.4-1,0.8
			s-0.3,0.7-0.3,1.1c0,0.7,0.3,1.3,0.7,1.7s1.3,0.7,2.3,0.7c1,0,1.8-0.1,2.5-0.6c0.7-0.4,1.3-1,1.7-1.7c0.3-0.6,0.4-1.4,0.4-2.5
			v-1.1H530.6z"/>
		<path d="M542.4,100.2l0.4,2.3c-0.7,0.1-1.3,0.3-1.8,0.3c-0.8,0-1.6-0.1-2.1-0.4c-0.6-0.3-0.8-0.7-1-1.1c-0.1-0.4-0.3-1.4-0.3-3
			v-8.5h-1.8v-2h1.8v-3.7l2.4-1.6v5.1h2.5v2H540v8.6c0,0.7,0,1.1,0.1,1.4c0.1,0.1,0.3,0.4,0.4,0.4c0.1,0.1,0.4,0.1,0.8,0.1
			C541.7,100.4,542,100.4,542.4,100.2z"/>
		<path d="M554.4,102.5v-2.1c-1.1,1.7-2.7,2.5-4.7,2.5c-0.8,0-1.7-0.1-2.4-0.6c-0.7-0.4-1.3-0.7-1.7-1.3s-0.6-1.1-0.7-1.8
			c-0.1-0.4-0.1-1.3-0.1-2.3v-9.1h2.5V96c0,1.3,0,2.1,0.1,2.7c0.1,0.7,0.4,1.1,1,1.6s1.1,0.6,1.8,0.6c0.7,0,1.4-0.1,2.1-0.6
			c0.7-0.4,1.1-0.8,1.4-1.6s0.4-1.6,0.4-2.8v-7.9h2.5v14.7h-2.4V102.5z"/>
		<path d="M560.5,102.5V87.8h2.3V90c0.6-1,1.1-1.7,1.6-2.1c0.4-0.4,1-0.6,1.6-0.6c0.8,0,1.7,0.3,2.5,0.8l-0.8,2.3
			c-0.6-0.4-1.3-0.6-1.8-0.6s-1,0.1-1.4,0.4c-0.4,0.3-0.7,0.8-1,1.4c-0.3,0.8-0.4,1.8-0.4,3v7.6h-2.4V102.5z"/>
		<path d="M580,97.8l2.5,0.3c-0.4,1.6-1.1,2.7-2.3,3.5s-2.5,1.3-4.2,1.3c-2.1,0-3.8-0.7-5.1-2c-1.3-1.3-1.8-3.1-1.8-5.5
			c0-2.4,0.6-4.4,1.8-5.8c1.3-1.4,3-2,5-2c2,0,3.5,0.7,4.8,2c1.3,1.3,1.8,3.3,1.8,5.7c0,0.1,0,0.4,0,0.7h-10.9
			c0.1,1.6,0.6,2.8,1.4,3.7s1.8,1.3,3.1,1.3c0.8,0,1.7-0.3,2.4-0.7C579.2,99.7,579.7,98.8,580,97.8z M572,93.7h8.2
			c-0.1-1.3-0.4-2.1-1-2.8c-0.8-1-1.8-1.4-3.1-1.4c-1.1,0-2.1,0.4-2.8,1.1C572.4,91.5,572,92.4,572,93.7z"/>
	</g>
	<g>
		<path d="M639.7,254.2v-16.3h7.2c1.4,0,2.5,0.1,3.3,0.4c0.7,0.3,1.4,0.8,1.8,1.6c0.4,0.7,0.7,1.6,0.7,2.4c0,1.1-0.4,2.1-1.1,3
			c-0.7,0.8-1.8,1.3-3.4,1.6c0.6,0.3,1,0.6,1.3,0.8c0.6,0.6,1.3,1.3,1.8,2.1l2.8,4.4h-2.7l-2.1-3.4c-0.6-1-1.1-1.7-1.6-2.3
			c-0.4-0.6-0.7-0.8-1.1-1.1c-0.3-0.1-0.7-0.3-1-0.4c-0.3,0-0.7-0.1-1.1-0.1H642v7.2h-2.3V254.2z M641.9,245.1h4.7
			c1,0,1.7-0.1,2.3-0.3c0.6-0.1,1-0.6,1.3-1c0.3-0.4,0.4-1,0.4-1.4c0-0.7-0.3-1.4-0.8-1.8c-0.6-0.4-1.4-0.7-2.7-0.7h-5.1
			L641.9,245.1L641.9,245.1z"/>
		<path d="M663.8,250.4l2.1,0.3c-0.3,1.1-1,2.1-1.8,2.8c-0.8,0.7-2,1-3.4,1c-1.7,0-3.1-0.6-4.1-1.6c-1-1-1.6-2.5-1.6-4.4
			c0-2,0.6-3.5,1.6-4.5c1-1.1,2.4-1.7,4-1.7c1.6,0,2.8,0.6,3.8,1.6c1,1.1,1.6,2.5,1.6,4.5c0,0.1,0,0.3,0,0.6h-8.8
			c0.1,1.3,0.4,2.3,1.1,3c0.7,0.7,1.4,1,2.4,1c0.7,0,1.4-0.1,1.8-0.6C663.1,251.9,663.5,251.2,663.8,250.4z M657.3,247.2h6.5
			c-0.1-1-0.3-1.7-0.7-2.3c-0.6-0.7-1.4-1.1-2.4-1.1c-0.8,0-1.7,0.3-2.3,0.8C657.7,245.4,657.4,246.1,657.3,247.2z"/>
		<path d="M667.6,250.6l2-0.3c0.1,0.8,0.4,1.4,1,1.8c0.6,0.4,1.3,0.6,2.1,0.6s1.6-0.1,2-0.6c0.4-0.4,0.7-0.8,0.7-1.3
			c0-0.4-0.1-0.8-0.6-1.1c-0.3-0.1-1-0.4-2-0.7c-1.4-0.4-2.4-0.7-3-1c-0.6-0.3-1-0.7-1.3-1.1c-0.3-0.4-0.4-1-0.4-1.6
			c0-0.6,0.1-1,0.4-1.4c0.3-0.4,0.6-0.8,1-1.1c0.3-0.3,0.7-0.4,1.3-0.6c0.6-0.1,1.1-0.3,1.7-0.3c1,0,1.7,0.1,2.4,0.4
			s1.3,0.6,1.6,1.1s0.6,1,0.7,1.8l-2,0.3c-0.1-0.6-0.3-1.1-0.7-1.4c-0.4-0.3-1-0.6-1.8-0.6s-1.6,0.1-2,0.4c-0.4,0.3-0.6,0.7-0.6,1.1
			c0,0.3,0.1,0.4,0.3,0.7c0.1,0.3,0.4,0.4,0.7,0.6c0.1,0.1,0.8,0.3,1.7,0.6c1.4,0.4,2.4,0.7,3,1c0.6,0.3,1,0.6,1.3,1
			c0.3,0.4,0.4,1,0.4,1.7c0,0.7-0.1,1.3-0.6,1.8c-0.4,0.6-1,1-1.7,1.4c-0.7,0.4-1.6,0.4-2.5,0.4c-1.6,0-2.7-0.3-3.5-1
			C668.3,252.9,667.8,251.9,667.6,250.6z"/>
		<path d="M678.9,248.4c0-2.1,0.6-3.8,1.8-4.8c1-0.8,2.3-1.3,3.7-1.3c1.6,0,3,0.6,4,1.6c1,1,1.6,2.5,1.6,4.4c0,1.6-0.3,2.7-0.7,3.5
			c-0.4,0.8-1.1,1.6-2,2c-0.8,0.4-1.8,0.7-2.8,0.7c-1.7,0-3-0.6-4-1.6C679.5,251.8,678.9,250.4,678.9,248.4z M681.1,248.4
			c0,1.6,0.3,2.7,1,3.4c0.7,0.7,1.4,1.1,2.5,1.1c1,0,1.8-0.4,2.4-1.1c0.7-0.7,1-1.8,1-3.4c0-1.4-0.3-2.5-1-3.3
			c-0.7-0.7-1.4-1.1-2.4-1.1c-1,0-1.8,0.4-2.5,1.1C681.3,245.7,681.1,246.8,681.1,248.4z"/>
		<path d="M700,254.2v-1.7c-0.8,1.3-2.1,2-3.7,2c-0.7,0-1.3-0.1-2-0.4c-0.6-0.3-1-0.6-1.3-1c-0.3-0.4-0.6-0.8-0.6-1.4
			c-0.1-0.4-0.1-1-0.1-1.8v-7.2h2v6.5c0,1,0,1.7,0.1,2.1c0.1,0.6,0.4,1,0.8,1.3c0.4,0.3,0.8,0.4,1.6,0.4c0.7,0,1.1-0.1,1.7-0.4
			c0.6-0.3,0.8-0.7,1.1-1.3c0.3-0.6,0.3-1.3,0.3-2.3v-6.2h2v11.7h-2V254.2z"/>
		<path d="M704.8,254.2v-11.7h1.8v1.8c0.4-0.8,0.8-1.4,1.3-1.7c0.4-0.3,0.8-0.4,1.3-0.4c0.7,0,1.4,0.3,2,0.7l-0.7,1.8
			c-0.4-0.3-1-0.4-1.4-0.4c-0.4,0-0.8,0.1-1.1,0.4c-0.3,0.3-0.6,0.6-0.7,1.1c-0.3,0.7-0.3,1.4-0.3,2.3v6.1L704.8,254.2L704.8,254.2z
			"/>
		<path d="M720.1,249.9l2,0.3c-0.3,1.4-0.7,2.4-1.7,3.1c-0.8,0.7-2,1.1-3.3,1.1c-1.6,0-2.8-0.6-3.8-1.6c-1-1-1.4-2.5-1.4-4.5
			c0-1.3,0.1-2.4,0.6-3.4c0.4-1,1-1.7,2-2.1c0.8-0.4,1.8-0.7,2.8-0.7c1.3,0,2.3,0.3,3.1,1c0.8,0.7,1.3,1.6,1.6,2.7l-2,0.3
			c-0.1-0.8-0.6-1.4-1-1.8c-0.4-0.4-1-0.6-1.7-0.6c-1,0-1.8,0.4-2.4,1.1c-0.6,0.7-1,1.8-1,3.4c0,1.6,0.3,2.7,0.8,3.4
			c0.6,0.7,1.4,1.1,2.4,1.1c0.8,0,1.4-0.3,2-0.7C719.7,251.6,720,250.9,720.1,249.9z"/>
		<path d="M731.9,250.4l2.1,0.3c-0.3,1.1-1,2.1-1.8,2.8c-0.8,0.7-2,1-3.4,1c-1.7,0-3.1-0.6-4.1-1.6c-1-1-1.6-2.5-1.6-4.4
			c0-2,0.6-3.5,1.6-4.5c1-1.1,2.4-1.7,4-1.7c1.6,0,2.8,0.6,3.8,1.6c1,1.1,1.6,2.5,1.6,4.5c0,0.1,0,0.3,0,0.6h-8.8
			c0.1,1.3,0.4,2.3,1.1,3c0.7,0.7,1.4,1,2.4,1c0.7,0,1.4-0.1,1.8-0.6C731,251.9,731.4,251.2,731.9,250.4z M725.2,247.2h6.5
			c-0.1-1-0.3-1.7-0.7-2.3c-0.6-0.7-1.4-1.1-2.4-1.1c-0.8,0-1.7,0.3-2.3,0.8C725.6,245.4,725.3,246.1,725.2,247.2z"/>
		<path d="M638.6,277.8l2-0.3c0.1,0.8,0.4,1.4,1,1.8c0.6,0.4,1.3,0.6,2.1,0.6s1.6-0.1,2-0.6c0.4-0.4,0.7-0.8,0.7-1.3
			s-0.1-0.8-0.6-1.1c-0.3-0.1-1-0.4-2-0.7c-1.4-0.4-2.4-0.7-3-1s-1-0.7-1.3-1.1c-0.3-0.4-0.4-1-0.4-1.6s0.1-1,0.4-1.4
			c0.3-0.4,0.6-0.8,1-1.1c0.3-0.3,0.7-0.4,1.3-0.6c0.6-0.1,1.1-0.3,1.7-0.3c1,0,1.7,0.1,2.4,0.4s1.3,0.6,1.6,1.1s0.6,1,0.7,1.8
			l-2,0.3c-0.1-0.6-0.3-1.1-0.7-1.4c-0.4-0.3-1-0.6-1.8-0.6s-1.6,0.1-2,0.4c-0.4,0.3-0.6,0.7-0.6,1.1c0,0.3,0.1,0.4,0.3,0.7
			c0.1,0.3,0.4,0.4,0.7,0.6c0.1,0.1,0.8,0.3,1.7,0.6c1.4,0.4,2.4,0.7,3,1c0.6,0.3,1,0.6,1.3,1c0.3,0.4,0.4,1,0.4,1.7
			c0,0.7-0.1,1.3-0.6,1.8s-1,1-1.7,1.4c-0.7,0.4-1.6,0.4-2.5,0.4c-1.6,0-2.7-0.3-3.5-1C639.3,280.1,638.9,279.1,638.6,277.8z"/>
		<path d="M658.8,277.5l2.1,0.3c-0.3,1.1-1,2.1-1.8,2.8c-0.8,0.7-2,1-3.4,1c-1.7,0-3.1-0.6-4.1-1.6s-1.6-2.5-1.6-4.4
			c0-2,0.6-3.5,1.6-4.5c1-1.1,2.4-1.7,4-1.7c1.6,0,2.8,0.6,3.8,1.6c1,1.1,1.6,2.5,1.6,4.5c0,0.1,0,0.3,0,0.6h-8.8
			c0.1,1.3,0.4,2.3,1.1,3c0.7,0.7,1.4,1,2.4,1c0.7,0,1.4-0.1,1.8-0.6C658.1,279.1,658.6,278.4,658.8,277.5z M652.3,274.4h6.5
			c-0.1-1-0.3-1.7-0.7-2.3c-0.6-0.7-1.4-1.1-2.4-1.1c-0.8,0-1.7,0.3-2.3,0.8C652.6,272.6,652.3,273.3,652.3,274.4z"/>
		<path d="M663.4,281.4v-11.7h1.8v1.8c0.4-0.8,0.8-1.4,1.3-1.7c0.4-0.3,0.8-0.4,1.3-0.4c0.7,0,1.4,0.3,2,0.7l-0.7,1.8
			c-0.4-0.3-1-0.4-1.4-0.4c-0.4,0-0.8,0.1-1.1,0.4s-0.6,0.6-0.7,1.1c-0.3,0.7-0.3,1.4-0.3,2.3v6.1L663.4,281.4L663.4,281.4z"/>
		<path d="M674.1,281.4l-4.5-11.7h2.1l2.5,7.1c0.3,0.7,0.6,1.6,0.7,2.4c0.1-0.6,0.4-1.4,0.7-2.3l2.5-7.2h2l-4.4,11.7L674.1,281.4
			L674.1,281.4z"/>
		<path d="M690.3,277.5l2.1,0.3c-0.3,1.1-1,2.1-1.8,2.8c-0.8,0.7-2,1-3.4,1c-1.7,0-3.1-0.6-4.1-1.6c-1-1-1.6-2.5-1.6-4.4
			c0-2,0.6-3.5,1.6-4.5c1-1.1,2.4-1.7,4-1.7c1.6,0,2.8,0.6,3.8,1.6c1,1.1,1.6,2.5,1.6,4.5c0,0.1,0,0.3,0,0.6h-8.8
			c0.1,1.3,0.4,2.3,1.1,3c0.7,0.7,1.4,1,2.4,1c0.7,0,1.4-0.1,1.8-0.6C689.6,279.1,690,278.4,690.3,277.5z M683.7,274.4h6.5
			c-0.1-1-0.3-1.7-0.7-2.3c-0.6-0.7-1.4-1.1-2.4-1.1c-0.8,0-1.7,0.3-2.3,0.8C684.2,272.6,683.7,273.3,683.7,274.4z"/>
		<path d="M694.8,281.4v-11.7h1.8v1.8c0.4-0.8,0.8-1.4,1.3-1.7s0.8-0.4,1.3-0.4c0.7,0,1.4,0.3,2,0.7l-0.7,1.8
			c-0.4-0.3-1-0.4-1.4-0.4c-0.4,0-0.8,0.1-1.1,0.4c-0.3,0.3-0.6,0.6-0.7,1.1c-0.3,0.7-0.3,1.4-0.3,2.3v6.1L694.8,281.4L694.8,281.4z
			"/>
		<path d="M712.5,286.2c-1.1-1.4-2-3-2.8-4.8c-0.7-1.8-1.1-3.8-1.1-5.8c0-1.7,0.3-3.4,0.8-5.1c0.7-1.8,1.7-3.7,3.1-5.5h1.4
			c-0.8,1.6-1.4,2.7-1.7,3.3c-0.4,1-0.8,2.1-1.1,3.1c-0.3,1.4-0.4,2.8-0.4,4.1c0,3.5,1.1,7.1,3.3,10.6h-1.4V286.2z"/>
		<path d="M714.6,281.4l6.2-16.3h2.3l6.7,16.3h-2.4l-1.8-5h-6.8l-1.8,5H714.6z M719.3,274.7h5.5l-1.7-4.5c-0.6-1.4-0.8-2.5-1.1-3.4
			c-0.1,1-0.6,2.1-0.8,3.1L719.3,274.7z"/>
		<path d="M731.6,281.4v-16.3h6.1c1.1,0,1.8,0,2.4,0.1c0.8,0.1,1.4,0.4,2,0.7c0.6,0.4,1,0.8,1.3,1.6c0.3,0.7,0.4,1.4,0.4,2.3
			c0,1.4-0.4,2.5-1.3,3.5c-0.8,1-2.4,1.4-4.8,1.4h-4.1v6.7L731.6,281.4L731.6,281.4z M733.7,272.9h4.2c1.4,0,2.4-0.3,3-0.7
			c0.6-0.6,0.8-1.3,0.8-2.1c0-0.7-0.1-1.3-0.6-1.7c-0.3-0.4-0.8-0.8-1.4-1c-0.4-0.1-1-0.1-2-0.1h-4.1L733.7,272.9L733.7,272.9z"/>
		<path d="M747,281.4v-16.3h2.1v16.3H747z"/>
		<path d="M753.9,286.2h-1.4c2.3-3.5,3.3-7.1,3.3-10.6c0-1.4-0.1-2.8-0.4-4.1c-0.3-1.1-0.6-2.1-1-3.1c-0.3-0.7-0.8-1.7-1.8-3.3h1.4
			c1.4,1.8,2.4,3.7,3.1,5.5c0.6,1.6,0.8,3.3,0.8,5.1c0,2-0.4,4-1.1,5.8C756.1,283.3,755.1,284.7,753.9,286.2z"/>
	</g>
	<path d="M722.1,161.2c-2,0-3.5-1.6-3.5-3.5c0-2,1.6-3.5,3.5-3.5c2,0,3.5,1.6,3.5,3.5C725.6,159.7,724.1,161.2,722.1,161.2z
		 M704.7,161.5h-48.3V154h48.4v7.5H704.7z M728.5,145.4h-76.7c-2.1,0-3.8,1.7-3.8,3.8V166c0,2.1,1.7,3.8,3.8,3.8h76.7
		c2.1,0,3.8-1.7,3.8-3.8v-16.7C732.3,147.2,730.6,145.4,728.5,145.4z M722.1,218.1c-2,0-3.5-1.6-3.5-3.5s1.6-3.5,3.5-3.5
		c2,0,3.5,1.6,3.5,3.5S724.1,218.1,722.1,218.1z M704.7,218.4h-48.3v-7.5h48.4v7.5H704.7z M728.5,202.3h-76.7
		c-2.1,0-3.8,1.7-3.8,3.8v16.8c0,2.1,1.7,3.8,3.8,3.8h76.7c2.1,0,3.8-1.7,3.8-3.8v-16.8C732.3,204.1,730.6,202.3,728.5,202.3z
		 M722.1,189.9c-2,0-3.5-1.6-3.5-3.5s1.6-3.5,3.5-3.5c2,0,3.5,1.6,3.5,3.5S724.1,189.9,722.1,189.9z M704.7,190.2h-48.3v-7.5h48.4
		v7.5H704.7z M728.5,174.1h-76.7c-2.1,0-3.8,1.7-3.8,3.8v16.8c0,2.1,1.7,3.8,3.8,3.8h76.7c2.1,0,3.8-1.7,3.8-3.8v-16.7
		C732.3,175.9,730.6,174.1,728.5,174.1z"/>
	<g>
		<path d="M130.5,383.2c-1.8,0.8-4.1-0.1-4.8-2c-0.8-1.8,0.1-4.1,2-4.8c1.8-0.8,4.1,0.1,4.8,2C133.2,380.3,132.3,382.4,130.5,383.2z
			 M136.1,374.7l-1.3,0.6c-0.4-0.6-1-1-1.4-1.4l0.6-1.3c0.1-0.4,0-0.8-0.4-1l-2.1-0.8c-0.4-0.1-0.8,0-1,0.4l-0.6,1.3
			c-0.7-0.1-1.4-0.1-2.1,0l-0.6-1.3c-0.1-0.4-0.6-0.6-1-0.4l-2.1,0.8c-0.4,0.1-0.6,0.6-0.4,1l0.6,1.3c-0.6,0.4-1,1-1.4,1.4l-1.3-0.6
			c-0.4-0.1-0.8,0-1,0.4l-0.8,2.1c-0.1,0.4,0,0.8,0.4,1l1.3,0.6c-0.1,0.7-0.1,1.4,0,2.1l-1.3,0.6c-0.4,0.1-0.6,0.6-0.4,1l0.8,2.1
			c0.1,0.4,0.6,0.6,1,0.4l1.3-0.6c0.4,0.6,1,1,1.4,1.4l-0.6,1.3c-0.1,0.4,0,0.8,0.4,1l2.1,0.8c0.4,0.1,0.8,0,1-0.4l0.6-1.3
			c0.7,0.1,1.4,0.1,2.1,0l0.6,1.3c0.1,0.4,0.6,0.6,1,0.4l2.1-0.8c0.4-0.1,0.6-0.6,0.4-1l-0.6-1.3c0.6-0.4,1-1,1.4-1.4l1.3,0.6
			c0.4,0.1,0.8,0,1-0.4l0.8-2.1c0.1-0.4,0-0.8-0.4-1l-1.3-0.6c0.1-0.7,0.1-1.4,0-2.1l1.3-0.6c0.4-0.1,0.6-0.6,0.4-1l-0.8-2.1
			C137,374.7,136.6,374.6,136.1,374.7z"/>
		<path d="M113.2,414.4c-1.4,0-2.5-1.1-2.5-2.5s1.1-2.5,2.5-2.5s2.5,1.1,2.5,2.5S114.6,414.4,113.2,414.4z M111,360.7h5
			c0.3,0,0.6,0.3,0.6,0.6c0,0.3-0.3,0.6-0.6,0.6h-5c-0.3,0-0.6-0.3-0.6-0.6C110.4,361,110.7,360.7,111,360.7z M127.1,390.9v16.4
			H99.8v-41.6h27.3v3h3.1V360c0-2.7-2.3-5-5-5h-23.6c-2.7,0-5,2.3-5,5v52.2c0,2.7,2.3,5,5,5h23.6c2.7,0,5-2.3,5-5v-21.5h-3.1V390.9z
			"/>
		<rect x="78.7" y="370.9" width="14.9" height="3.1"/>
		<rect x="82.4" y="377.1" width="11.2" height="3.1"/>
		<rect x="89.9" y="383.4" width="3.7" height="3.1"/>
	</g>
	<g>
		<path d="M89.9,451.3l6.2-16.3h2.3l6.7,16.3h-2.4l-1.8-5H94l-1.8,5H89.9z M94.5,444.6h5.5l-1.7-4.5c-0.6-1.4-0.8-2.5-1.1-3.4
			c-0.1,1-0.6,2.1-0.8,3.1L94.5,444.6z"/>
		<path d="M106.4,455.8v-16.3h1.8v1.6c0.4-0.6,0.8-1,1.4-1.3c0.6-0.3,1.1-0.4,2-0.4c1,0,1.8,0.3,2.7,0.7c0.7,0.6,1.4,1.3,1.7,2.1
			c0.4,1,0.6,2,0.6,3.1c0,1.1-0.3,2.3-0.7,3.3c-0.4,1-1,1.7-1.8,2.3c-0.8,0.6-1.7,0.7-2.5,0.7c-0.7,0-1.3-0.1-1.8-0.4
			c-0.6-0.3-1-0.6-1.3-1.1v5.7h-2V455.8z M108.3,445.5c0,1.6,0.3,2.7,0.8,3.4c0.6,0.7,1.4,1.1,2.3,1.1s1.7-0.4,2.3-1.1
			c0.6-0.7,1-1.8,1-3.5c0-1.6-0.3-2.5-1-3.4c-0.6-0.7-1.4-1.1-2.3-1.1s-1.6,0.4-2.3,1.1C108.6,442.8,108.3,443.9,108.3,445.5z"/>
		<path d="M119,455.8v-16.3h1.8v1.6c0.4-0.6,0.8-1,1.4-1.3c0.6-0.3,1.1-0.4,2-0.4c1,0,1.8,0.3,2.7,0.7c0.7,0.6,1.4,1.3,1.7,2.1
			c0.4,1,0.6,2,0.6,3.1c0,1.1-0.3,2.3-0.7,3.3c-0.4,1-1,1.7-1.8,2.3c-0.8,0.6-1.7,0.7-2.5,0.7c-0.7,0-1.3-0.1-1.8-0.4
			c-0.6-0.3-1-0.6-1.3-1.1v5.7h-2V455.8z M120.9,445.5c0,1.6,0.3,2.7,0.8,3.4c0.6,0.7,1.4,1.1,2.3,1.1s1.7-0.4,2.3-1.1
			c0.6-0.7,1-1.8,1-3.5c0-1.6-0.3-2.5-1-3.4c-0.6-0.7-1.4-1.1-2.3-1.1s-1.6,0.4-2.3,1.1C121.1,442.8,120.9,443.9,120.9,445.5z"/>
	</g>
	
		<polyline fill="none" stroke="#A43ABA" stroke-width="3.75" stroke-linecap="round" stroke-linejoin="round" stroke-miterlimit="10" points="
		328,231.5 335.4,222.5 341.7,231.5 347.1,222.5 352.6,231.5 358.2,222.5 364.1,231.5 370.2,222.5 375.4,231.5 381.4,222.5 
		387.2,231.5 392.1,222.5 398.3,231.5 404.4,218.2 411.2,231.5 	"/>
	<g>
		<g>
			
				<line fill="none" stroke="#999999" stroke-miterlimit="10" stroke-dasharray="4,4" x1="165.6" y1="413.1" x2="609.2" y2="185.3"/>
			<g>
				<path fill="#999999" d="M616.7,181.5c-2.8,3.1-6.2,7.6-7.6,11.5l-0.8-7.1L603,181C606.9,181.9,612.4,181.9,616.7,181.5z"/>
			</g>
		</g>
	</g>
	<g>
		<path d="M353.2,270.2l4-12.2l4,12.2H353.2z M358.9,252.1c-0.3-0.7-0.8-1.1-1.6-1.1c-0.7,0-1.4,0.4-1.6,1.1l-9.5,29.3
			c-0.3,0.8,0.1,1.8,1.1,2.1c0.1,0,0.3,0.1,0.6,0.1c0.7,0,1.4-0.4,1.6-1.1l2.8-8.9h10l2.8,8.9c0.3,0.8,1.3,1.4,2.1,1.1
			s1.4-1.3,1.1-2.1L358.9,252.1z"/>
		<path d="M380.2,280.1h-6.9v-25h6.1c2.8,0,5.1,2.3,5.1,5c0,2.8-2.3,5-5.1,5h-3.1c-1,0-1.7,0.7-1.7,1.7c0,1,0.7,1.7,1.7,1.7h4.1
			c3.3,0,5.9,2.7,5.9,5.8C386.2,277.5,383.5,280.1,380.2,280.1z M384.9,266.4c1.7-1.6,2.8-3.8,2.8-6.2c0-4.7-3.8-8.3-8.3-8.3h-7.8
			c-1,0-1.7,0.7-1.7,1.7v28.4c0,1,0.7,1.7,1.7,1.7h8.6c5.1,0,9.2-4.1,9.2-9.2C389.4,270.9,387.6,267.9,384.9,266.4z"/>
	</g>
	<path fill="#010101" d="M611.7,315c1,0,1.8,0.4,2.5,1.1c0.7,0.7,1,1.6,1,2.5c0,2-1.6,3.5-3.5,3.5l0,0c-2,0-3.5-1.7-3.5-3.5
		C608.2,316.6,609.7,315,611.7,315L611.7,315z M661.1,314.2h-30.8c-1.8-5.1-6.7-8.6-12.2-8.6H618c-7.1,0-12.9,5.8-13,12.9
		c-0.1,7.2,5.7,13,12.9,13.2h0.1c5.4,0,10.2-3.4,12.2-8.3h1c0.4,0.6,1.1,1.7,1.8,2.1c0.3,0.1,0.6,0.1,1,0.1c0.3,0,0.4,0,0.4,0h0.6
		v-2.3h1.7l2,2.4l2.5-2.3h1.8l1.7-1.4l1.8,1.6l2-1.1l2,1l1.8,2.3l2-2.3l1.8-0.8l2.5,2.3l1.8-1.4l3.8-5.5L661.1,314.2z"/>
	
		<polyline fill="none" stroke="#A43ABA" stroke-width="3.75" stroke-linecap="round" stroke-linejoin="round" stroke-miterlimit="10" points="
		747.3,321.5 754.6,312.6 761,321.5 766.4,312.6 771.9,321.5 777.4,312.6 783.4,321.5 789.4,312.6 794.7,321.5 800.6,312.6 
		806.4,321.5 811.4,312.6 817.6,321.5 823.7,308.4 830.5,321.5 	"/>
	<g>
		<path d="M524,325.4l4-12.2l4,12.2H524z M529.7,307.2c-0.3-0.7-0.8-1.1-1.6-1.1s-1.4,0.4-1.6,1.1l-9.5,29.3
			c-0.3,0.8,0.1,1.8,1.1,2.1c0.1,0,0.3,0.1,0.6,0.1c0.7,0,1.4-0.4,1.6-1.1l2.8-8.9h10l2.8,8.9c0.3,0.8,1.3,1.4,2.1,1.1
			c0.8-0.3,1.4-1.3,1.1-2.1L529.7,307.2z"/>
		<path d="M551,335.4h-6.9v-25h6.1c2.8,0,5.1,2.3,5.1,5c0,2.8-2.3,5-5.1,5h-3.3c-1,0-1.7,0.7-1.7,1.7c0,1,0.7,1.7,1.7,1.7h4.1
			c3.3,0,5.9,2.7,5.9,5.8C557,332.7,554.3,335.4,551,335.4z M555.7,321.7c1.7-1.6,2.8-3.8,2.8-6.2c0-4.7-3.8-8.3-8.3-8.3h-7.8
			c-1,0-1.7,0.7-1.7,1.7v28.4c0,1,0.7,1.7,1.7,1.7h8.6c5.1,0,9.2-4.1,9.2-9.2C560.2,326.2,558.4,323.2,555.7,321.7z"/>
	</g>
	<g>
		<path d="M578.2,330v-8.3H570v-3.5h8.2v-8.2h3.5v8.2h8.2v3.5h-8.2v8.3H578.2z"/>
	</g>
	<g>
		<path d="M704.8,317.2h-20.1v-3.5h20.1V317.2z M704.8,326.3h-20.1v-3.5h20.1V326.3z"/>
		<path d="M729.7,317.2h-20.1v-3.5h20.1V317.2z M729.7,326.3h-20.1v-3.5h20.1V326.3z"/>
	</g>
	<g>
		<path d="M618.2,361.6v-12.2h1.6v6.9l3.5-3.5h2l-3.4,3.3l3.7,5.5h-1.8l-3-4.5l-1,1v3.5L618.2,361.6L618.2,361.6z"/>
		<path d="M632.8,358.8l1.6,0.1c-0.3,0.8-0.7,1.6-1.4,2.1c-0.7,0.6-1.6,0.7-2.5,0.7c-1.3,0-2.3-0.4-3.1-1.1
			c-0.8-0.7-1.1-1.8-1.1-3.4c0-1.4,0.4-2.7,1.1-3.4c0.7-0.7,1.7-1.3,3-1.3c1.1,0,2.1,0.4,2.8,1.1c0.7,0.7,1.1,2,1.1,3.4
			c0,0.1,0,0.3,0,0.4h-6.5c0,1,0.3,1.7,0.8,2.3c0.6,0.6,1.1,0.7,1.8,0.7c0.6,0,1-0.1,1.4-0.4C632.2,359.7,632.5,359.5,632.8,358.8z
			 M627.9,356.3h5c0-0.7-0.3-1.3-0.6-1.7c-0.4-0.6-1.1-0.8-1.8-0.8c-0.7,0-1.3,0.3-1.7,0.7S627.9,355.6,627.9,356.3z"/>
		<path d="M636.1,365l-0.1-1.4c0.3,0.1,0.6,0.1,0.8,0.1c0.3,0,0.6,0,0.8-0.1s0.4-0.3,0.4-0.4c0.1-0.1,0.3-0.6,0.4-1.1
			c0-0.1,0.1-0.1,0.1-0.4l-3.4-8.8h1.6l1.8,5.1c0.3,0.7,0.4,1.3,0.7,2c0.1-0.7,0.4-1.4,0.6-2l1.8-5.1h1.6l-3.4,8.9
			c-0.4,1-0.7,1.7-0.8,2c-0.3,0.4-0.6,0.8-0.8,1.1c-0.3,0.3-0.7,0.3-1.3,0.3C636.8,365.3,636.5,365.1,636.1,365z"/>
	</g>
	<g>
		<path d="M754.2,359l1.4-0.3c0.1,0.6,0.3,1,0.7,1.4c0.4,0.4,0.8,0.4,1.6,0.4c0.7,0,1.1-0.1,1.6-0.4s0.6-0.6,0.6-1
			c0-0.3-0.1-0.6-0.4-0.8c-0.1-0.1-0.7-0.3-1.6-0.6c-1.1-0.3-1.8-0.6-2.3-0.7c-0.4-0.1-0.7-0.4-1-0.8c-0.3-0.4-0.3-0.7-0.3-1.1
			s0.1-0.7,0.3-1.1c0.1-0.4,0.4-0.6,0.7-0.8c0.3-0.1,0.6-0.3,1-0.4s0.8-0.1,1.3-0.1c0.7,0,1.3,0.1,1.8,0.3c0.6,0.1,0.8,0.4,1.1,0.8
			s0.4,0.8,0.6,1.4l-1.4,0.1c0-0.4-0.3-0.8-0.6-1.1c-0.3-0.3-0.7-0.4-1.4-0.4c-0.7,0-1.1,0.1-1.4,0.3c-0.3,0.1-0.4,0.4-0.4,0.8
			c0,0.1,0,0.4,0.1,0.6c0.1,0.1,0.3,0.3,0.6,0.4c0.1,0,0.6,0.1,1.3,0.4c1,0.3,1.8,0.6,2.3,0.7s0.7,0.4,1,0.8s0.4,0.7,0.4,1.3
			s-0.1,1-0.4,1.4c-0.3,0.4-0.7,0.8-1.3,1s-1.1,0.4-1.8,0.4c-1.1,0-2-0.3-2.5-0.7C755.1,360.7,754.4,359.9,754.2,359z"/>
		<path d="M763.3,351.3v-1.7h1.6v1.7H763.3z M763.3,361.6v-8.8h1.6v8.8H763.3z"/>
		<path d="M766.8,362.3l1.4,0.3c0,0.4,0.3,0.7,0.6,1c0.4,0.3,0.8,0.4,1.6,0.4c0.7,0,1.3-0.1,1.6-0.4c0.3-0.3,0.6-0.7,0.7-1.1
			c0.1-0.3,0.1-1,0.1-2c-0.7,0.7-1.4,1.1-2.4,1.1c-1.3,0-2.1-0.4-2.8-1.3c-0.7-0.8-1-2-1-3.1c0-0.8,0.1-1.6,0.4-2.3
			c0.3-0.7,0.7-1.3,1.3-1.7c0.6-0.4,1.3-0.6,2-0.6c1,0,1.8,0.4,2.5,1.3v-1.1h1.4v7.6c0,1.4-0.1,2.4-0.4,3s-0.7,1-1.3,1.4
			c-0.6,0.4-1.4,0.6-2.3,0.6c-1,0-1.8-0.3-2.5-0.7C767,364.3,766.8,363.3,766.8,362.3z M768.1,357.1c0,1.1,0.3,2,0.7,2.5
			c0.4,0.6,1,0.8,1.7,0.8c0.7,0,1.3-0.3,1.7-0.8s0.7-1.4,0.7-2.5c0-1.1-0.3-1.8-0.7-2.4c-0.4-0.6-1-0.8-1.7-0.8
			c-0.7,0-1.3,0.3-1.7,0.8C768.4,355.2,768.1,356.1,768.1,357.1z"/>
		<path d="M776.6,361.6v-8.8h1.3v1.3c0.7-1,1.6-1.4,2.8-1.4c0.6,0,1,0.1,1.4,0.3c0.4,0.1,0.7,0.4,1,0.7s0.4,0.7,0.4,1.1
			c0,0.3,0.1,0.7,0.1,1.4v5.4h-1.6v-5.4c0-0.6,0-1.1-0.1-1.4c-0.1-0.3-0.3-0.6-0.6-0.7s-0.7-0.3-1-0.3c-0.6,0-1.1,0.1-1.7,0.6
			c-0.6,0.4-0.7,1.1-0.7,2.3v4.8h-1.4V361.6z"/>
		<path d="M791.7,360.6c-0.6,0.4-1.1,0.8-1.6,1c-0.4,0.1-1,0.3-1.7,0.3c-1,0-1.7-0.3-2.3-0.7c-0.6-0.4-0.8-1.1-0.8-1.8
			c0-0.4,0.1-0.8,0.3-1.1c0.1-0.3,0.4-0.7,0.7-0.8s0.7-0.4,1.1-0.4c0.3-0.1,0.7-0.1,1.3-0.3c1.3-0.1,2.1-0.3,2.7-0.6
			c0-0.1,0-0.3,0-0.4c0-0.6-0.1-1-0.4-1.3c-0.4-0.3-1-0.6-1.7-0.6c-0.7,0-1.3,0.1-1.6,0.4c-0.3,0.3-0.6,0.7-0.7,1.3l-1.4-0.1
			c0.1-0.6,0.3-1.1,0.7-1.6s0.7-0.7,1.3-0.8c0.6-0.1,1.3-0.3,2-0.3s1.4,0.1,1.8,0.3s0.8,0.4,1,0.7c0.1,0.3,0.4,0.6,0.4,1
			c0,0.3,0.1,0.7,0.1,1.4v2c0,1.4,0,2.3,0.1,2.7c0.1,0.4,0.1,0.7,0.4,1H792C791.9,361.3,791.7,361,791.7,360.6z M791.6,357.2
			c-0.6,0.3-1.4,0.4-2.4,0.6c-0.6,0.1-1,0.1-1.3,0.3s-0.4,0.3-0.6,0.4c-0.1,0.1-0.1,0.4-0.1,0.7c0,0.4,0.1,0.7,0.4,1
			s0.7,0.4,1.3,0.4s1.1-0.1,1.6-0.4s0.7-0.6,1-1c0.1-0.3,0.3-0.8,0.3-1.6v-0.4H791.6z"/>
		<path d="M798.6,360.3l0.3,1.3c-0.4,0.1-0.8,0.1-1.1,0.1c-0.6,0-1-0.1-1.3-0.3c-0.3-0.1-0.6-0.4-0.6-0.7s-0.1-0.8-0.1-1.7v-5.1
			h-1.1v-1.1h1.1v-2.1l1.4-0.8v3.1h1.6v1.1h-1.6v5.1c0,0.4,0,0.7,0.1,0.8s0.1,0.3,0.3,0.3s0.3,0.1,0.6,0.1
			C798.2,360.3,798.4,360.3,798.6,360.3z"/>
		<path d="M805.9,361.6v-1.3c-0.7,1-1.6,1.6-2.8,1.6c-0.6,0-1-0.1-1.4-0.3c-0.4-0.1-0.8-0.4-1-0.7c-0.1-0.3-0.4-0.7-0.4-1.1
			c0-0.3-0.1-0.7-0.1-1.4v-5.5h1.6v5c0,0.8,0,1.3,0.1,1.6c0.1,0.4,0.3,0.7,0.6,1s0.7,0.3,1.1,0.3c0.4,0,0.8-0.1,1.3-0.3
			s0.7-0.6,0.8-1c0.1-0.4,0.3-1,0.3-1.7V353h1.6v8.8h-1.6V361.6z"/>
		<path d="M809.5,361.6v-8.8h1.3v1.3c0.3-0.6,0.7-1,1-1.3c0.3-0.3,0.6-0.3,1-0.3c0.6,0,1,0.1,1.6,0.4l-0.6,1.4
			c-0.4-0.3-0.7-0.3-1.1-0.3c-0.3,0-0.6,0.1-0.8,0.3s-0.4,0.4-0.6,0.8c-0.1,0.6-0.3,1.1-0.3,1.7v4.7L809.5,361.6L809.5,361.6z"/>
		<path d="M821.3,358.8l1.6,0.1c-0.3,0.8-0.7,1.6-1.4,2.1c-0.7,0.6-1.6,0.7-2.5,0.7c-1.3,0-2.3-0.4-3.1-1.1
			c-0.8-0.7-1.1-1.8-1.1-3.4c0-1.4,0.4-2.7,1.1-3.4c0.7-0.7,1.7-1.3,3-1.3c1.1,0,2.1,0.4,2.8,1.1c0.7,0.7,1.1,2,1.1,3.4
			c0,0.1,0,0.3,0,0.4h-6.5c0,1,0.3,1.7,0.8,2.3c0.6,0.6,1.1,0.7,1.8,0.7c0.6,0,1-0.1,1.4-0.4C820.7,359.7,821,359.5,821.3,358.8z
			 M816.3,356.3h5c0-0.7-0.3-1.3-0.6-1.7c-0.4-0.6-1.1-0.8-1.8-0.8c-0.7,0-1.3,0.3-1.7,0.7S816.3,355.6,816.3,356.3z"/>
	</g>
	<g>
		<path d="M513.5,361.6v-8.8h1.3v1.3c0.3-0.4,0.7-0.7,1.1-1c0.4-0.3,1-0.4,1.6-0.4c0.7,0,1.1,0.1,1.6,0.4c0.4,0.3,0.7,0.7,0.8,1.1
			c0.7-1,1.6-1.6,2.7-1.6c0.8,0,1.6,0.3,2,0.7c0.4,0.4,0.7,1.3,0.7,2.3v6.1h-1.4v-5.5c0-0.6,0-1-0.1-1.3c-0.1-0.3-0.3-0.4-0.6-0.6
			c-0.3-0.1-0.6-0.3-0.8-0.3c-0.6,0-1.1,0.1-1.6,0.6c-0.4,0.4-0.6,1.1-0.6,2v5.1h-1.6v-5.7c0-0.7-0.1-1.1-0.4-1.6
			c-0.3-0.4-0.7-0.6-1.1-0.6s-0.8,0.1-1.1,0.3c-0.3,0.1-0.6,0.6-0.7,1c-0.1,0.4-0.3,1-0.3,1.8v4.5L513.5,361.6L513.5,361.6z"/>
		<path d="M533.8,358.8l1.6,0.1c-0.3,0.8-0.7,1.6-1.4,2.1c-0.7,0.6-1.6,0.7-2.5,0.7c-1.3,0-2.3-0.4-3.1-1.1
			c-0.8-0.7-1.1-1.8-1.1-3.4c0-1.4,0.4-2.7,1.1-3.4c0.7-0.7,1.7-1.3,3-1.3c1.1,0,2.1,0.4,2.8,1.1c0.7,0.7,1.1,2,1.1,3.4
			c0,0.1,0,0.3,0,0.4h-6.5c0,1,0.3,1.7,0.8,2.3c0.6,0.6,1.1,0.7,1.8,0.7c0.6,0,1-0.1,1.4-0.4C533.2,359.7,533.5,359.5,533.8,358.8z
			 M528.8,356.3h5c0-0.7-0.3-1.3-0.6-1.7c-0.4-0.6-1.1-0.8-1.8-0.8c-0.7,0-1.3,0.3-1.7,0.7C529.2,354.9,528.8,355.6,528.8,356.3z"/>
		<path d="M536.6,359l1.4-0.3c0.1,0.6,0.3,1,0.7,1.4c0.4,0.4,0.8,0.4,1.6,0.4s1.1-0.1,1.6-0.4s0.6-0.6,0.6-1c0-0.3-0.1-0.6-0.4-0.8
			c-0.1-0.1-0.7-0.3-1.6-0.6c-1.1-0.3-1.8-0.6-2.3-0.7c-0.4-0.1-0.7-0.4-1-0.8s-0.3-0.7-0.3-1.1s0.1-0.7,0.3-1.1
			c0.1-0.4,0.4-0.6,0.7-0.8c0.3-0.1,0.6-0.3,1-0.4c0.4-0.1,0.8-0.1,1.3-0.1c0.7,0,1.3,0.1,1.8,0.3s0.8,0.4,1.1,0.8s0.4,0.8,0.6,1.4
			l-1.4,0.1c0-0.4-0.3-0.8-0.6-1.1c-0.3-0.3-0.7-0.4-1.4-0.4c-0.7,0-1.1,0.1-1.4,0.3c-0.3,0.1-0.4,0.4-0.4,0.8c0,0.1,0,0.4,0.1,0.6
			c0.1,0.1,0.3,0.3,0.6,0.4c0.1,0,0.6,0.1,1.3,0.4c1,0.3,1.8,0.6,2.3,0.7c0.4,0.1,0.7,0.4,1,0.8s0.4,0.7,0.4,1.3s-0.1,1-0.4,1.4
			c-0.3,0.4-0.7,0.8-1.3,1s-1.1,0.4-1.8,0.4c-1.1,0-2-0.3-2.5-0.7S536.7,359.9,536.6,359z"/>
		<path d="M545.1,359l1.4-0.3c0.1,0.6,0.3,1,0.7,1.4c0.4,0.4,0.8,0.4,1.6,0.4c0.7,0,1.1-0.1,1.6-0.4c0.4-0.3,0.6-0.6,0.6-1
			c0-0.3-0.1-0.6-0.4-0.8c-0.1-0.1-0.7-0.3-1.6-0.6c-1.1-0.3-1.8-0.6-2.3-0.7c-0.4-0.1-0.7-0.4-1-0.8s-0.3-0.7-0.3-1.1
			s0.1-0.7,0.3-1.1c0.1-0.4,0.4-0.6,0.7-0.8c0.3-0.1,0.6-0.3,1-0.4c0.4-0.1,0.8-0.1,1.3-0.1c0.7,0,1.3,0.1,1.8,0.3s0.8,0.4,1.1,0.8
			c0.3,0.4,0.4,0.8,0.6,1.4l-1.4,0.1c0-0.4-0.3-0.8-0.6-1.1c-0.3-0.3-0.7-0.4-1.4-0.4c-0.7,0-1.1,0.1-1.4,0.3
			c-0.3,0.1-0.4,0.4-0.4,0.8c0,0.1,0,0.4,0.1,0.6c0.1,0.1,0.3,0.3,0.6,0.4c0.1,0,0.6,0.1,1.3,0.4c1,0.3,1.8,0.6,2.3,0.7
			c0.4,0.1,0.7,0.4,1,0.8s0.4,0.7,0.4,1.3s-0.1,1-0.4,1.4c-0.3,0.4-0.7,0.8-1.3,1s-1.1,0.4-1.8,0.4c-1.1,0-2-0.3-2.5-0.7
			C545.9,360.7,545.2,359.9,545.1,359z"/>
		<path d="M559.8,360.6c-0.6,0.4-1.1,0.8-1.6,1s-1,0.3-1.7,0.3c-1,0-1.7-0.3-2.3-0.7s-0.8-1.1-0.8-1.8c0-0.4,0.1-0.8,0.3-1.1
			c0.1-0.3,0.4-0.7,0.7-0.8s0.7-0.4,1.1-0.4c0.3-0.1,0.7-0.1,1.3-0.3c1.3-0.1,2.1-0.3,2.7-0.6c0-0.1,0-0.3,0-0.4
			c0-0.6-0.1-1-0.4-1.3c-0.4-0.3-1-0.6-1.7-0.6c-0.7,0-1.3,0.1-1.6,0.4s-0.6,0.7-0.7,1.3l-1.4-0.1c0.1-0.6,0.3-1.1,0.7-1.6
			s0.7-0.7,1.3-0.8s1.3-0.3,2-0.3c0.7,0,1.4,0.1,1.8,0.3c0.4,0.1,0.8,0.4,1,0.7c0.1,0.3,0.4,0.6,0.4,1c0,0.3,0.1,0.7,0.1,1.4v2
			c0,1.4,0,2.3,0.1,2.7c0.1,0.4,0.1,0.7,0.4,1h-1.4C559.9,361.3,559.9,361,559.8,360.6z M559.8,357.2c-0.6,0.3-1.4,0.4-2.4,0.6
			c-0.6,0.1-1,0.1-1.3,0.3s-0.4,0.3-0.6,0.4c-0.1,0.1-0.1,0.4-0.1,0.7c0,0.4,0.1,0.7,0.4,1s0.7,0.4,1.3,0.4s1.1-0.1,1.6-0.4
			c0.4-0.3,0.7-0.6,1-1c0.1-0.3,0.3-0.8,0.3-1.6v-0.4H559.8z"/>
		<path d="M563.3,362.3l1.4,0.3c0,0.4,0.3,0.7,0.6,1c0.4,0.3,0.8,0.4,1.6,0.4c0.7,0,1.3-0.1,1.6-0.4c0.3-0.3,0.6-0.7,0.7-1.1
			c0.1-0.3,0.1-1,0.1-2c-0.7,0.7-1.4,1.1-2.4,1.1c-1.3,0-2.1-0.4-2.8-1.3c-0.7-0.8-1-2-1-3.1c0-0.8,0.1-1.6,0.4-2.3
			c0.3-0.7,0.7-1.3,1.3-1.7c0.6-0.4,1.3-0.6,2-0.6c1,0,1.8,0.4,2.5,1.3v-1.1h1.4v7.6c0,1.4-0.1,2.4-0.4,3s-0.7,1-1.3,1.4
			c-0.6,0.4-1.4,0.6-2.3,0.6c-1,0-1.8-0.3-2.5-0.7C563.5,364.3,563.2,363.3,563.3,362.3z M564.5,357.1c0,1.1,0.3,2,0.7,2.5
			c0.4,0.6,1,0.8,1.7,0.8c0.7,0,1.3-0.3,1.7-0.8s0.7-1.4,0.7-2.5c0-1.1-0.3-1.8-0.7-2.4c-0.4-0.6-1-0.8-1.7-0.8
			c-0.7,0-1.3,0.3-1.7,0.8C564.7,355.2,564.5,356.1,564.5,357.1z"/>
		<path d="M579,358.8l1.6,0.1c-0.3,0.8-0.7,1.6-1.4,2.1c-0.7,0.6-1.6,0.7-2.5,0.7c-1.3,0-2.3-0.4-3.1-1.1c-0.8-0.7-1.1-1.8-1.1-3.4
			c0-1.4,0.4-2.7,1.1-3.4c0.7-0.7,1.7-1.3,3-1.3c1.1,0,2.1,0.4,2.8,1.1c0.7,0.7,1.1,2,1.1,3.4c0,0.1,0,0.3,0,0.4h-6.5
			c0,1,0.3,1.7,0.8,2.3c0.6,0.6,1.1,0.7,1.8,0.7c0.6,0,1-0.1,1.4-0.4C578.5,359.7,578.8,359.5,579,358.8z M574.1,356.3h5
			c0-0.7-0.3-1.3-0.6-1.7c-0.4-0.6-1.1-0.8-1.8-0.8c-0.7,0-1.3,0.3-1.7,0.7C574.5,354.9,574.2,355.6,574.1,356.3z"/>
	</g>
	<path fill="#010101" d="M121.9,478.3c1,0,1.8,0.4,2.5,1.1c0.7,0.7,1,1.6,1,2.5c0,2-1.6,3.5-3.5,3.5l0,0c-2,0-3.5-1.7-3.5-3.5
		C118.3,479.9,119.9,478.3,121.9,478.3L121.9,478.3z M171.1,477.6h-30.7c-1.8-5.1-6.7-8.6-12.2-8.6h-0.1c-7.1,0-12.9,5.8-13,12.9
		c-0.1,7.2,5.7,13,12.9,13.2h0.1c5.4,0,10.2-3.4,12.2-8.3h1c0.4,0.6,1.1,1.7,1.8,2.1c0.3,0.1,0.6,0.1,1,0.1c0.3,0,0.4,0,0.4,0h0.6
		v-2.3h1.7l2,2.4l2.5-2.3h1.8l1.7-1.4l1.8,1.6l2-1.1l2,1l1.8,2.3l2-2.3l1.8-0.8l2.5,2.3l1.8-1.4l3.8-5.5L171.1,477.6z"/>
	
		<polyline fill="none" stroke="#A43ABA" stroke-width="3.75" stroke-linecap="round" stroke-linejoin="round" stroke-miterlimit="10" points="
		257.3,484.8 264.8,475.9 271.1,484.8 276.4,475.9 282,484.8 287.5,475.9 293.4,484.8 299.4,475.9 304.8,484.8 310.6,475.9 
		316.4,484.8 321.5,475.9 327.6,484.8 333.7,471.7 340.6,484.8 	"/>
	<g>
		<path d="M34.1,488.6l4-12l4,12.2h-7.9V488.6z M39.6,470.7c-0.3-0.7-0.8-1.1-1.6-1.1s-1.4,0.4-1.6,1.1L27,500
			c-0.3,0.8,0.1,1.8,1.1,2.1c0.1,0,0.3,0.1,0.6,0.1c0.7,0,1.4-0.4,1.6-1.1l2.8-8.9h10l2.8,8.9c0.3,0.8,1.3,1.4,2.1,1.1
			c0.8-0.3,1.4-1.3,1.1-2.1L39.6,470.7z"/>
		<path d="M61.1,498.7h-6.9v-25h6.1c2.8,0,5.1,2.3,5.1,5c0,2.8-2.3,5-5.1,5H57c-1,0-1.7,0.7-1.7,1.7c0,1,0.7,1.7,1.7,1.7h4.1
			c3.3,0,5.9,2.7,5.9,5.8C67,496.1,64.4,498.7,61.1,498.7z M65.8,485c1.7-1.6,2.8-3.8,2.8-6.2c0-4.7-3.8-8.3-8.3-8.3h-7.8
			c-1,0-1.7,0.7-1.7,1.7v28.4c0,1,0.7,1.7,1.7,1.7h8.6c5.1,0,9.2-4.1,9.2-9.2C70.3,489.5,68.5,486.5,65.8,485z"/>
	</g>
	<g>
		<path d="M88.3,493.3V485h-8.2v-3.5h8.2v-8.2h3.5v8.2h8.2v3.5h-8.2v8.3H88.3z"/>
	</g>
	<g>
		<path d="M215,480.4h-20.1v-3.5H215V480.4z M215,489.6h-20.1v-3.5H215V489.6z"/>
		<path d="M239.7,480.4h-20.1v-3.5h20.1V480.4z M239.7,489.6h-20.1v-3.5h20.1V489.6z"/>
	</g>
	<g>
		<path d="M128.4,525v-12.2h1.6v6.9l3.5-3.5h2l-3.4,3.3l3.7,5.5h-1.8l-3-4.5l-1,1v3.5H128.4L128.4,525z"/>
		<path d="M142.8,522l1.6,0.1c-0.3,0.8-0.7,1.6-1.4,2.1c-0.7,0.6-1.6,0.7-2.5,0.7c-1.3,0-2.3-0.4-3.1-1.1s-1.1-1.8-1.1-3.4
			c0-1.4,0.4-2.7,1.1-3.4s1.7-1.3,3-1.3c1.1,0,2.1,0.4,2.8,1.1c0.7,0.7,1.1,2,1.1,3.4c0,0.1,0,0.3,0,0.4h-6.5c0,1,0.3,1.7,0.8,2.3
			c0.6,0.6,1.1,0.7,1.8,0.7c0.6,0,1-0.1,1.4-0.4C142.2,523,142.7,522.8,142.8,522z M138,519.6h4.8c0-0.7-0.3-1.3-0.6-1.7
			c-0.4-0.6-1.1-0.8-1.8-0.8s-1.3,0.3-1.7,0.7C138.3,518.2,138,518.9,138,519.6z"/>
		<path d="M146.2,528.3l-0.1-1.4c0.3,0.1,0.6,0.1,0.8,0.1c0.3,0,0.6,0,0.8-0.1c0.3-0.1,0.4-0.3,0.4-0.4c0.1-0.1,0.3-0.6,0.4-1.1
			c0-0.1,0.1-0.1,0.1-0.4l-3.4-8.8h1.6l1.8,5.1c0.3,0.7,0.4,1.3,0.7,2c0.1-0.7,0.4-1.4,0.6-2l1.8-5.1h1.6L150,525
			c-0.4,1-0.7,1.7-0.8,2c-0.3,0.4-0.6,0.8-0.8,1.1c-0.3,0.3-0.7,0.3-1.3,0.3C146.9,528.6,146.6,528.4,146.2,528.3z"/>
	</g>
	<g>
		<path d="M264.3,522.3l1.4-0.3c0.1,0.6,0.3,1,0.7,1.4c0.4,0.4,0.8,0.4,1.6,0.4c0.7,0,1.1-0.1,1.6-0.4c0.4-0.3,0.6-0.6,0.6-1
			c0-0.3-0.1-0.6-0.4-0.8c-0.1-0.1-0.7-0.3-1.6-0.6c-1.1-0.3-1.8-0.6-2.3-0.7c-0.4-0.1-0.7-0.4-1-0.8c-0.3-0.4-0.3-0.7-0.3-1.1
			c0-0.4,0.1-0.7,0.3-1.1c0.1-0.4,0.4-0.6,0.7-0.8c0.3-0.1,0.6-0.3,1-0.4c0.4-0.1,0.8-0.1,1.3-0.1c0.7,0,1.3,0.1,1.8,0.3
			c0.6,0.1,0.8,0.4,1.1,0.8c0.3,0.4,0.4,0.8,0.6,1.4l-1.4,0.1c0-0.4-0.3-0.8-0.6-1.1c-0.3-0.3-0.7-0.4-1.4-0.4s-1.1,0.1-1.4,0.3
			c-0.3,0.1-0.4,0.4-0.4,0.8c0,0.1,0,0.4,0.1,0.6c0.1,0.1,0.3,0.3,0.6,0.4c0.1,0,0.6,0.1,1.3,0.4c1,0.3,1.8,0.6,2.3,0.7
			c0.4,0.1,0.7,0.4,1,0.8c0.3,0.4,0.4,0.7,0.4,1.3s-0.1,1-0.4,1.4c-0.3,0.4-0.7,0.8-1.3,1c-0.6,0.1-1.1,0.4-1.8,0.4
			c-1.1,0-2-0.3-2.5-0.7S264.5,523.3,264.3,522.3z"/>
		<path d="M273.4,514.5v-1.7h1.6v1.7H273.4z M273.4,525v-8.8h1.6v8.8H273.4z"/>
		<path d="M276.8,525.7l1.4,0.3c0,0.4,0.3,0.7,0.6,1c0.4,0.3,0.8,0.4,1.6,0.4s1.3-0.1,1.6-0.4c0.3-0.3,0.6-0.7,0.7-1.1
			c0.1-0.3,0.1-1,0.1-2c-0.7,0.7-1.4,1.1-2.4,1.1c-1.3,0-2.1-0.4-2.8-1.3c-0.7-0.8-1-2-1-3.1c0-0.8,0.1-1.6,0.4-2.3s0.7-1.3,1.3-1.7
			c0.6-0.4,1.3-0.6,2-0.6c1,0,1.8,0.4,2.5,1.3v-1.1h1.4v7.6c0,1.4-0.1,2.4-0.4,3c-0.3,0.6-0.7,1-1.3,1.4c-0.6,0.4-1.4,0.6-2.3,0.6
			c-1,0-1.8-0.3-2.5-0.7C276.9,527.7,276.8,526.6,276.8,525.7z M278.1,520.3c0,1.1,0.3,2,0.7,2.5c0.4,0.6,1,0.8,1.7,0.8
			s1.3-0.3,1.7-0.8c0.4-0.6,0.7-1.4,0.7-2.5c0-1.1-0.3-1.8-0.7-2.4s-1-0.8-1.7-0.8s-1.3,0.3-1.7,0.8S278.1,519.4,278.1,520.3z"/>
		<path d="M286.6,525v-8.8h1.3v1.3c0.7-1,1.6-1.4,2.8-1.4c0.6,0,1,0.1,1.4,0.3c0.4,0.1,0.7,0.4,1,0.7c0.3,0.3,0.4,0.7,0.4,1.1
			c0,0.3,0.1,0.7,0.1,1.4v5.4h-1.6v-5.4c0-0.6,0-1.1-0.1-1.4s-0.3-0.6-0.6-0.7c-0.3-0.1-0.7-0.3-1-0.3c-0.6,0-1.1,0.1-1.7,0.6
			c-0.6,0.4-0.7,1.1-0.7,2.3v4.8h-1.4V525z"/>
		<path d="M301.7,523.9c-0.6,0.4-1.1,0.8-1.6,1c-0.4,0.1-1,0.3-1.7,0.3c-1,0-1.7-0.3-2.3-0.7s-0.8-1.1-0.8-1.8
			c0-0.4,0.1-0.8,0.3-1.1c0.1-0.3,0.4-0.7,0.7-0.8c0.3-0.1,0.7-0.4,1.1-0.4c0.3-0.1,0.7-0.1,1.3-0.3c1.3-0.1,2.1-0.3,2.7-0.6
			c0-0.1,0-0.3,0-0.4c0-0.6-0.1-1-0.4-1.3c-0.4-0.3-1-0.6-1.7-0.6c-0.7,0-1.3,0.1-1.6,0.4c-0.3,0.3-0.6,0.7-0.7,1.3l-1.4-0.1
			c0.1-0.6,0.3-1.1,0.7-1.6s0.7-0.7,1.3-0.8c0.6-0.1,1.3-0.3,2-0.3c0.7,0,1.4,0.1,1.8,0.3c0.4,0.1,0.8,0.4,1,0.7s0.4,0.6,0.4,1
			c0,0.3,0.1,0.7,0.1,1.4v2c0,1.4,0,2.3,0.1,2.7c0.1,0.4,0.1,0.7,0.4,1H302C302,524.6,301.8,524.3,301.7,523.9z M301.7,520.5
			c-0.6,0.3-1.4,0.4-2.4,0.6c-0.6,0.1-1,0.1-1.3,0.3c-0.3,0.1-0.4,0.3-0.6,0.4c-0.1,0.1-0.1,0.4-0.1,0.7c0,0.4,0.1,0.7,0.4,1
			c0.3,0.3,0.7,0.4,1.3,0.4c0.6,0,1.1-0.1,1.6-0.4c0.4-0.3,0.7-0.6,1-1c0.1-0.3,0.3-0.8,0.3-1.6v-0.4H301.7z"/>
		<path d="M308.8,523.6l0.3,1.3c-0.4,0.1-0.8,0.1-1.1,0.1c-0.6,0-1-0.1-1.3-0.3c-0.3-0.1-0.6-0.4-0.6-0.7s-0.1-0.8-0.1-1.7v-5.1
			h-1.1v-1.1h1.1V514l1.4-0.8v3.1h1.6v1.1h-1.6v5.1c0,0.4,0,0.7,0.1,0.8s0.1,0.3,0.3,0.3s0.3,0.1,0.6,0.1
			C308.2,523.6,308.5,523.6,308.8,523.6z"/>
		<path d="M316,525v-1.3c-0.7,1-1.6,1.6-2.8,1.6c-0.6,0-1-0.1-1.4-0.3c-0.4-0.1-0.8-0.4-1-0.7c-0.1-0.3-0.4-0.7-0.4-1.1
			c0-0.3-0.1-0.7-0.1-1.4v-5.5h1.6v5c0,0.8,0,1.3,0.1,1.6c0.1,0.4,0.3,0.7,0.6,1c0.3,0.3,0.7,0.3,1.1,0.3s0.8-0.1,1.3-0.3
			c0.4-0.1,0.7-0.6,0.8-1c0.1-0.4,0.3-1,0.3-1.7v-4.7h1.6v8.8H316V525z"/>
		<path d="M319.7,525v-8.8h1.3v1.3c0.3-0.6,0.7-1,1-1.3c0.3-0.3,0.6-0.3,1-0.3c0.6,0,1,0.1,1.6,0.4l-0.6,1.4
			c-0.4-0.3-0.7-0.3-1.1-0.3c-0.3,0-0.6,0.1-0.8,0.3c-0.3,0.1-0.4,0.4-0.6,0.8c-0.1,0.6-0.3,1.1-0.3,1.7v4.7H319.7L319.7,525z"/>
		<path d="M331.3,522l1.6,0.1c-0.3,0.8-0.7,1.6-1.4,2.1c-0.7,0.6-1.6,0.7-2.5,0.7c-1.3,0-2.3-0.4-3.1-1.1s-1.1-1.8-1.1-3.4
			c0-1.4,0.4-2.7,1.1-3.4s1.7-1.3,3-1.3c1.1,0,2.1,0.4,2.8,1.1c0.7,0.7,1.1,2,1.1,3.4c0,0.1,0,0.3,0,0.4h-6.5c0,1,0.3,1.7,0.8,2.3
			c0.6,0.6,1.1,0.7,1.8,0.7c0.6,0,1-0.1,1.4-0.4C330.7,523,331.1,522.8,331.3,522z M326.5,519.6h5c0-0.7-0.3-1.3-0.6-1.7
			c-0.4-0.6-1.1-0.8-1.8-0.8c-0.7,0-1.3,0.3-1.7,0.7C326.9,518.2,326.5,518.9,326.5,519.6z"/>
	</g>
	<g>
		<path d="M23.7,525v-8.8h1.3v1.3c0.3-0.4,0.7-0.7,1.1-1c0.4-0.3,1-0.4,1.6-0.4c0.7,0,1.1,0.1,1.6,0.4c0.4,0.3,0.7,0.7,0.8,1.1
			c0.7-1,1.6-1.6,2.7-1.6c0.8,0,1.6,0.3,2,0.7c0.4,0.4,0.7,1.3,0.7,2.3v6.1H34v-5.5c0-0.6,0-1-0.1-1.3c-0.1-0.3-0.3-0.4-0.6-0.6
			c-0.3-0.1-0.6-0.3-0.8-0.3c-0.6,0-1.1,0.1-1.6,0.6c-0.4,0.4-0.6,1.1-0.6,2v5.1h-1.6v-5.7c0-0.7-0.1-1.1-0.4-1.6
			c-0.3-0.4-0.7-0.6-1.1-0.6s-0.8,0.1-1.1,0.3c-0.3,0.1-0.6,0.6-0.7,1c-0.1,0.4-0.3,1-0.3,1.8v4.5H23.7L23.7,525z"/>
		<path d="M43.7,522l1.6,0.1c-0.3,0.8-0.7,1.6-1.4,2.1c-0.7,0.6-1.6,0.7-2.5,0.7c-1.3,0-2.3-0.4-3.1-1.1c-0.8-0.7-1.1-1.8-1.1-3.4
			c0-1.4,0.4-2.7,1.1-3.4c0.7-0.7,1.7-1.3,3-1.3c1.1,0,2.1,0.4,2.8,1.1c0.7,0.7,1.1,2,1.1,3.4c0,0.1,0,0.3,0,0.4h-6.5
			c0,1,0.3,1.7,0.8,2.3c0.6,0.6,1.1,0.7,1.8,0.7c0.6,0,1-0.1,1.4-0.4C43.2,523,43.6,522.8,43.7,522z M38.9,519.6h4.8
			c0-0.7-0.3-1.3-0.6-1.7c-0.4-0.6-1.1-0.8-1.8-0.8s-1.3,0.3-1.7,0.7C39.2,518.2,38.9,518.9,38.9,519.6z"/>
		<path d="M46.6,522.3L48,522c0.1,0.6,0.3,1,0.7,1.4c0.4,0.4,0.8,0.4,1.6,0.4s1.1-0.1,1.6-0.4s0.6-0.6,0.6-1c0-0.3-0.1-0.6-0.4-0.8
			c-0.1-0.1-0.7-0.3-1.6-0.6c-1.1-0.3-1.8-0.6-2.3-0.7c-0.4-0.1-0.7-0.4-1-0.8c-0.3-0.4-0.3-0.7-0.3-1.1c0-0.4,0.1-0.7,0.3-1.1
			c0.1-0.4,0.4-0.6,0.7-0.8c0.3-0.1,0.6-0.3,1-0.4c0.4-0.1,0.8-0.1,1.3-0.1c0.7,0,1.3,0.1,1.8,0.3c0.6,0.1,0.8,0.4,1.1,0.8
			c0.3,0.4,0.4,0.8,0.6,1.4l-1.4,0.1c0-0.4-0.3-0.8-0.6-1.1c-0.3-0.3-0.7-0.4-1.4-0.4s-1.1,0.1-1.4,0.3c-0.3,0.1-0.4,0.4-0.4,0.8
			c0,0.1,0,0.4,0.1,0.6c0.1,0.1,0.3,0.3,0.6,0.4c0.1,0,0.6,0.1,1.3,0.4c1,0.3,1.8,0.6,2.3,0.7c0.4,0.1,0.7,0.4,1,0.8
			c0.3,0.4,0.4,0.7,0.4,1.3s-0.1,1-0.4,1.4c-0.3,0.4-0.7,0.8-1.3,1c-0.6,0.1-1.1,0.4-1.8,0.4c-1.1,0-2-0.3-2.5-0.7
			C47.4,524,46.7,523.3,46.6,522.3z"/>
		<path d="M55.1,522.3l1.4-0.3c0.1,0.6,0.3,1,0.7,1.4c0.4,0.4,0.8,0.4,1.6,0.4s1.1-0.1,1.6-0.4s0.6-0.6,0.6-1c0-0.3-0.1-0.6-0.4-0.8
			c-0.1-0.1-0.7-0.3-1.6-0.6c-1.1-0.3-1.8-0.6-2.3-0.7c-0.4-0.1-0.7-0.4-1-0.8c-0.3-0.4-0.3-0.7-0.3-1.1c0-0.4,0.1-0.7,0.3-1.1
			s0.4-0.6,0.7-0.8c0.3-0.1,0.6-0.3,1-0.4s0.8-0.1,1.3-0.1c0.7,0,1.3,0.1,1.8,0.3c0.6,0.1,0.8,0.4,1.1,0.8c0.3,0.4,0.4,0.8,0.6,1.4
			l-1.4,0.1c0-0.4-0.3-0.8-0.6-1.1c-0.3-0.3-0.7-0.4-1.4-0.4c-0.7,0-1.1,0.1-1.4,0.3c-0.3,0.1-0.4,0.4-0.4,0.8c0,0.1,0,0.4,0.1,0.6
			c0.1,0.1,0.3,0.3,0.6,0.4c0.1,0,0.6,0.1,1.3,0.4c1,0.3,1.8,0.6,2.3,0.7s0.7,0.4,1,0.8c0.3,0.4,0.4,0.7,0.4,1.3s-0.1,1-0.4,1.4
			c-0.3,0.4-0.7,0.8-1.3,1c-0.6,0.1-1.1,0.4-1.8,0.4c-1.1,0-2-0.3-2.5-0.7C55.9,524,55.2,523.3,55.1,522.3z"/>
		<path d="M69.9,523.9c-0.6,0.4-1.1,0.8-1.6,1c-0.4,0.1-1,0.3-1.7,0.3c-1,0-1.7-0.3-2.3-0.7c-0.6-0.4-0.8-1.1-0.8-1.8
			c0-0.4,0.1-0.8,0.3-1.1c0.1-0.3,0.4-0.7,0.7-0.8c0.3-0.1,0.7-0.4,1.1-0.4c0.3-0.1,0.7-0.1,1.3-0.3c1.3-0.1,2.1-0.3,2.7-0.6
			c0-0.1,0-0.3,0-0.4c0-0.6-0.1-1-0.4-1.3c-0.4-0.3-1-0.6-1.7-0.6c-0.7,0-1.3,0.1-1.6,0.4c-0.3,0.3-0.6,0.7-0.7,1.3l-1.4-0.1
			c0.1-0.6,0.3-1.1,0.7-1.6s0.7-0.7,1.3-0.8c0.6-0.1,1.3-0.3,2-0.3c0.7,0,1.4,0.1,1.8,0.3c0.4,0.1,0.8,0.4,1,0.7s0.4,0.6,0.4,1
			c0,0.3,0.1,0.7,0.1,1.4v2c0,1.4,0,2.3,0.1,2.7c0.1,0.4,0.1,0.7,0.4,1h-1.6C70.1,524.6,69.9,524.3,69.9,523.9z M69.8,520.5
			c-0.6,0.3-1.4,0.4-2.4,0.6c-0.6,0.1-1,0.1-1.3,0.3c-0.3,0.1-0.4,0.3-0.6,0.4s-0.1,0.4-0.1,0.7c0,0.4,0.1,0.7,0.4,1
			c0.3,0.3,0.7,0.4,1.3,0.4s1.1-0.1,1.6-0.4c0.4-0.3,0.7-0.6,1-1c0.1-0.3,0.3-0.8,0.3-1.6v-0.4H69.8z"/>
		<path d="M73.3,525.7l1.4,0.3c0,0.4,0.3,0.7,0.6,1c0.4,0.3,0.8,0.4,1.6,0.4c0.7,0,1.3-0.1,1.6-0.4c0.3-0.3,0.6-0.7,0.7-1.1
			c0.1-0.3,0.1-1,0.1-2c-0.7,0.7-1.4,1.1-2.4,1.1c-1.3,0-2.1-0.4-2.8-1.3c-0.7-0.8-1-2-1-3.1c0-0.8,0.1-1.6,0.4-2.3
			c0.3-0.7,0.7-1.3,1.3-1.7c0.6-0.4,1.3-0.6,2-0.6c1,0,1.8,0.4,2.5,1.3v-1.1h1.4v7.6c0,1.4-0.1,2.4-0.4,3c-0.3,0.6-0.7,1-1.3,1.4
			c-0.6,0.4-1.4,0.6-2.3,0.6c-1,0-1.8-0.3-2.5-0.7C73.5,527.7,73.3,526.6,73.3,525.7z M74.6,520.3c0,1.1,0.3,2,0.7,2.5
			c0.4,0.6,1,0.8,1.7,0.8s1.3-0.3,1.7-0.8c0.4-0.6,0.7-1.4,0.7-2.5c0-1.1-0.3-1.8-0.7-2.4c-0.4-0.6-1-0.8-1.7-0.8s-1.3,0.3-1.7,0.8
			S74.6,519.4,74.6,520.3z"/>
		<path d="M89.2,522l1.6,0.1c-0.3,0.8-0.7,1.6-1.4,2.1c-0.7,0.6-1.6,0.7-2.5,0.7c-1.3,0-2.3-0.4-3.1-1.1c-0.8-0.7-1.1-1.8-1.1-3.4
			c0-1.4,0.4-2.7,1.1-3.4c0.7-0.7,1.7-1.3,3-1.3c1.1,0,2.1,0.4,2.8,1.1c0.7,0.7,1.1,2,1.1,3.4c0,0.1,0,0.3,0,0.4h-6.5
			c0,1,0.3,1.7,0.8,2.3c0.6,0.6,1.1,0.7,1.8,0.7c0.6,0,1-0.1,1.4-0.4C88.6,523,88.9,522.8,89.2,522z M84.2,519.6h5
			c0-0.7-0.3-1.3-0.6-1.7c-0.4-0.6-1.1-0.8-1.8-0.8c-0.7,0-1.3,0.3-1.7,0.7C84.6,518.2,84.2,518.9,84.2,519.6z"/>
	</g>
</g>
</svg>
